<?xml version="1.0" encoding="utf-8"?>
<!-- Generator: Adobe Illustrator 19.0.0, SVG Export Plug-In . SVG Version: 6.00 Build 0)  -->
<svg version="1.1" id="Layer_1" xmlns="http://www.w3.org/2000/svg" xmlns:xlink="http://www.w3.org/1999/xlink" x="0px" y="0px"
	 viewBox="100 -100 500 500" style="enable-background:new 100 -100 500 500;" xml:space="preserve">
<style type="text/css">
	.st0{fill:#464646;}
</style>
<g>
	<path class="st0" d="M224.9,304.1c-28.6-9-42.2-26.9-53.5-47.7c-12.8-23.6-26.7-46.6-40.5-70.4c11.2,0,21-0.8,30.8,0.1
		c97.7,8.8,193.7-1.2,289.1-22.7c36.1-8.1,72.8-13,109.3-19.2c3.8-0.6,7.7-0.1,13.5-0.1c-3,5.8-5.3,10.6-7.9,15.2
		c-18.7,32.5-38.1,64.7-56.1,97.6c-11.7,21.4-26.1,39.1-54.6,47.8c8,7.5,14.1,13,19.9,18.8c2.7,2.8,4.7,6.2,7,9.4
		c-4.2,1.6-17.7,5.7-19.6,4.3c-8.4-6.4-17.3-13.4-22.8-22.2c-4.4-7.1-8.2-9.5-16.1-9.4c-61.1,0.3-107,0.3-168.1-0.1
		c-8.4-0.1-11.5,3.3-15.7,10c-5.4,8.4-13.6,15.3-21.7,21.3c-2.3,1.7-16.1-1.9-20.5-3c2.4-3.5,4.3-7.4,7.2-10.4
		C210,317.6,216.1,312.3,224.9,304.1z"/>
	<path class="st0" d="M239.8,175.5c-41.1-2.6-79.6-5.2-118.1-7.4c-11.2-0.7-22.7-1.9-21.7-16.5c1.1-15.8,13.7-14.1,25-13.6
		c45.5,2.1,91,5,136.5,5.7c68.6,1,134.9-16.3,201.8-28.7c38.9-7.2,78-12.7,117.1-18.9c9.5-1.5,17.5,1.4,19.3,11.8
		c1.9,11.1-4.4,16.2-15.1,18c-82.8,14.1-165.5,29.4-248.5,42.3C303.6,173.3,270.3,173.4,239.8,175.5z"/>
	<path class="st0" d="M263.7,35.7c-12.7,0-24.1,0-36.7,0c-0.3-6.4-1-11.7-0.8-17c0.7-24.4-6.8-34.3-27.6-35.8
		C177-18.5,158-2.9,157.2,19.5c-1.1,29.4-0.3,58.9-0.5,88.3c0,5.3-0.8,10.7-1.2,15.8c-13.9,4-19.9,0.5-19.6-14.1
		c0.7-29.4-0.3-58.9,0.4-88.3c1-40.1,36.1-66.3,75-56.7C239.9-28.6,267.7,8.3,263.7,35.7z"/>
</g>
</svg>
