<?xml version="1.0" encoding="utf-8"?>
<!-- Generator: Adobe Illustrator 19.0.0, SVG Export Plug-In . SVG Version: 6.00 Build 0)  -->
<svg version="1.1" id="Layer_1" xmlns="http://www.w3.org/2000/svg" xmlns:xlink="http://www.w3.org/1999/xlink" x="0px" y="0px"
	 viewBox="0 0 500 500" style="enable-background:new 0 0 500 500;" xml:space="preserve">
<style type="text/css">
	.st0{fill:#464646;}
</style>
<g id="XMLID_36_">
	<g id="XMLID_32_">
		<path id="XMLID_35_" class="st0" d="M35.8,413.3c-7.3,0-13.8,0.6-20.2-0.1c-9.2-1.1-15.3-8-15.4-17.6c-0.2-23.6-0.5-47.3,0.5-70.9
			c0.4-9.1,3.2-18.4,6.6-26.9c7.8-19.3,16.7-38.2,25.3-57.1c9-19.8,24.2-32.1,45.4-36.7c82.9-17.8,166.6-23.5,251-14.3
			c31.1,3.4,62,8.9,92.9,14.4c21.6,3.9,36.7,17,45.7,37c8.5,18.8,16.8,37.7,25.2,56.5c4.7,10.5,7,21.5,7.1,32.9
			c0.1,20.9,0.1,41.7,0,62.6c0,13.2-7.1,20.3-20.2,20.5c-4.9,0.1-9.8,0-15.3,0c0-35,0-69.5,0-104.4c-143,0-285.5,0-428.7,0
			C35.8,343.7,35.8,378.3,35.8,413.3z"/>
		<path id="XMLID_34_" class="st0" d="M455,317.8c0,45.2,0,89.8,0,135.4c-8.6,0-17.2-1-25.5,0.2c-13.2,2.1-20.6-3-24.6-15.3
			c-1.7-5.2-5.2-9.8-7.3-14.9c-1.9-4.6-4.8-5.7-9.6-5.7c-85.2,0.1-170.4,0.1-255.5,0.1c-7.3,0-14.7,0.2-22-0.1
			c-3.7-0.1-5.7,1-7.3,4.4c-4.4,9.3-9.2,18.5-14.1,27.5c-0.9,1.7-3.3,3.5-5.1,3.6c-12.7,0.3-25.4,0.2-38.6,0.2
			c0-45.2,0-90.1,0-135.3C181.7,317.8,318,317.8,455,317.8z"/>
		<path id="XMLID_33_" class="st0" d="M456.4,211.1c-13.6-12.3-30.3-16.1-47.9-19c0-9,0-17.6,0-26.3c0-14.7-5.9-23.6-20.6-26
			c-18.1-3-36.6-4.8-54.9-5.3c-12.6-0.3-25.3,2.1-37.8,4.1c-5.3,0.9-10.7,3.1-15.4,5.8c-6.6,3.8-10,10-9.7,17.9c0.2,4.5,0,9,0,13.9
			c-13.6,0-26.5,0-40.2,0c0-3.8,0-7.3,0-10.8c0-14.3-5.7-22.3-19.7-25.7c-9.2-2.2-18.7-3.7-28.2-4.6c-22.5-2.3-44.9-1.1-66.9,3.7
			c-5.3,1.2-10.5,3.6-15.1,6.5c-5.9,3.7-8.6,9.6-8.5,16.7c0.1,9.7,0,19.4,0,29.8c-17.3,3.3-34.4,6.7-48.9,20.2c0-3.7,0-5.5,0-7.4
			c0-33.8,0-67.5,0-101.3c0-20.7,11.5-32.7,32.1-35.7c28.1-4.2,55.9-9.6,83.9-14.1c65.3-10.6,130.5-9.6,195.6,2
			c25,4.5,50.1,8.5,75.1,12.5c15,2.4,27.7,15.2,27.8,30.5c0.4,36.9,0.1,73.9,0.1,110.8C457.3,209.6,457,210,456.4,211.1z"/>
	</g>
</g>
</svg>
