<?xml version="1.0" encoding="utf-8"?>
<!-- Generator: Adobe Illustrator 19.0.0, SVG Export Plug-In . SVG Version: 6.00 Build 0)  -->
<svg version="1.1" id="Layer_1" xmlns="http://www.w3.org/2000/svg" xmlns:xlink="http://www.w3.org/1999/xlink" x="0px" y="0px"
	 viewBox="100 -100 500 500" style="enable-background:new 100 -100 500 500;" xml:space="preserve">
<style type="text/css">
	.st0{fill:#464646;}
</style>
<g>
	<path class="st0" d="M347.7,279.2c-90.6-94.6-93.8-204,0.9-299.5C440.1,47.5,439.6,221.2,347.7,279.2z"/>
	<path class="st0" d="M428.8,29c29.8-13.8,57.8-26.7,86.3-39.9c29.3,107.5,1.9,209.4-97.2,261.6C459.9,177.5,468.1,105.5,428.8,29z"
		/>
	<path class="st0" d="M183.7-10.7c28,12.9,55.7,25.7,85.8,39.6c-38.7,75.8-31.9,148,10.5,220.2C183.2,203.5,152.8,94.6,183.7-10.7z"
		/>
	<path class="st0" d="M99,173.2c17.7-4.6,34-8.8,52.8-13.7c23.9,62.7,71.4,102.7,129.7,132.8C221.9,318.2,126.9,256.4,99,173.2z"/>
	<path class="st0" d="M545.9,159.3c19.4,5.1,36.2,9.5,53.1,13.9c-24,80.1-118.9,142.3-182.5,119.7
		C473.6,262.1,522.2,224,545.9,159.3z"/>
</g>
</svg>
