<?xml version="1.0" encoding="utf-8"?>
<!-- Generator: Adobe Illustrator 19.0.0, SVG Export Plug-In . SVG Version: 6.00 Build 0)  -->
<svg version="1.1" id="Layer_1" xmlns="http://www.w3.org/2000/svg" xmlns:xlink="http://www.w3.org/1999/xlink" x="0px" y="0px"
	 viewBox="100 -100 500 500" style="enable-background:new 100 -100 500 500;" xml:space="preserve">
<style type="text/css">
	.st0{fill:#464646;}
</style>
<path class="st0" d="M359.6,152.6c3.1,0.8,5.3,1.4,7.6,2c14.5,3.9,21.2,12.9,19.8,26.6c-1.6,14.9-12.1,25.3-26.4,26
	c-21.7,1.2-40.7-11.6-48.3-32.9c-11.1-31-1.4-78.3,46.1-89.7C407,73,443,83.9,468.7,121.5c26.6,39,25.4,94.6-3.2,132.9
	c-25,33.6-60.7,46.6-100.5,49.4c-70.8,5-128.4-40-147.2-113.8C194.4,97.9,248.4,14.7,344.4-5c92.5-18.9,189.7,30.7,226.5,117.6
	c27.9,66.1,16,129.5-22.3,187.4c-69.3,105-206.8,130.6-317.9,61C101.2,280.1,74.3,99.9,175.2-14c41.8-47.1,95.7-72.6,157.2-81.9
	c74.4-11.4,144.4,0.9,209.5,40.1C561.7-44,558-18.4,540.2-9c-9.8,5.1-18.9,3.5-27.9-2.2c-46.3-29.1-97.1-39.2-150.9-34.3
	c-65.7,6-122.8,30.7-162,86c-55.2,77.8-38,193.2,36.8,257.6c59.7,51.3,136.3,64.2,200.3,30.9c53.9-28.1,90-71.3,96.9-133.6
	c1.7-15.7-0.5-33.4-6.2-48.1c-36.8-95.4-124.6-121-200.5-92c-43.3,16.5-66.7,61.6-59.7,109c7.4,50.4,37.7,81.3,85.8,87.4
	c41.6,5.2,81-26,82.9-65.7c1.6-33.6-24-58.1-54.3-52.1C370.9,136,364.1,142.2,359.6,152.6z"/>
</svg>
