<?xml version="1.0" encoding="utf-8"?>
<!-- Generator: Adobe Illustrator 19.0.0, SVG Export Plug-In . SVG Version: 6.00 Build 0)  -->
<svg version="1.1" id="Layer_1" xmlns="http://www.w3.org/2000/svg" xmlns:xlink="http://www.w3.org/1999/xlink" x="0px" y="0px"
	 viewBox="100 -100 500 500" style="enable-background:new 100 -100 500 500;" xml:space="preserve">
<style type="text/css">
	.st0{fill:#464646;}
</style>
<g>
	<path class="st0" d="M533.8,333.7c-122.8,0-244.9,0-367.7,0c0,11.3,0,22.3,0,33.3c0,15.8-0.6,16.4-16.6,16.4
		c-7.3,0-14.6,0.1-21.9,0c-8.7-0.2-11-2.6-11-11.4c0-72.8-0.1-145.5-0.1-218.3c0-45.2,0-90.5,0-135.7c0-2,0-4,0-6.8
		c16.7,7.1,32.7,7.3,49.6,0c0,3.2,0,5.8,0,8.4c0,68.8,0.1,137.6-0.2,206.4c0,6.2,1.4,8,7.9,8c117.4-0.2,234.8-0.2,352.2,0
		c6.5,0,7.9-1.8,7.9-8c-0.2-68.8-0.2-137.6-0.2-206.4c0-2.5,0-5,0-8.2c16.6,6.9,32.8,7.3,49.3-0.1c0.2,2.2,0.4,3.6,0.4,5
		c0,118.4,0,236.9-0.1,355.3c0,9.6-2.3,11.9-11.7,12c-9.2,0.1-18.3,0.1-27.5,0c-7.5-0.1-10.2-2.7-10.3-10.1c-0.1-10.8,0-21.7,0-32.5
		C533.8,338.5,533.8,336.3,533.8,333.7z"/>
	<path class="st0" d="M467,49.9c-22.8,0-44.4,0-66.8,0c0,55.3,0,110.4,0,166c-5.6,0-10.5,0-16.2,0c0-54.9,0-110,0-165.7
		c-22.8,0-44.7,0-67.5,0c0,55,0,110.2,0,165.7c-5.7,0-10.6,0-16.2,0c0-55.1,0-110.2,0-165.8c-22.6,0-44.6,0-67.2,0
		c0,55.4,0,110.5,0,165.9c-5.6,0-10.5,0-16.2,0c0-55.1,0-110.2,0-166.2c-11.4,0-22.1,0-33.1,0c0-5.7,0-10.6,0-15.9
		c110.7,0,221.1,0,332.1,0c0,4.9,0,10,0,15.6c-10.6,0-21.1,0-32.4,0c0,55.7,0,110.8,0,166.4c-5.8,0-10.8,0-16.6,0
		C467,160.7,467,105.6,467,49.9z"/>
	<path class="st0" d="M558.2-0.4c-22.8-0.2-41.2-18.7-41.3-41.5c-0.1-22.7,19-41.6,41.9-41.6c22.8,0,41.4,19.1,41.1,42.2
		C599.8-18.6,581.1-0.3,558.2-0.4z"/>
	<path class="st0" d="M141.5-0.4c-22.8,0.1-41.4-18.3-41.5-41.1c-0.1-23.1,18.5-42.1,41.4-42c22.9,0.1,41.8,19,41.7,41.8
		C182.9-19,164.3-0.5,141.5-0.4z"/>
</g>
</svg>
