<?xml version="1.0" encoding="utf-8"?>
<!-- Generator: Adobe Illustrator 19.0.0, SVG Export Plug-In . SVG Version: 6.00 Build 0)  -->
<svg version="1.1" id="Layer_1" xmlns="http://www.w3.org/2000/svg" xmlns:xlink="http://www.w3.org/1999/xlink" x="0px" y="0px"
	 viewBox="100 -100 500 500" style="enable-background:new 100 -100 500 500;" xml:space="preserve">
<style type="text/css">
	.st0{fill:#464646;}
</style>
<g>
	<path class="st0" d="M276.8,265.9c0.5,0.7,1,1.4,1.5,2c-0.9-0.6-1.9-0.9-2.6-1.7c-40.6-42.9-81.6-85.3-121.4-128.9
		c-23.3-25.5-20.5-67.5,4.1-92.9c24.3-25.1,66.1-28.1,93-6.7c1.3,1,2.6,2,4.1,3.2L303.3,92c9.9,10.3,19.8,20.5,29.7,30.8
		c12,12.4,21.6,12.5,33.4,0.2c13.5-14,27-28.1,40.4-42.2c-1.7-6.1-4.3-13.4-8-19.3c-3.6-5.7-9.3-9.8-14.6-12.5
		c-12,11-23.8,21.7-34.3,31.2c-9.9-8.8-43.9-40.1-43.6-40.4l-27.6-29.1c-2.5-1.9-4.6-3.5-6.8-5.1C234.7-21.6,183.5-21.7,146,5
		c-47.9,34.1-67.5,107.3-14,164.4c43.2,46.1,86.7,92.1,130.2,138c10.3,10.9,20.6,10.9,31.1,0.2c14.4-14.7,28.7-29.6,43-44.5
		L310.1,235C298.8,245.5,287.8,255.7,276.8,265.9z"/>
	<path class="st0" d="M445.1,41.5c0,0-7.9-12.8-12.7-18.5c-4.7-5.7-11.6-12.1-11.6-12.1c-35-28.4-83.2-35.5-126.5-10.4l28.4,28.8
		c19.6-8.2,44.3-7.1,61.3,2.9c4.3,2,15.6,8.1,25.1,21.2C419.3,67.3,420,91,420,91l-0.1,0c0.8,17.9-4,34.6-18,49.2
		c-13.4,14-26.9,27.9-40.3,41.9l26.7,27.1c13.2-13.6,26.3-27.3,39.5-40.9c32-33.2,39.6-79.3,20.2-121.2c-0.8-1.8-1.7-3.5-2.9-6.2"/>
	<path class="st0" d="M431.8,3.3c36.3-23.3,74.6-25.6,112.7-3.9c40,22.7,57.7,58.8,55.2,104.7c-1.3,24.2-11.5,44.3-28.2,61.6
		c-44.9,46.4-89.6,93.1-134.5,139.7c-13.2,13.7-22.2,13.7-35.1,0.1c-17.4-18.3-34.8-36.7-52.9-55.8c0,0-0.1,0.1-0.1,0.1l-25.6-27
		c0.1-0.1,0.1-0.1,0.2-0.2c-19-20.1-37.1-38.9-54.9-58.2c-16.7-18.1-25.2-39.7-26.7-64.2c-0.9-14.6,1-28.6,5.8-42.2l31.9,36
		c-0.3,14.5,3.7,27.9,13.2,39.6c17.3,21.3,37.2,40.5,57.1,61.8c0.1-0.1,0.1-0.1,0.2-0.2l26,27.3c0,0.1-0.1,0.1-0.1,0.1
		c14.8,15.6,29,30.6,43.8,46.3c42.3-44.5,83.5-88,124.9-131.1c17.5-18.2,20.6-39.7,14.5-62.8c-6.7-25.4-23.4-42.2-48.8-49
		c-19.9-5.3-38.4-3-55.4,7.6c0,0-6.2-9.8-11.7-17.1S431.8,3.3,431.8,3.3z"/>
</g>
</svg>
