<?xml version="1.0" encoding="utf-8"?>
<!-- Generator: Adobe Illustrator 19.0.0, SVG Export Plug-In . SVG Version: 6.00 Build 0)  -->
<svg version="1.1" id="Layer_1" xmlns="http://www.w3.org/2000/svg" xmlns:xlink="http://www.w3.org/1999/xlink" x="0px" y="0px"
	 viewBox="100 -100 500 500" style="enable-background:new 100 -100 500 500;" xml:space="preserve">
<style type="text/css">
	.st0{fill:#464646;}
</style>
<g>
	<path class="st0" d="M224,282c-32,0-60.7,0-91.1,0c0-92.7,0-184.8,0-278c145,0,289.2,0,434.6,0c0,92.8,0,184.4,0,277.3
		c-29.9,0-59.1,0-91.5,0c0-6.6,0.1-13.4,0-20.1c-0.7-32.1,0.8-64.4-2.6-96.2c-6.7-62.8,11.7-108.6-124.4-108.6
		c-136.7,0-115.7,46.6-122.5,108.7c-3.1,28-1.9,56.4-2.5,84.7C223.9,259.9,224,270.1,224,282z"/>
	<path class="st0" d="M103.1,351.3c-1.4-2-2.1-2.5-2.2-3c-2.4-65.2-4-57.2,51.6-57.2c137.6-0.1,275.2,0,412.8,0
		c33.8,0,34.8,1,34.8,34.4c0,8.2,0,16.4,0,25.9C433.1,351.3,268.2,351.3,103.1,351.3z"/>
	<path class="st0" d="M101.7-51.3c165.9,0,330.8,0,495.5,0c6.5,29.1-6,44.8-34.9,44.8c-141.4,0-282.8,0-424.2,0
		C110.3-6.5,98.6-20.3,101.7-51.3z"/>
	<path class="st0" d="M384.4,206.6c-6.9,8.8-12.1,15.5-17.8,22.8c-2.3-4-4.7-8.2-8.9-15.4c-2.9,8.9-5,15.6-7.7,24
		c-15.8-18.4,11.8-52-20.4-62.7c-4.2,8.6-7.2,17.8-12.6,25.4c-24.1,33.9-24.5,46.6-2.2,83.8c-6.2-3.2-13.4-5.4-18.5-9.9
		c-29.3-26.2-32.6-74-7-104.7c7.8-9.3,17-17.6,26.3-25.4c20.8-17.4,38.3-36.3,35.1-66.5c33,10.6,43.9,43.4,25,73.1
		c-9.3,14.6-16.3,28.6-4.1,47.2c3.1-34,4.8-37.3,22.3-47.1c7.2,12.7,13.5,25.9,21.5,37.9c17.9,26.6,15.8,61.3-6.8,82.8
		c-5.5,5.3-13.1,8.4-22,11.2C416.4,256.6,391.6,233.7,384.4,206.6z"/>
	<path class="st0" d="M348.6,267.8c11.5-5.5,22.2-10.6,32.9-15.8c-1.2-3.5-2.4-7-3.7-10.5c2.4,9.4,8.8,20.3,5.9,27.6
		c-2.6,6.6-15.3,12.8-23.6,12.9c-34.6,0.5-43.5,10.1-34.8-40.4C333.5,250.9,340.8,259.1,348.6,267.8z"/>
</g>
</svg>
