<?xml version="1.0" encoding="utf-8"?>
<!-- Generator: Adobe Illustrator 19.0.0, SVG Export Plug-In . SVG Version: 6.00 Build 0)  -->
<svg version="1.1" id="Layer_1" xmlns="http://www.w3.org/2000/svg" xmlns:xlink="http://www.w3.org/1999/xlink" x="0px" y="0px"
	 viewBox="100 -100 500 500" style="enable-background:new 100 -100 500 500;" xml:space="preserve">
<style type="text/css">
	.st0{fill:#464646;}
</style>
<g>
	<path class="st0" d="M295.6,50.9c4.7-16,9.4-31.8,14.1-47.5C314.8-14,320-31.3,325-48.7c1.3-4.4,3.8-6.4,8.4-6.7
		c32.2-1.8,64.4-3.8,96.6-5.8c23.3-1.4,46.7-2.6,70-4.3c5.1-0.4,8.4,1.1,11.5,5.1c28,35.5,56.2,71,84.5,106.3
		c3.9,4.8,4.8,9.1,3.2,15.1c-14.4,54.3-28.5,108.7-42.7,163c-1.6,6.3-2.8,7.3-9.3,7.7c-32.7,1.7-65.3,3.3-98,4.9
		c-2.9,0.1-5.8,0.4-9.4,0.6c3.9,7.8-1.6,12-5.6,16.6c-30.8,35.7-61.7,71.4-92.4,107.1c-2.7,3.2-5.6,4.5-9.9,4.2
		c-37.7-2.7-75.5-5.2-113.2-7.8c-22.1-1.5-44.3-3-66.4-4.5c-7.6-0.5-8.3-1.2-10.2-8.8c-13.9-57.3-27.7-114.6-41.7-171.9
		c-1-4-0.2-6.9,2.4-10c33.2-38.3,66.3-76.6,99.3-115.1c3.3-3.9,6.7-5,11.8-4.5c26.4,2.9,52.9,5.4,79.3,8.1
		C293.8,51,294.4,50.9,295.6,50.9z M425.4,235.9c0-1.1,0.1-1.6,0-2c-13.2-52.5-26.4-105-39.5-157.5c-0.7-2.8-2.2-3.3-4.6-3.5
		c-46.3-4.6-92.7-9.3-139-13.9c-7.8-0.8-15.6-1.5-23.5-2.2c0,1.1-0.1,1.7,0,2.2c13.2,52.5,26.4,105,39.5,157.5
		c0.6,2.3,1.8,2.9,4,3.1c10.8,1,21.5,2.2,32.2,3.3c34,3.4,68,6.9,102,10.3C406,234,415.6,234.9,425.4,235.9z M421,249.1
		c-2.1-0.4-3.4-0.7-4.7-0.8c-51.9-5.2-103.7-10.4-155.6-15.7c-3.1-0.3-5.1,0.5-7.1,2.9c-23.6,27.5-47.3,54.9-70.9,82.3
		c-6.4,7.4-12.7,14.8-19.6,22.7c2.7,0.2,4.5,0.5,6.4,0.6c11.4,0.8,22.7,1.5,34.1,2.3c41.7,2.8,83.3,5.7,125,8.4
		c1.9,0.1,4.5-1,5.8-2.5c19.5-22.3,38.8-44.8,58.2-67.2C401.9,271.2,411.1,260.5,421,249.1z M152.7,331.5c0.8-0.6,1.1-0.7,1.3-0.9
		c30.3-35,60.6-70,90.7-105.1c1-1.1,1.3-3.5,0.9-5.1C232.9,169.3,220,118,207.2,66.8c-0.3-1-0.7-2-1.2-3.4c-1.6,1.7-2.7,3-3.9,4.3
		c-28.4,32.9-56.8,65.9-85.4,98.7c-2.4,2.8-2.9,5.1-2,8.6c10,40.8,19.8,81.7,29.7,122.5C147.1,308.8,149.8,319.9,152.7,331.5z
		 M406.1,102.8c13.2-0.8,26-1.7,38.8-2.2c4-0.2,5.7-1.4,6.9-5.3c11.6-39.8,23.4-79.5,35.1-119.3c2.7-9,5.3-18.1,8.1-27.7
		c-4.8,0.3-9,0.6-13.2,0.8c-46.9,2.7-93.9,5.5-140.8,8.2c-3.2,0.2-4.4,1.4-5.3,4.4c-5.6,19.6-11.5,39.2-17.3,58.8
		c-3.1,10.5-6.2,20.9-9.4,31.6c1.1,0.3,1.8,0.5,2.4,0.6c23.7,2.4,47.4,4.8,71,7.1c13,1.2,13,1.1,16.1,13.6
		C401.1,83.1,403.6,92.9,406.1,102.8z M546.3,210.5c0.6-1.8,0.9-2.7,1.2-3.7c12.8-49,25.6-98,38.4-146.9c0.7-2.8,0.3-4.8-1.5-7.1
		c-25.1-31.5-50.2-63-75.2-94.6c-0.7-0.9-1-2-1.4-3.1c-15.6,49.8-30,98.5-44.3,147.2c-0.5,1.6,0.4,4.3,1.5,5.7
		c16.2,20.7,32.6,41.2,48.9,61.8C524.5,183.1,535.2,196.5,546.3,210.5z M409.7,115.9c0.1,1.2,0.1,1.8,0.2,2.3
		c8.6,34.1,17.2,68.2,25.7,102.3c0.7,3,1.9,3.9,5,3.7c21-1.2,42-2.1,63-3.2c10.6-0.5,21.2-1.1,32.4-1.8c-1-1.5-1.6-2.4-2.3-3.3
		c-5.1-6.4-10.2-12.8-15.3-19.2c-21.3-26.9-42.7-53.7-64.1-80.6c-1-1.2-2.7-2.7-4.1-2.6C436.9,114.1,423.5,115,409.7,115.9z"/>
	<path class="st0" d="M275.8,89.4c0,11-8.6,19.7-19.8,19.6c-10.7,0-19.5-8.8-19.5-19.5c0-10.7,8.9-19.7,19.4-19.8
		C266.9,69.7,275.8,78.4,275.8,89.4z"/>
	<path class="st0" d="M283.1,171.9c11,0,19.6,8.6,19.6,19.3c0,11-9,20-19.8,19.9c-10.9-0.1-19.6-9.1-19.5-20
		C263.5,180.3,272.2,171.9,283.1,171.9z"/>
	<path class="st0" d="M388,222.8c-11,0-19.7-8.8-19.6-19.8c0.1-10.8,8.9-19.5,19.6-19.4c10.6,0,19.5,8.8,19.7,19.5
		C407.8,213.9,398.9,222.8,388,222.8z"/>
	<path class="st0" d="M373,99.9c0,10.4-8.2,18.6-18.5,18.7c-10.4,0-18.6-8.2-18.7-18.5c0-10.4,8.2-18.6,18.5-18.6
		C364.8,81.4,373,89.5,373,99.9z"/>
	<path class="st0" d="M292.1,275.3c10.8,0,19.5,8.7,19.5,19.5c0,10.9-8.9,19.8-19.8,19.8c-10.6-0.1-19.5-9-19.5-19.6
		C272.3,284,281.1,275.3,292.1,275.3z"/>
	<path class="st0" d="M149.5,254.7c0-10.8,8.6-19.6,19.3-19.7c11-0.1,20,8.6,20,19.5c0,10.9-8.9,19.8-19.8,19.8
		C158.3,274.3,149.5,265.5,149.5,254.7z"/>
	<path class="st0" d="M187.4,116.6c10.8,0,19.4,8.6,19.5,19.5c0.1,10.9-8.9,19.9-19.7,19.8c-10.7-0.1-19.4-8.8-19.5-19.6
		C167.6,125.2,176.2,116.6,187.4,116.6z"/>
	<path class="st0" d="M447.4,73.2c0,10.3-8.4,18.7-18.6,18.7c-10.2,0-18.7-8.5-18.7-18.7c0.1-10.3,8.4-18.6,18.7-18.7
		C439,54.6,447.4,63,447.4,73.2z"/>
	<path class="st0" d="M338.8-13.5c0-10.3,8.4-18.7,18.7-18.6c10.3,0.1,18.7,8.6,18.6,18.7C375.9-3,367.6,5.3,357.3,5.2
		C347,5.1,338.8-3.2,338.8-13.5z"/>
	<path class="st0" d="M450.1,1.9c-10.3-0.1-18.4-8.4-18.4-18.8c0-10.3,8.6-18.6,18.8-18.4c10.4,0.2,18.5,8.5,18.4,18.8
		C468.8-6.1,460.5,2,450.1,1.9z"/>
	<path class="st0" d="M516.7,153.9c0-10.3,8.2-18.6,18.6-18.7c10.3-0.1,18.7,8.4,18.7,18.6c0,10.3-8.4,18.7-18.6,18.7
		C525.1,172.5,516.8,164.2,516.7,153.9z"/>
	<path class="st0" d="M512.3,85.5c-0.1-10.3,8.1-18.7,18.5-18.8c10.4-0.1,18.7,8.1,18.7,18.4c0.1,10.4-8.1,18.7-18.4,18.8
		C520.7,104,512.4,95.8,512.3,85.5z"/>
	<path class="st0" d="M519.2-1.7c10.5-0.1,18.7,7.9,18.9,18.3c0.2,10.3-7.9,18.7-18.3,18.8c-10.4,0.2-18.8-7.9-18.9-18.3
		C500.8,6.7,508.9-1.6,519.2-1.7z"/>
</g>
</svg>
