<?xml version="1.0" encoding="utf-8"?>
<!-- Generator: Adobe Illustrator 19.0.0, SVG Export Plug-In . SVG Version: 6.00 Build 0)  -->
<svg version="1.1" id="Layer_1" xmlns="http://www.w3.org/2000/svg" xmlns:xlink="http://www.w3.org/1999/xlink" x="0px" y="0px"
	 viewBox="0 0 500 500" style="enable-background:new 0 0 500 500;" xml:space="preserve">
<style type="text/css">
	.st0{fill:#FFFFFF;}
</style>
<g id="XMLID_1556_">
	<path id="XMLID_1942_" class="st0" d="M500.4,250.5c-0.7,34.8-1.2,69.5-2.3,104.3c-0.8,25.7-5.6,50.7-18,73.5
		c-19.8,36.4-51,57.6-91.2,66.1c-22.6,4.8-45.6,5.3-68.5,5.3c-52.8,0.2-105.6,0.1-158.4-0.4c-23.1-0.2-46.2-1.9-68.3-9.4
		c-46.9-16-75.5-48.7-87.3-96.5c-4.4-17.7-5.7-35.9-5.8-54c-0.3-59.4-0.3-118.8,0-178.3c0.1-21.7,1.8-43.4,8.5-64.2
		C25.3,46.9,59.7,16.8,110.8,6.3c16.3-3.4,33.2-4.8,49.9-5C220,0.7,279.2,0.8,338.5,1.2c22.4,0.1,44.7,1.9,66.2,9.1
		C454,26.8,483,61.2,494,111.4c5,22.8,5,46.1,5.3,69.4c0.3,23.2,0.1,46.5,0.1,69.7C499.7,250.5,500.1,250.5,500.4,250.5z
		 M455.1,250.2c-0.2,0-0.4,0-0.6,0c0-16.1,0.1-32.1,0-48.2c-0.3-25.2,0-50.4-3.5-75.5C445,85.2,418.8,57,377.7,50.2
		c-18-3-36.4-3.9-54.6-4.2c-41.4-0.7-82.8-0.8-124.2-0.3c-24.5,0.3-49.1,0.9-73.3,3.8c-40,4.8-66.3,30.1-75.4,69.2
		c-4.2,17.8-4.6,36-4.7,54.2C45,224.2,45,275.6,45.4,327c0.1,18.7,0.5,37.5,4.9,55.8c8,33.5,27.9,56.2,61.5,65.2
		c12.5,3.4,25.8,5.4,38.7,5.6c59.8,0.8,119.7,1,179.5,0.9c17.6,0,35.2-0.7,52.5-4.8c32.6-7.8,54.7-27.1,64.8-59.5
		c4.3-13.7,5.8-27.8,6.1-42.1C454,315.5,454.5,282.9,455.1,250.2z"/>
	<path id="XMLID_1568_" class="st0" d="M378.2,250.5c0,71-57.7,128.3-129.1,128.2c-70.5-0.1-127.9-57.9-127.8-128.6
		c0.1-70.8,57.8-128.4,128.6-128.2C320.9,122,378.2,179.5,378.2,250.5z M249.6,166.9c-45.6,0-83,37.3-83.1,83.1
		c-0.1,46.1,37.4,83.7,83.5,83.6c45.9-0.1,83.2-37.6,83.1-83.5C333,204.2,295.6,167,249.6,166.9z"/>
	<path id="XMLID_1561_" class="st0" d="M413.2,116.3c0.4,16.5-12.8,30.2-29.5,30.6c-16.4,0.4-30.1-12.9-30.6-29.5
		c-0.5-16.4,12.9-30.2,29.6-30.5C399.3,86.5,412.8,99.5,413.2,116.3z"/>
</g>
</svg>
