<?xml version="1.0" encoding="utf-8"?>
<!-- Generator: Adobe Illustrator 19.0.0, SVG Export Plug-In . SVG Version: 6.00 Build 0)  -->
<svg version="1.1" id="Layer_1" xmlns="http://www.w3.org/2000/svg" xmlns:xlink="http://www.w3.org/1999/xlink" x="0px" y="0px"
	 viewBox="100 -100 500 500" style="enable-background:new 100 -100 500 500;" xml:space="preserve">
<style type="text/css">
	.st0{fill:#464646;}
</style>
<path class="st0" d="M575.3,275c-49.2-46.9-96.3-96-144.8-143.6c-10.1-9.9-12.9-18.8-9.7-33c16.4-72.9-16.7-144.8-81-179
	c-63.6-33.9-141.9-22.1-192.9,29C97.1-1.7,85.6,76.6,119,139c34.3,64.2,107.1,97.9,178.9,81.7c13.7-3.1,23.1-1.8,33.2,8.9
	c19.7,21,37.1,47.5,72.2,37.2c7.5,41.2,7.5,41.2,48.9,47.2c-11.4,38.7,9.9,46.5,41.2,41.8c0.8,6.3,2.1,9.6,1.6,12.7
	c-4.8,27.5,9.5,33.9,33,30.6c2.5-0.3,5,0,7.5,0c63.9,0.1,62.8,0.1,64.5-64.9C600.6,309.4,593.2,292,575.3,275z M218.7,63.3
	c-24.5-0.2-44.4-21.4-43.4-46.1c1-23.8,20.8-42.6,44.6-42.2c23.7,0.3,43.2,19.8,43.6,43.5C263.9,42.9,243.3,63.5,218.7,63.3z
	 M569.9,321.8c-57.8-57.2-115.6-114.4-173.4-171.6c2.2-2.1,9.8-9.3,12-11.4c57.1,57.8,114.2,115.6,171.3,173.3
	C578.3,313.7,571.4,320.3,569.9,321.8z"/>
</svg>
