<?xml version="1.0" encoding="utf-8"?>
<!-- Generator: Adobe Illustrator 19.0.0, SVG Export Plug-In . SVG Version: 6.00 Build 0)  -->
<svg version="1.1" id="Layer_1" xmlns="http://www.w3.org/2000/svg" xmlns:xlink="http://www.w3.org/1999/xlink" x="0px" y="0px"
	 viewBox="-390 233.7 178.3 95.3" style="enable-background:new -390 233.7 178.3 95.3;" xml:space="preserve">
<style type="text/css">
	.st0{fill:#FFFFFF;}
	.st1{fill:#9F821B;}
</style>
<g>
	<g>
		<path class="st0" d="M-389.5,294.4h2.8v19.9h-2.8V294.4z"/>
		<path class="st0" d="M-362.9,294.4h2.7v19.9h-2.4L-376,299v15.3h-2.7v-19.9h2.3l13.4,15.4v-15.4H-362.9z"/>
		<path class="st0" d="M-336.6,294.4h2.7v19.9h-2.4l-13.3-15.3v15.3h-2.7v-19.9h2.3l13.4,15.4V294.4z"/>
		<path class="st0" d="M-319.7,294.3h2l8.9,20h-2.9l-2.7-5.9h-8.5l-2.5,5.9h-2.9L-319.7,294.3z M-315.5,305.9l-3.3-7.2l-3,7.2
			H-315.5z"/>
		<path class="st0" d="M-307.7,294.4h16.6v2.5h-6.9v17.4h-2.9v-17.4h-6.8C-307.7,296.9-307.7,294.4-307.7,294.4z"/>
		<path class="st0" d="M-284.8,294.4h2.8v17.3h9v2.6h-11.8V294.4z"/>
		<path class="st0" d="M-260.6,294.3h2l8.9,20h-2.9l-2.7-5.9h-8.5l-2.5,5.9h-2.9L-260.6,294.3z M-256.4,305.9l-3.2-7.2l-3,7.2
			H-256.4z"/>
		<path class="st0" d="M-239,306l-2.2-1.3c-1.4-0.8-2.3-1.6-2.9-2.4c-0.6-0.8-0.9-1.7-0.9-2.8c0-1.6,0.5-2.8,1.6-3.8
			s2.5-1.5,4.2-1.5s3.2,0.5,4.6,1.4v3.2c-1.4-1.4-3-2.1-4.6-2.1c-0.9,0-1.7,0.2-2.3,0.6c-0.6,0.4-0.9,1-0.9,1.7
			c0,0.6,0.2,1.2,0.7,1.7c0.4,0.5,1.1,1.1,2.1,1.6l2.2,1.3c2.4,1.4,3.6,3.3,3.6,5.5c0,1.6-0.5,2.9-1.6,3.9s-2.5,1.5-4.2,1.5
			c-2,0-3.8-0.6-5.4-1.8v-3.6c1.5,1.9,3.3,2.9,5.3,2.9c0.9,0,1.6-0.2,2.2-0.7c0.6-0.5,0.9-1.1,0.9-1.9
			C-236.4,308.2-237.3,307.1-239,306z"/>
		<path class="st0" d="M-228.7,294.4h16.6v2.5h-6.9v17.4h-2.9v-17.4h-6.8L-228.7,294.4L-228.7,294.4z"/>
	</g>
	<g>
		<path class="st0" d="M-312.5,328.9h-2.4v-7.2h1.9c0.6,0,1.1,0.1,1.4,0.2c0.3,0.2,0.6,0.4,0.8,0.7c0.2,0.3,0.3,0.6,0.3,1
			c0,0.7-0.4,1.2-1.1,1.5c0.5,0.1,0.9,0.3,1.2,0.6c0.3,0.3,0.5,0.7,0.5,1.2c0,0.4-0.1,0.7-0.3,1c-0.2,0.3-0.5,0.5-0.8,0.7
			C-311.5,328.8-312,328.9-312.5,328.9z M-313,322.6h-0.9v2.2h0.7c0.5,0,0.9-0.1,1.2-0.3c0.2-0.2,0.3-0.5,0.3-0.8
			C-311.7,323-312.1,322.6-313,322.6z M-312.9,325.7h-1v2.3h1c0.6,0,0.9,0,1.1-0.1c0.2-0.1,0.4-0.2,0.5-0.4c0.1-0.2,0.2-0.4,0.2-0.6
			c0-0.2-0.1-0.4-0.2-0.6c-0.1-0.2-0.3-0.3-0.5-0.4C-312.1,325.7-312.4,325.7-312.9,325.7z"/>
		<path class="st0" d="M-302.1,327.7v-2.1h-2v-0.9h2v-2h0.9v2h2v0.9h-2v2.1H-302.1z"/>
		<path class="st0" d="M-290.4,328.9h-2.4v-7.2h1.8c0.6,0,1.1,0.1,1.4,0.2c0.3,0.2,0.6,0.4,0.8,0.7c0.2,0.3,0.3,0.6,0.3,1
			c0,0.7-0.4,1.2-1.1,1.5c0.5,0.1,0.9,0.3,1.3,0.6c0.3,0.3,0.5,0.7,0.5,1.2c0,0.4-0.1,0.7-0.3,1c-0.2,0.3-0.5,0.5-0.8,0.7
			C-289.4,328.8-289.9,328.9-290.4,328.9z M-290.9,322.6h-0.9v2.2h0.7c0.5,0,0.9-0.1,1.2-0.3c0.2-0.2,0.3-0.5,0.3-0.8
			C-289.6,323-290,322.6-290.9,322.6z M-290.8,325.7h-1v2.3h1c0.6,0,0.9,0,1.1-0.1c0.2-0.1,0.4-0.2,0.5-0.4c0.1-0.2,0.2-0.4,0.2-0.6
			c0-0.2-0.1-0.4-0.2-0.6c-0.1-0.2-0.3-0.3-0.5-0.4C-290,325.7-290.3,325.7-290.8,325.7z"/>
	</g>
	<path class="st1" d="M-270.4,282.2l-0.1-31.3l-21.2-17.1l-9.5,7.4l-9.1-7.4l-22,17.1l-0.1,31.5l18.6-0.1v0.1L-270.4,282.2z
		 M-310.8,279.3v-1.7h18.8v1.7H-310.8z M-292.1,258.6v1.7h-18.6v-1.7H-292.1z M-310.7,255.6v-1.9h18.6v1.9H-310.7z M-292.1,263.2
		v1.9h-18.6v-1.9H-292.1z M-292.1,268v2h-18.7v-2H-292.1z M-292,272.9v1.7h-18.8v-1.7H-292z M-291.7,237.6l18.2,14.7l0.1,26.9H-289
		l-0.1-28.4l-9.7-7.8L-291.7,237.6z M-293.9,250.9h-14.9l7.6-5.9L-293.9,250.9z M-329.4,279.3l0.1-27l19-14.7l6.7,5.4l-10.1,7.8
		l-0.1,28.4L-329.4,279.3z"/>
</g>
</svg>
