<?xml version="1.0" encoding="utf-8"?>
<!-- Generator: Adobe Illustrator 19.0.0, SVG Export Plug-In . SVG Version: 6.00 Build 0)  -->
<svg version="1.1" id="Layer_1" xmlns="http://www.w3.org/2000/svg" xmlns:xlink="http://www.w3.org/1999/xlink" x="0px" y="0px"
	 viewBox="0 0 178.3 95.3" style="enable-background:new 0 0 178.3 95.3;" xml:space="preserve">
<style type="text/css">
	.st0{fill:#9F821B;}
</style>
<g>
	<g>
		<path d="M0.5,60.7h2.8v19.9H0.5V60.7z"/>
		<path d="M27.1,60.7h2.7v19.9h-2.4L14,65.3v15.3h-2.7V60.7h2.3l13.4,15.4V60.7z"/>
		<path d="M53.4,60.7h2.7v19.9h-2.4L40.4,65.3v15.3h-2.7V60.7H40l13.4,15.4V60.7z"/>
		<path d="M70.3,60.6h2l8.9,20h-2.9l-2.7-5.9h-8.5l-2.5,5.9h-2.9L70.3,60.6z M74.5,72.2L71.2,65l-3,7.2H74.5z"/>
		<path d="M82.3,60.7h16.6v2.5H92v17.4h-2.9V63.2h-6.8V60.7z"/>
		<path d="M105.2,60.7h2.8V78h9v2.6h-11.8V60.7z"/>
		<path d="M129.4,60.6h2l8.9,20h-2.9l-2.7-5.9h-8.5l-2.5,5.9h-2.9L129.4,60.6z M133.6,72.2l-3.2-7.2l-3,7.2H133.6z"/>
		<path d="M151,72.3l-2.2-1.3c-1.4-0.8-2.3-1.6-2.9-2.4c-0.6-0.8-0.9-1.7-0.9-2.8c0-1.6,0.5-2.8,1.6-3.8c1.1-1,2.5-1.5,4.2-1.5
			c1.7,0,3.2,0.5,4.6,1.4v3.2c-1.4-1.4-3-2.1-4.6-2.1c-0.9,0-1.7,0.2-2.3,0.6c-0.6,0.4-0.9,1-0.9,1.7c0,0.6,0.2,1.2,0.7,1.7
			c0.4,0.5,1.1,1.1,2.1,1.6l2.2,1.3c2.4,1.4,3.6,3.3,3.6,5.5c0,1.6-0.5,2.9-1.6,3.9c-1.1,1-2.5,1.5-4.2,1.5c-2,0-3.8-0.6-5.4-1.8
			v-3.6c1.5,1.9,3.3,2.9,5.3,2.9c0.9,0,1.6-0.2,2.2-0.7c0.6-0.5,0.9-1.1,0.9-1.9C153.6,74.5,152.7,73.4,151,72.3z"/>
		<path d="M161.3,60.7h16.6v2.5h-6.9v17.4h-2.9V63.2h-6.8V60.7z"/>
	</g>
	<g>
		<path d="M77.5,95.2h-2.4V88H77c0.6,0,1.1,0.1,1.4,0.2c0.3,0.2,0.6,0.4,0.8,0.7c0.2,0.3,0.3,0.6,0.3,1c0,0.7-0.4,1.2-1.1,1.5
			c0.5,0.1,0.9,0.3,1.2,0.6c0.3,0.3,0.5,0.7,0.5,1.2c0,0.4-0.1,0.7-0.3,1c-0.2,0.3-0.5,0.5-0.8,0.7C78.5,95.1,78,95.2,77.5,95.2z
			 M77,88.9h-0.9v2.2h0.7c0.5,0,0.9-0.1,1.2-0.3c0.2-0.2,0.3-0.5,0.3-0.8C78.3,89.3,77.9,88.9,77,88.9z M77.1,92h-1v2.3h1
			c0.6,0,0.9,0,1.1-0.1c0.2-0.1,0.4-0.2,0.5-0.4c0.1-0.2,0.2-0.4,0.2-0.6c0-0.2-0.1-0.4-0.2-0.6c-0.1-0.2-0.3-0.3-0.5-0.4
			C77.9,92,77.6,92,77.1,92z"/>
		<path d="M87.9,94v-2.1h-2V91h2v-2h0.9v2h2v0.9h-2V94H87.9z"/>
		<path d="M99.6,95.2h-2.4V88H99c0.6,0,1.1,0.1,1.4,0.2c0.3,0.2,0.6,0.4,0.8,0.7c0.2,0.3,0.3,0.6,0.3,1c0,0.7-0.4,1.2-1.1,1.5
			c0.5,0.1,0.9,0.3,1.3,0.6c0.3,0.3,0.5,0.7,0.5,1.2c0,0.4-0.1,0.7-0.3,1c-0.2,0.3-0.5,0.5-0.8,0.7C100.6,95.1,100.1,95.2,99.6,95.2
			z M99.1,88.9h-0.9v2.2h0.7c0.5,0,0.9-0.1,1.2-0.3c0.2-0.2,0.3-0.5,0.3-0.8C100.4,89.3,100,88.9,99.1,88.9z M99.2,92h-1v2.3h1
			c0.6,0,0.9,0,1.1-0.1c0.2-0.1,0.4-0.2,0.5-0.4c0.1-0.2,0.2-0.4,0.2-0.6c0-0.2-0.1-0.4-0.2-0.6c-0.1-0.2-0.3-0.3-0.5-0.4
			C100,92,99.7,92,99.2,92z"/>
	</g>
	<path class="st0" d="M119.6,48.5l-0.1-31.3L98.3,0.1l-9.5,7.4l-9.1-7.4l-22,17.1l-0.1,31.5l18.6-0.1l0,0.1L119.6,48.5z M79.2,45.6
		l0-1.7H98l0,1.7L79.2,45.6z M97.9,24.9l0,1.7H79.3l0-1.7H97.9z M79.3,21.9l0-1.9h18.6l0,1.9H79.3z M97.9,29.5l0,1.9H79.3l0-1.9
		H97.9z M97.9,34.3l0,2H79.2l0-2H97.9z M98,39.2l0,1.7H79.2l0-1.7H98z M98.3,3.9l18.2,14.7l0.1,26.9L101,45.5l-0.1-28.4l-9.7-7.8
		L98.3,3.9z M96.1,17.2H81.2l7.6-5.9L96.1,17.2z M60.6,45.6l0.1-27l19-14.7l6.7,5.4l-10.1,7.8l-0.1,28.4L60.6,45.6z"/>
</g>
</svg>
