<?xml version="1.0" encoding="utf-8"?>
<!-- Generator: Adobe Illustrator 19.0.0, SVG Export Plug-In . SVG Version: 6.00 Build 0)  -->
<svg version="1.1" id="Layer_1" xmlns="http://www.w3.org/2000/svg" xmlns:xlink="http://www.w3.org/1999/xlink" x="0px" y="0px"
	 viewBox="-393.5 337.7 121.3 95.3" style="enable-background:new -393.5 337.7 121.3 95.3;" xml:space="preserve">
<style type="text/css">
	.st0{fill:#9F821B;}
</style>
<g>
	<path class="st0" d="M-272.6,431.9l-0.2-60.9l-41.2-33.3l-18.5,14.4l-17.7-14.4l-42.8,33.3l-0.2,61.3l36.2-0.2v0.2L-272.6,431.9z
		 M-351.1,426.3V423h36.6v3.3H-351.1z M-314.8,386v3.3h-36.2V386H-314.8z M-350.9,380.2v-3.7h36.2v3.7H-350.9z M-314.8,395v3.7
		h-36.2V395H-314.8z M-314.8,404.3v3.9h-36.4v-3.9H-314.8z M-314.6,413.8v3.3h-36.6v-3.3H-314.6z M-314,345.2l35.4,28.6l0.2,52.3
		h-30.3l-0.2-55.2l-18.9-15.2L-314,345.2z M-318.3,371.1h-29l14.8-11.5L-318.3,371.1z M-387.3,426.3l0.2-52.5l36.9-28.6l13,10.5
		l-19.6,15.2l-0.2,55.2L-387.3,426.3z"/>
</g>
</svg>
