<?xml version="1.0" encoding="utf-8"?>
<!-- Generator: Adobe Illustrator 19.0.0, SVG Export Plug-In . SVG Version: 6.00 Build 0)  -->
<svg version="1.1" id="Layer_1" xmlns="http://www.w3.org/2000/svg" xmlns:xlink="http://www.w3.org/1999/xlink" x="0px" y="0px"
	 viewBox="100 -100 500 500" style="enable-background:new 100 -100 500 500;" xml:space="preserve">
<style type="text/css">
	.st0{fill:#464646;}
</style>
<g>
	<path class="st0" d="M160,364.7c0-6.9,0-13.8,0-20.6c0.3-1.9,0.7-3.9,1-5.8c2.1-14,3.3-28.1,6.5-41.9
		c12.8-55.6,38.7-103.6,84.3-139.2c38-29.6,81-42.1,129.1-34c42.7,7.2,77.1,29.4,104.9,61.8c43.2,50.4,61.5,110,62.2,175.6
		c0,3.4-2.5,8.2-5.3,10c-7.1,4.4-14.8,8.5-22.7,11c-37.5,11.7-76.4,14.9-115.4,17.1c-44.7,2.5-89.3,1.8-133.9-2.4
		c-29-2.7-57.9-6.4-85.7-15.6C175.5,377.3,165.9,373.8,160,364.7z"/>
	<path class="st0" d="M365-100c12.4,3.9,25.5,6.4,37.2,12c41.2,19.6,63.5,65.4,56,112.2c-7,43.7-44.8,80.1-89,85.8
		c-55.8,7.2-105.4-26.8-118.2-81c-14-58.9,27.1-119.1,87-127.7c1.8-0.3,3.5-0.8,5.2-1.3C350.5-100,357.8-100,365-100z"/>
</g>
</svg>
