<?xml version="1.0" encoding="utf-8"?>
<!-- Generator: Adobe Illustrator 19.0.0, SVG Export Plug-In . SVG Version: 6.00 Build 0)  -->
<svg version="1.1" id="Layer_1" xmlns="http://www.w3.org/2000/svg" xmlns:xlink="http://www.w3.org/1999/xlink" x="0px" y="0px"
	 viewBox="0 0 350 500" style="enable-background:new 0 0 350 500;" xml:space="preserve">
<style type="text/css">
	.st0{fill:#9C8214;}
</style>
<g id="XMLID_42_">
	<path id="XMLID_43_" class="st0" d="M211.1,167.4c0.8-0.7,1.8-0.9,2.8-0.5c1.3,0.5,2.3,0.8,3.3,1.2c1.4,0.5,2.1,1.9,1.7,3.3
		c-0.4,1.4-0.8,2.8-1.7,3.6c-3.2,2.8-7.4,7.2-10.4,10.1c-2.1,2.1-4.1,5.8-3.9,8.6c0.7,9.7-0.8,12.9-10.1,16.2
		c-2.3,0.8-5.4,1-6.6,2.7c-8.9,11.1-21,17.6-32.6,25.2c-12.1,8-24.7,7.2-37.6,6.8c-1,0-1.9-1.1-2.8-2.3c-1-1.3-0.6-3.1,0.7-4
		c0.8-0.5,1.7-1,2.5-1.3c13.2-4.8,26.6-9.2,39.8-14.2c3.6-1.4,7-4.2,9.7-7.1c9.2-9.4,17.8-19.3,27-28.7
		C198.7,181.1,204.8,173,211.1,167.4z"/>
	<path id="XMLID_104_" class="st0" d="M219.7,149.1c14.4-41.4,28.8-82.8,43.2-124.2c1,0.3,1.9,0.7,2.9,1
		c-9,43.3-19.1,86.2-42.7,124.4C222,149.8,220.8,149.5,219.7,149.1z"/>
	<path id="XMLID_105_" class="st0" d="M229.4,29.5c2.2,18.4-16.7,113.7-23.9,122.4C207.3,109.9,215.9,69.2,229.4,29.5z"/>
	<path id="XMLID_106_" class="st0" d="M252.5,7.9c-3.4,36.4-9,72.3-28.6,104.5C229.5,76.5,238.6,41.6,252.5,7.9z"/>
	<path id="XMLID_107_" class="st0" d="M338.3,311.7c-41.1-1.6-79.8-13.1-117.9-27.1C260.9,288.7,299.8,299.2,338.3,311.7z"/>
	<path id="XMLID_108_" class="st0" d="M231.3,151.8C252,118.1,276,87,303.6,58.4C283.9,93,260.2,124.4,231.3,151.8z"/>
	<path id="XMLID_109_" class="st0" d="M218.4,315.7c33.6,20,62.7,45.3,86.7,76.3C275.5,367.4,243.9,345.1,218.4,315.7z"/>
	<path id="XMLID_110_" class="st0" d="M222.8,200.8c34.4-6.7,68.9-12,104.2-9.6C293,201.9,258.2,204.7,222.8,200.8z"/>
	<path id="XMLID_111_" class="st0" d="M294.6,21.1c-12.3,31.7-23.8,62.3-42.8,89.6C251.6,91.3,281.8,28,294.6,21.1z"/>
	<path id="XMLID_112_" class="st0" d="M232.5,164.7c36.9-15.2,73.8-30.4,110.6-45.6c0.5,1.2,1,2.4,1.5,3.6
		c-35.3,19.2-72,34.9-110.7,45.9C233.5,167.3,233,166,232.5,164.7z"/>
	<path id="XMLID_113_" class="st0" d="M335.3,328.9c-22.2-0.2-101.3-23.7-111.7-33.6C262.7,305.4,300.1,313.2,335.3,328.9z"/>
	<path id="XMLID_114_" class="st0" d="M314.2,235.8c-30.3,14.2-61.5,21.8-94.6,30.8C229.8,254.4,301.9,231.4,314.2,235.8z"/>
	<path id="XMLID_115_" class="st0" d="M198,100c0-26.1,3.4-51.8,11.4-76.9c2.5,26.3,2.7,52.4-7.3,77.3
		C200.7,100.3,199.3,100.2,198,100z"/>
	<path id="XMLID_116_" class="st0" d="M221.6,186.1c28.2-5.2,56.6-9.4,85.6-7c-28,7.8-56.2,14.1-85.4,11.1
		C219.1,190,218.9,186.5,221.6,186.1z"/>
	<path id="XMLID_117_" class="st0" d="M195.1,152.5c-7.9-12-15.1-83-8-94.8c3.8,32.9,7.4,63.7,10.9,94.5
		C197.1,152.3,196.1,152.4,195.1,152.5z"/>
	<path id="XMLID_118_" class="st0" d="M223.7,337.7c17.4,21.3,29.5,45.4,36.2,72.2C243.1,388.2,230.6,364.4,223.7,337.7z"/>
	<path id="XMLID_119_" class="st0" d="M242.5,280c0.1-1.1,0.1-2.1,0.2-3.2c32.4,0.3,65.1-5.1,96.9,5.5c-0.1,1-0.1,2-0.2,2.9
		C307.1,283.5,274.8,281.8,242.5,280z"/>
	<path id="XMLID_120_" class="st0" d="M263.2,164.7c24.7-12.5,50-22.9,77.9-26.4C316.1,149.9,292,164.1,263.2,164.7z"/>
	<path id="XMLID_121_" class="st0" d="M306.1,262.3c-13.4,9.3-67.3,14.4-78.4,7.5C254.2,264.1,279.8,260.5,306.1,262.3z"/>
	<path id="XMLID_122_" class="st0" d="M217.5,384.7c-8.6-13.2-16.6-59.8-12.5-72.1C213,324.5,221.9,376.1,217.5,384.7z"/>
	<path id="XMLID_123_" class="st0" d="M300.6,350.5c-25.1-13.4-50.3-26.8-75.4-40.2c0.5-0.9,1-1.9,1.5-2.8c27,9.8,53.3,21,75.3,40.2
		C301.5,348.6,301.1,349.5,300.6,350.5z"/>
	<path id="XMLID_124_" class="st0" d="M290.3,115.7c-15,19.4-33,35-56.2,43.9c-0.7-0.9-1.3-1.7-2-2.6c18.8-14.5,37.5-29.1,56.3-43.6
		C289,114.2,289.7,114.9,290.3,115.7z"/>
	<path id="XMLID_125_" class="st0" d="M263.3,123.8c4.7-10.3,45.2-48.4,52.3-49.8C308.5,89.4,275.4,121.2,263.3,123.8z"/>
	<path id="XMLID_126_" class="st0" d="M280.1,399.3c-16.7-13-28.9-28.9-39.7-48.7C254.7,355.3,281.6,389.3,280.1,399.3z"/>
	<path id="XMLID_127_" class="st0" d="M260.3,336.8c11.4,1.9,46.9,30.4,53,42.7C300.8,376.8,264.6,347.6,260.3,336.8z"/>
	<path id="XMLID_128_" class="st0" d="M346.1,354.7c-22.9-8.9-46.6-16.2-66.5-31.5C303.9,329.1,326.7,338.4,346.1,354.7z"/>
	<path id="XMLID_129_" class="st0" d="M34.4,383.6c7.1-5.2,14.7-9.7,23.1-15.2c2.7,5.3,1.3,11.3-2.5,16.7
		c-4.4,6.3-10,11.6-18.4,10.8c-2.2-0.2-5.4-3.2-5.8-5.4C30.4,388.5,32.4,385,34.4,383.6z"/>
	<path id="XMLID_130_" class="st0" d="M286.3,126.9c15.4-16,31.5-29.3,52.4-38.4C333.2,100.2,297.1,126.7,286.3,126.9z"/>
	<path id="XMLID_131_" class="st0" d="M80.1,380c-2,1.6-4.8,2.3-7,3.7c-5.4,3.6-7.7,0.1-10.1-4.4c-0.1-4.7-0.5-9.9-0.1-14.9
		c0.5-5.7,4.7-7.1,8.5-3.7c4.5,4,7.9,9.3,11.2,14.3C83.1,375.9,81.5,378.9,80.1,380z"/>
	<path id="XMLID_132_" class="st0" d="M288.2,169.4c15.3-9.9,32.4-11.7,50-11.4C322.7,167,306.1,171.4,288.2,169.4z"/>
	<path id="XMLID_133_" class="st0" d="M276.4,256.8c16.5-8.1,34.2-11.8,52.4-12.3C312.2,252.6,295.2,258.5,276.4,256.8z"/>
	<path id="XMLID_134_" class="st0" d="M63.6,385.7c2.5,10.4-3.8,22-12.3,23.3c-2.3,0.4-5.6-1.3-7.4-3.1c-0.9-0.9-0.2-5,1.2-6.2
		C50.8,395,56.9,390.8,63.6,385.7z"/>
	<path id="XMLID_135_" class="st0" d="M59.7,321.4c5-0.5,10.4,3.3,15.7,5.3c0.2,1,0.4,2.1,0.6,3.1c-3.1,2.3-6.1,6.2-9.5,6.6
		c-4.4,0.5-9.2-1.7-13.8-2.8C55,329.3,57,321.7,59.7,321.4z"/>
	<path id="XMLID_136_" class="st0" d="M101,361.7c1.5,0.2,4.1,2.6,3.9,3.8c-0.2,2-1.7,4.6-3.4,5.7c-7.9,5-20.5-0.4-24.3-11.4
		c4.7,0.9,8.2,1.8,11.8,2.1C93,362.1,97.1,361.3,101,361.7z"/>
	<path id="XMLID_137_" class="st0" d="M43.7,341C43.7,341,43.6,341,43.7,341C43.6,341.1,43.6,341.1,43.7,341L43.7,341L43.7,341
		L43.7,341L43.7,341C43.6,341,43.6,341,43.7,341C43.6,341,43.6,341,43.7,341z"/>
	<path id="XMLID_138_" class="st0" d="M27.7,344.3c1.2-4.8,1.5-11,4.7-13.6c2.7-2.2,8.9-0.3,13.5-0.3c-0.8,3.5-1.5,7.1-2.3,10.6
		c-3.6,1.7-7,3.8-10.7,5C31.4,346.4,27.6,344.4,27.7,344.3z"/>
	<path id="XMLID_139_" class="st0" d="M71.6,391.9c5.3,8.3,6.1,15,1.4,21.2c-1.7,2.2-5.7,2.5-8.7,3.7c-1-3.2-3.5-7.1-2.5-9.6
		C63.8,402.2,67.6,397.9,71.6,391.9z"/>
	<path id="XMLID_140_" class="st0" d="M30.6,295.9c5.1-0.1,10.3,2.9,15.5,4.6c-2.2,3.4-4.5,6.9-7.6,11.8c-5.3-2.1-9.3-3.7-13.3-5.3
		C26.9,303.2,28.7,295.9,30.6,295.9z"/>
	<path id="XMLID_141_" class="st0" d="M71.8,297.3c-3.1,9.6-8.7,13-16.3,12.4c-2.4-0.2-6.7-3.8-6.5-4.4c1.3-3.3,3.3-8.1,5.9-8.8
		C59.8,295.4,65.3,296.8,71.8,297.3z"/>
	<path id="XMLID_142_" class="st0" d="M94.3,398.1c1.9,1.6,1.5,5.8,2.2,8.9c-3.1,0.4-6.9,2.1-9.1,0.9c-6.6-3.5-9.6-9.6-9.4-19.5
		C84.5,392,89.9,394.4,94.3,398.1z"/>
	<path id="XMLID_143_" class="st0" d="M39.9,326c-5.9-0.4-6.6-3.4-4.4-8.1c3.1-6.4,10-7.6,20.8-3.4C53.6,322.6,47.6,326.5,39.9,326z
		"/>
	<path id="XMLID_144_" class="st0" d="M17.8,303.9c-2.8,0-5.6-2.1-8.5-3.3c1.3-2.8,1.8-6.6,4-8.3c3.8-2.9,8.7-4.6,13.1-6.7
		c0.7,1,1.5,2.1,2.2,3.1c-1.6,3.6-2.8,7.4-4.9,10.7C22.5,301.4,19.9,303.9,17.8,303.9z"/>
	<path id="XMLID_145_" class="st0" d="M42.8,276.2c0.3-0.7,0.6-1.3,0.9-2c3.5,1.6,6.9,3.2,10.4,4.8c-2.7,3.8-4.7,9.3-8.4,10.9
		c-2.8,1.2-7.7-2.6-11.7-4.2c1.7-2.7,3.3-5.4,5.3-7.9C40,276.9,41.6,276.7,42.8,276.2z"/>
	<path id="XMLID_146_" class="st0" d="M66.3,313c1.7-2.9,6.2-7.3,7.6-6.8c4.5,1.8,8.1,5.7,12.1,8.8c-4.8,2.1-9.4,5.1-14.4,6
		C66.1,321.9,63.4,317.8,66.3,313z"/>
	<path id="XMLID_147_" class="st0" d="M86,315.1C86,315.1,86,315,86,315.1c0-0.1,0-0.1,0.1-0.1C86.1,315,86.1,315,86,315.1
		C86,315.1,86,315.1,86,315.1L86,315.1z"/>
	<path id="XMLID_148_" class="st0" d="M75.8,283.6c-5,4.4-7.8,8-11.4,9.5c-2.2,0.9-5.8-1.4-8.8-2.2c1.6-4.6,3.3-9.3,4.9-13.9
		C64.7,278.9,68.9,280.7,75.8,283.6z"/>
	<path id="XMLID_149_" class="st0" d="M100.8,317.8c0.8,1.4-4.7,7.3-8.1,9.9c-1.7,1.3-5.4,0.1-8.3,0.1c0.2-2.5,0.3-4.9,0.6-7.3
		c0.2-1.8,0.6-3.6,1-5.4C91.6,312.9,97.6,312.3,100.8,317.8z"/>
	<path id="XMLID_150_" class="st0" d="M17.2,321.3c4.2-1.5,9.2-0.9,15.2-1.3c-1.7,8.6-6.4,11.7-12.2,12.3c-2.6,0.3-5.5-1.9-8.2-3
		C13.6,326.5,14.8,322.1,17.2,321.3z"/>
	<path id="XMLID_151_" class="st0" d="M58.3,346.9c1.6,4.2-7.2,8.7-15.1,8c-0.6-0.1-1.2-0.8-2-1.4c0.8-4.2,1.6-8.3,2.4-12.4
		C49.6,340.3,55.9,340.5,58.3,346.9z"/>
	<path id="XMLID_152_" class="st0" d="M87.6,384c5.9-1.9,10.8-3.8,15.9-5.1c1.5-0.4,4.1,0.2,4.9,1.3c0.8,1.1,0.6,3.7-0.2,5.1
		C104.3,392.4,93.5,392.5,87.6,384z"/>
	<path id="XMLID_153_" class="st0" d="M106.6,352.8c-3.2,6.5-15,7.2-20.6,1.1c4.5-2.4,8.9-4.7,13.3-7c0.5-0.3,1-0.8,1.4-0.7
		c2,0.4,4.4,0.4,5.7,1.6C107.3,348.6,107.3,351.4,106.6,352.8z"/>
	<path id="XMLID_154_" class="st0" d="M86.8,344.6c-1.8-0.1-4-2.4-4.9-4.2c-0.5-1,0.8-4.1,1.9-4.5c5.9-2.4,12.1-3.6,18.8,0.3
		C98.6,342.6,93.1,344.8,86.8,344.6z"/>
	<path id="XMLID_155_" class="st0" d="M25.2,350.1c3.3-0.9,7.6,1.8,11.5,3c-2.3,3.2-4.6,6.4-7.6,10.6c-4.1-1.9-6.9-3.2-9.6-4.5
		C21.4,356.1,22.7,350.8,25.2,350.1z"/>
	<path id="XMLID_156_" class="st0" d="M15.5,307.2c3.2,0.8,6.1,2.7,9.1,4.1c0,0.9,0.1,1.7,0.1,2.6c-3,1.5-5.9,3.6-9,4.3
		c-2.3,0.5-6.4-0.3-7.3-1.8c-1.4-2.4-0.7-6-0.9-9.1C10.1,307.2,13,306.5,15.5,307.2z"/>
	<path id="XMLID_157_" class="st0" d="M45.9,366.2c-2.6,3-4.6,7.4-7.8,8.7c-2.6,1-6.7-1.7-10.1-2.8c1.1-2.5,2.2-5.1,3.7-8.6
		C37.3,364.6,41.6,365.4,45.9,366.2z"/>
	<path id="XMLID_158_" class="st0" d="M92.1,309.8c-1.9,1.1-5.5-0.9-10.2-2c2.1-5.2,3.4-8.3,4.7-11.4c3.9,1.8,7.7,3.6,11.6,5.3
		C96.2,304.5,94.8,308.3,92.1,309.8z"/>
	<path id="XMLID_159_" class="st0" d="M64.1,351.9c-1.5-1.5-1.4-6.3-0.1-8.4c4.7-7.4,10-1.4,16-0.3
		C75.7,350.8,67.3,355.3,64.1,351.9z"/>
	<path id="XMLID_160_" class="st0" d="M81.7,294.2c-0.5,0.6-5.9-2-5.8-2.5c0.5-3.4,2-6.6,3.8-11.6c-6.9,3.1-10.1-4.6-16.6-6.7
		c6.7-6.2,12.4-6.6,18.4-3.5c5,2.6,5,5.7,0.4,8.9c-0.7,0.5-1.3,0.9-2,1.2c4.2,2.3,6.4,3.4,8.6,4.6C86.3,287.9,84.4,291.4,81.7,294.2
		z"/>
	<path id="XMLID_161_" class="st0" d="M26.6,337.3c-2.7,2.9-5.5,5.8-8.2,8.8c-1.4-2.6-2.9-5.2-4.3-7.8c3.2-1.6,6.4-3.2,9.6-4.9
		C24.6,334.7,25.6,336,26.6,337.3z"/>
	<path id="XMLID_162_" class="st0" d="M5.8,246c0.2,0,2.8,0,2.9,0c4.6,0.3,5.6,0,9.4,1.2c14.3,4.4,28.6,5.4,42.8,0.7
		c13.1-4.3,26.1-4.1,39.7-1.8c14.7,2.5,29.8,2.3,44.8,3.6c3.9,0.3,7.9,1.6,11.5,3.1c15.7,6.7,30.3,16.5,48.1,17.8
		c1.2,0.1,2.2,3.6,3.2,5.5c-8.2,3.4-4,9-3,12.5c0.9,2.7,1.5,3.7,1.5,4.7c-0.1,3.1-0.4,6.2-0.7,9.3c-2.5-2.1-5.3-4.1-7.5-6.5
		c-3.7-4-6.1-10-10.6-12.4c-13.9-7.5-28.5-13.7-42.9-20.4c-7.7-3.6-15.5-3.2-23.6-0.7c-3.3,1-7.4,0.9-10.8,0
		c-8.5-2.2-16.9-5.2-25.4-7.6c-1.9-0.5-4.3-0.3-6.3,0.1c-6.5,1.6-13,3-19.2,5.3c-4.3,1.6-8.7,3.9-11.9,7c-5.4,5.4-11.4,5.8-16.9,0.6
		c-3-2.9-6.6-5.2-10.4-6.8c-3-1.3-6.1-2.7-9.2-3.2c-0.2,0-0.4,0-0.6,0H0v-12H5.8z"/>
</g>
<g id="XMLID_96_">
	<path id="XMLID_879_" class="st0" d="M903.8,227.6c2.2,4.6,0.5,7.4-2.4,8.6c-6.2,2.5-12.6,5.4-19.1,6.2
		c-21.1,2.5-42.3,3.9-63.3,6.3c-4.2,0.5-7.9,3.6-12,5.1c-4.8,1.8-9.4,5.2-15,1c-1.8-1.4-5.2-1.3-7.7-0.9c-6.2,0.9-12.2,2.6-18.4,3.6
		c-0.9,0.1-6.9,0.4-6.9,0.4v-11.2c0,0,5.7,0.1,6.3,0.1c3.9-0.1,7.9,0,11.8,0.1c8.9,0.1,17.7-0.1,26.3-3.4c4.7-1.8,10.1-1.7,15.2-2.5
		c5.7-0.9,11.5-2.1,17.2-3c3-0.5,6-0.9,9-0.7c16.7,1.1,33.3,1.4,49.1-5C897.2,230.9,900.3,229.2,903.8,227.6z"/>
	<path id="XMLID_877_" class="st0" d="M894.1,307.6c-2.4-0.4-4.8-0.6-7-1.4c-5.6-2-11.3-3.8-16.5-6.7c-6.7-3.8-13-8.4-19.2-13.2
		c-6.1-4.8-11.8-9.6-19.9-5.2c-0.8,0.4-3.5-0.9-3.8-1.9c-2.4-8.2-9.3-11.2-15.4-14.9c-2.8-1.7-4.9-3.1-3.2-6.9
		c1.7-3.8,4.5-2.7,6.8-1.5c10,5.5,19.9,11.4,29.8,17c3.5,2,6.9,4.1,10.5,5.7c4.8,2,8.9,4.2,11.7,9.3c1.4,2.6,4.9,4.2,7.7,5.8
		c6.3,3.8,12.8,7.4,19.2,11C894.6,305.9,894.3,306.8,894.1,307.6z"/>
	<path id="XMLID_876_" class="st0" d="M868.4,305c5.9-0.9,8.4,1.4,10,5.3c2.2,5.4,4.8,10.6,6.6,16.1c0.9,2.8,1.2,6.4,0.4,9.2
		c-1.2,4.1-0.9,7.6,1.1,11.2c8,14.4,8.8,29.9,4.6,45.1c-1.6,5.6-5.6,10.6-6.8,16.8c-0.1,0.6-3.1,1.4-3.4,0.9
		c-1.1-1.4-2.5-3.5-2.2-4.9c0.8-4.2,2.5-8.1,3.7-12.2c4.9-16.3,5.6-32.2-4.1-47.4c-3.2-5-4.7-9.7-2.1-15.7
		c2.5-5.7-1.1-10.8-3.5-15.9C871.4,310.9,870,308.2,868.4,305z"/>
	<path id="XMLID_872_" class="st0" d="M998,172.3c-6.3,8.4-76.4,50.6-83.8,50.3C940,200.7,968.5,185.6,998,172.3z"/>
	<path id="XMLID_866_" class="st0" d="M861.6,492.6c8.5-24.1,18.5-47.7,20.4-74.9C892.4,430.4,876.4,477.8,861.6,492.6z"/>
	<path id="XMLID_840_" class="st0" d="M916.5,230.8c29.9-10.8,60.5-14.4,91.9-9c0.1,0.6,0.1,1.1,0.2,1.7c-4.8,0.5-9.6,1.7-14.3,1.5
		c-25.7-1.1-51,1.9-76.2,6.1C917.5,231,917,230.8,916.5,230.8z"/>
	<path id="XMLID_839_" class="st0" d="M845.9,446.1c7.1-7.5,14-15,21.3-22.3c2.4-2.4,5.5-4.2,8.6-5.5
		c-16.9,22.7-33.7,45.4-51.4,69.3c2-4.7,3.2-8.6,5.1-12c4.7-8.3,9.7-16.3,14.5-24.5C844.9,449.5,845.3,447.7,845.9,446.1
		L845.9,446.1z"/>
	<path id="XMLID_833_" class="st0" d="M901.6,224.7c-2.3-14.8,6.9-57.6,19.3-68.3c-5.9,22.9-11.8,45.8-17.7,68.6
		C902.6,224.9,902.1,224.8,901.6,224.7z"/>
	<path id="XMLID_832_" class="st0" d="M943.7,153.4c-3.6,15.4-23.1,58.5-33.1,62.5C920.5,194.5,928.7,172,943.7,153.4z"/>
	<path id="XMLID_829_" class="st0" d="M867.1,418.6C845.6,431,832,452,814.9,470.4C814.8,454.7,851.4,418.7,867.1,418.6z"/>
	<path id="XMLID_822_" class="st0" d="M964.6,258.4c-19.8-2.7-37.9-7.4-57-12.6C918,239.2,954.2,247.2,964.6,258.4z"/>
	<path id="XMLID_819_" class="st0" d="M953.1,164.7c-3.4,6.5-6.5,13.1-10.2,19.4c-4.2,7.2-8.8,14.2-13.4,21.2
		c-0.9,1.4-2.4,2.3-4.5,2.7c9.7-18,15.4-38.4,28.7-54.1c0.5,0.2,1,0.4,1.5,0.6C954.4,157.9,953.7,161.4,953.1,164.7L953.1,164.7z"/>
	<path id="XMLID_815_" class="st0" d="M983.9,244.8c-24-1.6-46.6-3.2-69.6-4.8C922.1,233.3,971,236.3,983.9,244.8z"/>
	<path id="XMLID_813_" class="st0" d="M869.1,412.1c-17.5,7.7-34.9,15.3-52.4,23c-0.3-0.7-0.6-1.3-0.8-2
		c15.1-13.5,32.7-21,52.7-22.7C868.7,410.9,868.9,411.5,869.1,412.1z"/>
	<path id="XMLID_809_" class="st0" d="M951.1,393c-8.6-23.3-17.5-46.4-35.7-65.7C932.1,333.1,953.4,374.6,951.1,393z"/>
	<path id="XMLID_807_" class="st0" d="M975.4,150.8c-9.7,18.7-19.5,36-34.5,50.4C940.7,193.3,967.6,153.8,975.4,150.8z"/>
	<path id="XMLID_805_" class="st0" d="M875.2,433.3c-2.3,21-10,39.7-21.5,56.8C858.2,470,866.5,451.6,875.2,433.3z"/>
	<path id="XMLID_800_" class="st0" d="M880.5,478.7c4.9-20.9,8.1-42,6-65.1C895.7,427.1,892.7,462.6,880.5,478.7z"/>
	<path id="XMLID_780_" class="st0" d="M900.7,472.1c-2.3-18.9-4.6-37.8-6.9-56.8C901.7,419.1,907.7,459.8,900.7,472.1z"/>
	<path id="XMLID_777_" class="st0" d="M940.2,300.8c-10,3.7-19.9,7.5-29.9,11.1c-1.7,0.6-3.7,0.5-5.7,0.1
		c16.8-8.8,33.5-17.6,50.3-26.5c0.4,0.4,0.7,0.8,1.1,1.3C950.8,291.5,945.5,296.2,940.2,300.8L940.2,300.8z"/>
	<path id="XMLID_774_" class="st0" d="M842.7,492.8c5.8-17.8,12.8-35,22.5-50.9C862.5,461.3,854.9,478.2,842.7,492.8z"/>
	<path id="XMLID_772_" class="st0" d="M932.2,385.7c-6.8-18.9-13.5-37.2-19.9-55.2C921.7,334.3,935.7,371.4,932.2,385.7z"/>
	<path id="XMLID_767_" class="st0" d="M939.9,217.4c20-5.6,40.5-5.9,61.2-5.1c0.1,0.8,0.2,1.6,0.2,2.4c-20.4,1.8-40.8,3.7-61.2,5.5
		C940.1,219.3,940,218.3,939.9,217.4z"/>
	<path id="XMLID_766_" class="st0" d="M933.4,332.7c20.4,2.5,40.2,5,59,7.3C981.3,346.2,946,342.9,933.4,332.7z"/>
	<path id="XMLID_764_" class="st0" d="M934,231.2c21.3-3.6,42.7-6.7,63.5,4.4C976.3,234.2,955.2,232.7,934,231.2z"/>
	<path id="XMLID_760_" class="st0" d="M945.8,275.3c-4.3,12.7-29.5,28.9-42.5,27.4C917.7,293.4,931.1,284.7,945.8,275.3z"/>
	<path id="XMLID_757_" class="st0" d="M820.4,393c18.2,0.6,36,1.1,53.9,1.6C869.2,401.5,828.3,401.6,820.4,393z"/>
	<path id="XMLID_754_" class="st0" d="M951.3,344c16.5,3.3,32.1,6.4,48,9.6C991,360.8,962.8,355.3,951.3,344z"/>
	<path id="XMLID_753_" class="st0" d="M915.3,380.9c-4.1-19.5-7.9-37.4-11.6-54.9C913.7,335.1,921.1,366.7,915.3,380.9z"/>
	<path id="XMLID_749_" class="st0" d="M926.6,325.2c19.3-3,38.1-5.9,56.3-8.7C977.1,325,942,331,926.6,325.2z"/>
	<path id="XMLID_737_" class="st0" d="M954.8,207.1c15.1-8.5,31.4-12.4,48.7-12.7c0.1,0.5,0.3,1.1,0.4,1.6
		c-16.1,4.6-32.2,9.1-48.3,13.7C955.3,208.8,955,208,954.8,207.1z"/>
	<path id="XMLID_736_" class="st0" d="M922.7,450c-12.9-13.5-17.1-32.3-27.1-47.5C909.1,415.6,916.8,432.3,922.7,450z"/>
	<path id="XMLID_734_" class="st0" d="M826.5,404.6c15.3-0.7,30.7-1.3,46-2C864.9,410,834.3,411.6,826.5,404.6z"/>
	<path id="XMLID_730_" class="st0" d="M830.5,494.9c5.1-16.9,13.1-32.1,23.9-45.7c0.7,0.4,1.3,0.8,2,1.2
		c-7.8,15.3-15.7,30.7-23.5,46C832.1,495.9,831.3,495.4,830.5,494.9z"/>
	<path id="XMLID_728_" class="st0" d="M941.2,347.8c12.8,4.8,28.3,28,27.6,42.3C960,376.5,950.5,361.9,941.2,347.8z"/>
	<path id="XMLID_723_" class="st0" d="M988,155.9c-8.5,13.4-18.7,25.1-31.7,34C964,175.7,974.9,164.6,988,155.9z"/>
	<path id="XMLID_720_" class="st0" d="M964.9,300.8c-13.9,10.7-29.6,15.6-47.3,14.4c15.6-5.3,31.1-10.5,46.7-15.8
		C964.5,299.8,964.7,300.3,964.9,300.8z"/>
	<path id="XMLID_719_" class="st0" d="M893.4,298.5c12.7-9.7,24.2-18.6,36-27.7C928,281.2,906.1,298.5,893.4,298.5z"/>
	<path id="XMLID_716_" class="st0" d="M956.7,356.8c11.2,3.2,26.1,27.2,24.2,38.8C972.9,382.7,964.9,369.9,956.7,356.8z"/>
	<path id="XMLID_710_" class="st0" d="M895.1,321.6c7.4,10.7,10.3,37.6,4.7,49C898.3,354.8,896.8,339,895.1,321.6z"/>
	<path id="XMLID_708_" class="st0" d="M846,446c-3.8,5-7.7,10.1-11.5,15.1c-4.9,6.6-9.8,13.3-15.4,19.3
		c5.9-15.3,14.6-28.4,27.4-40.5C846.2,443.1,846.1,444.6,846,446L846,446z"/>
	<path id="XMLID_705_" class="st0" d="M945.8,361.9c10.7,5.5,19.9,27.3,16.4,38.7C956.7,387.5,951.5,375.2,945.8,361.9z"/>
	<path id="XMLID_702_" class="st0" d="M881.1,387.5c-9.5,6.1-36.2,3.9-42.9-3.4C852.6,385.2,866.1,386.3,881.1,387.5z"/>
	<path id="XMLID_693_" class="st0" d="M936.5,318.3c13.6-4.7,25.8-8.9,38.6-13.3C969.9,314.2,947.6,322.3,936.5,318.3z"/>
	<path id="XMLID_692_" class="st0" d="M968.2,359.8c8,0.1,25.5,15.7,29,26.9c-10.7-9.2-20.3-17.4-29.9-25.6
		C967.6,360.7,967.9,360.2,968.2,359.8z"/>
	<path id="XMLID_690_" class="st0" d="M811.7,454.6c2.9-9.6,16.4-21.7,26.3-23.3C830.3,441.6,821.5,448.6,811.7,454.6z"/>
	<path id="XMLID_685_" class="st0" d="M953,164.8c2.5-4.3,4.7-8.7,7.4-12.8c1.4-2.1,3.7-3.5,6.3-4.6c-3.2,11.5-9.5,20.8-15.8,30.1
		c-0.6-0.3-1.2-0.6-1.8-0.8C950.5,172.7,951.8,168.7,953,164.8L953,164.8z"/>
	<path id="XMLID_684_" class="st0" d="M919.2,184.4c0-11.4,3.2-21.7,9.5-30.8C930.3,165.6,925.7,175.3,919.2,184.4z"/>
	<path id="XMLID_683_" class="st0" d="M927.7,350.7c10.3,11.7,15.4,25,14.2,42C936.9,377.8,932.3,364.3,927.7,350.7z"/>
	<path id="XMLID_677_" class="st0" d="M915.7,416.3c-8.5-7.8-14.4-16-18-26.3C904.5,391.6,915.1,406.7,915.7,416.3z"/>
	<path id="XMLID_673_" class="st0" d="M979.5,359.2c10.5,0.3,18.7,4.8,26.9,11.3C1000,372.6,983.8,365.8,979.5,359.2z"/>
	<path id="XMLID_669_" class="st0" d="M990.2,324.4c-5.8,7.1-22.4,10.9-32.6,6.9C969.2,328.8,979.5,326.6,990.2,324.4z"/>
	<path id="XMLID_663_" class="st0" d="M940.2,300.9c7.3-4.3,14.6-8.5,22.5-13.1c-1.7,7.6-17,17.8-25.1,17.1
		C938.5,303.4,939.4,302.1,940.2,300.9L940.2,300.9z"/>
	<path id="XMLID_662_" class="st0" d="M905.6,432.2c6.1,3.4,11.9,16.5,11.5,25.9C912.3,454.9,905,438.4,905.6,432.2z"/>
	<path id="XMLID_652_" class="st0" d="M996.6,400.7c-6.1-7.8-12.2-15.6-19-24.1C985.2,377.1,996.8,391.6,996.6,400.7z"/>
	<path id="XMLID_648_" class="st0" d="M905.5,350.1c4.1,8.6,6.8,17.3,2.9,26.7C904.5,368.2,904.5,359.2,905.5,350.1z"/>
	<path id="XMLID_616_" class="st0" d="M996.2,161.8c-5.6,8.4-13.2,14.2-22.3,17.8c-0.5-0.6-0.9-1.3-1.4-1.9
		c7.4-5.9,14.9-11.9,22.3-17.8C995.3,160.5,995.8,161.1,996.2,161.8z"/>
	<path id="XMLID_611_" class="st0" d="M892,342.7c-3.4-8.4-5.5-16.9-3.5-25.9C892.9,325,895.7,333.4,892,342.7z"/>
	<path id="XMLID_600_" class="st0" d="M838.5,416.7c-7.3,2.6-14.6,5.3-22,7.9C819,417.2,830.8,412.9,838.5,416.7z"/>
	<path id="XMLID_595_" class="st0" d="M894.7,477.3c-3-8.3-3.9-15.5-2-23.3C897.7,458.4,898.9,470,894.7,477.3z"/>
	<path id="XMLID_533_" class="st0" d="M920.7,363.8c4.5,7.1,6.4,14.7,4,23.1C920.9,379.6,919.4,372,920.7,363.8z"/>
	<path id="XMLID_515_" class="st0" d="M997.3,203.7c-6.5,4.9-13.9,5.4-21.6,4.5C982.2,203.4,989.4,202.2,997.3,203.7z"/>
</g>
</svg>
