<?xml version="1.0" encoding="utf-8"?>
<!-- Generator: Adobe Illustrator 19.0.0, SVG Export Plug-In . SVG Version: 6.00 Build 0)  -->
<svg version="1.1" id="Layer_1" xmlns="http://www.w3.org/2000/svg" xmlns:xlink="http://www.w3.org/1999/xlink" x="0px" y="0px"
	 viewBox="-74 0 301 500" style="enable-background:new -74 0 301 500;" xml:space="preserve">
<style type="text/css">
	.st0{fill:#9C8214;}
</style>
<g id="XMLID_42_">
	<path id="XMLID_43_" class="st0" d="M699.1,167.4c0.8-0.7,1.8-0.9,2.8-0.5c1.3,0.5,2.3,0.8,3.3,1.2c1.4,0.5,2.1,1.9,1.7,3.3
		c-0.4,1.4-0.8,2.8-1.7,3.6c-3.2,2.8-7.4,7.2-10.4,10.1c-2.1,2.1-4.1,5.8-3.9,8.6c0.7,9.7-0.8,12.9-10.1,16.2
		c-2.3,0.8-5.4,1-6.6,2.7c-8.9,11.1-21,17.6-32.6,25.2c-12.1,8-24.7,7.2-37.6,6.8c-1,0-1.9-1.1-2.8-2.3c-1-1.3-0.6-3.1,0.7-4
		c0.8-0.5,1.7-1,2.5-1.3c13.2-4.8,26.6-9.2,39.8-14.2c3.6-1.4,7-4.2,9.7-7.1c9.2-9.4,17.8-19.3,27-28.7
		C686.7,181.1,692.8,173,699.1,167.4z"/>
	<path id="XMLID_104_" class="st0" d="M707.7,149.1c14.4-41.4,28.8-82.8,43.2-124.2c1,0.3,1.9,0.7,2.9,1
		c-9,43.3-19.1,86.2-42.7,124.4C710,149.8,708.8,149.5,707.7,149.1z"/>
	<path id="XMLID_105_" class="st0" d="M717.4,29.5c2.2,18.4-16.7,113.7-23.9,122.4C695.3,109.9,703.9,69.2,717.4,29.5z"/>
	<path id="XMLID_106_" class="st0" d="M740.5,7.9c-3.4,36.4-9,72.3-28.6,104.5C717.5,76.5,726.6,41.6,740.5,7.9z"/>
	<path id="XMLID_107_" class="st0" d="M826.3,311.7c-41.1-1.6-79.8-13.1-117.9-27.1C748.9,288.7,787.8,299.2,826.3,311.7z"/>
	<path id="XMLID_108_" class="st0" d="M719.3,151.8C740,118.1,764,87,791.6,58.4C771.9,93,748.2,124.4,719.3,151.8z"/>
	<path id="XMLID_109_" class="st0" d="M706.4,315.7c33.6,20,62.7,45.3,86.7,76.3C763.5,367.4,731.9,345.1,706.4,315.7z"/>
	<path id="XMLID_110_" class="st0" d="M710.8,200.8c34.4-6.7,68.9-12,104.2-9.6C781,201.9,746.2,204.7,710.8,200.8z"/>
	<path id="XMLID_111_" class="st0" d="M782.6,21.1c-12.3,31.7-23.8,62.3-42.8,89.6C739.6,91.3,769.8,28,782.6,21.1z"/>
	<path id="XMLID_112_" class="st0" d="M720.5,164.7c36.9-15.2,73.8-30.4,110.6-45.6c0.5,1.2,1,2.4,1.5,3.6
		c-35.3,19.2-72,34.9-110.7,45.9C721.5,167.3,721,166,720.5,164.7z"/>
	<path id="XMLID_113_" class="st0" d="M823.3,328.9c-22.2-0.2-101.3-23.7-111.7-33.6C750.7,305.4,788.1,313.2,823.3,328.9z"/>
	<path id="XMLID_114_" class="st0" d="M802.2,235.8c-30.3,14.2-61.5,21.8-94.6,30.8C717.8,254.4,789.9,231.4,802.2,235.8z"/>
	<path id="XMLID_115_" class="st0" d="M686,100c0-26.1,3.4-51.8,11.4-76.9c2.5,26.3,2.7,52.4-7.3,77.3
		C688.7,100.3,687.3,100.2,686,100z"/>
	<path id="XMLID_116_" class="st0" d="M709.6,186.1c28.2-5.2,56.6-9.4,85.6-7c-28,7.8-56.2,14.1-85.4,11.1
		C707.1,190,706.9,186.5,709.6,186.1z"/>
	<path id="XMLID_117_" class="st0" d="M683.1,152.5c-7.9-12-15.1-83-8-94.8c3.8,32.9,7.4,63.7,10.9,94.5
		C685.1,152.3,684.1,152.4,683.1,152.5z"/>
	<path id="XMLID_118_" class="st0" d="M711.7,337.7c17.4,21.3,29.5,45.4,36.2,72.2C731.1,388.2,718.6,364.4,711.7,337.7z"/>
	<path id="XMLID_119_" class="st0" d="M730.5,280c0.1-1.1,0.1-2.1,0.2-3.2c32.4,0.3,65.1-5.1,96.9,5.5c-0.1,1-0.1,2-0.2,2.9
		C795.1,283.5,762.8,281.8,730.5,280z"/>
	<path id="XMLID_120_" class="st0" d="M751.2,164.7c24.7-12.5,50-22.9,77.9-26.4C804.1,149.9,780,164.1,751.2,164.7z"/>
	<path id="XMLID_121_" class="st0" d="M794.1,262.3c-13.4,9.3-67.3,14.4-78.4,7.5C742.2,264.1,767.8,260.5,794.1,262.3z"/>
	<path id="XMLID_122_" class="st0" d="M705.5,384.7c-8.6-13.2-16.6-59.8-12.5-72.1C701,324.5,709.9,376.1,705.5,384.7z"/>
	<path id="XMLID_123_" class="st0" d="M788.6,350.5c-25.1-13.4-50.3-26.8-75.4-40.2c0.5-0.9,1-1.9,1.5-2.8c27,9.8,53.3,21,75.3,40.2
		C789.5,348.6,789.1,349.5,788.6,350.5z"/>
	<path id="XMLID_124_" class="st0" d="M778.3,115.7c-15,19.4-33,35-56.2,43.9c-0.7-0.9-1.3-1.7-2-2.6c18.8-14.5,37.5-29.1,56.3-43.6
		C777,114.2,777.7,114.9,778.3,115.7z"/>
	<path id="XMLID_125_" class="st0" d="M751.3,123.8c4.7-10.3,45.2-48.4,52.3-49.8C796.5,89.4,763.4,121.2,751.3,123.8z"/>
	<path id="XMLID_126_" class="st0" d="M768.1,399.3c-16.7-13-28.9-28.9-39.7-48.7C742.7,355.3,769.6,389.3,768.1,399.3z"/>
	<path id="XMLID_127_" class="st0" d="M748.3,336.8c11.4,1.9,46.9,30.4,53,42.7C788.8,376.8,752.6,347.6,748.3,336.8z"/>
	<path id="XMLID_128_" class="st0" d="M834.1,354.7c-22.9-8.9-46.6-16.2-66.5-31.5C791.9,329.1,814.7,338.4,834.1,354.7z"/>
	<path id="XMLID_129_" class="st0" d="M522.4,383.6c7.1-5.2,14.7-9.7,23.1-15.2c2.7,5.3,1.3,11.3-2.5,16.7
		c-4.4,6.3-10,11.6-18.4,10.8c-2.2-0.2-5.4-3.2-5.8-5.4C518.4,388.5,520.4,385,522.4,383.6z"/>
	<path id="XMLID_130_" class="st0" d="M774.3,126.9c15.4-16,31.5-29.3,52.4-38.4C821.2,100.2,785.1,126.7,774.3,126.9z"/>
	<path id="XMLID_131_" class="st0" d="M568.1,380c-2,1.6-4.8,2.3-7,3.7c-5.4,3.6-7.7,0.1-10.1-4.4c-0.1-4.7-0.5-9.9-0.1-14.9
		c0.5-5.7,4.7-7.1,8.5-3.7c4.5,4,7.9,9.3,11.2,14.3C571.1,375.9,569.5,378.9,568.1,380z"/>
	<path id="XMLID_132_" class="st0" d="M776.2,169.4c15.3-9.9,32.4-11.7,50-11.4C810.7,167,794.1,171.4,776.2,169.4z"/>
	<path id="XMLID_133_" class="st0" d="M764.4,256.8c16.5-8.1,34.2-11.8,52.4-12.3C800.2,252.6,783.2,258.5,764.4,256.8z"/>
	<path id="XMLID_134_" class="st0" d="M551.6,385.7c2.5,10.4-3.8,22-12.3,23.3c-2.3,0.4-5.6-1.3-7.4-3.1c-0.9-0.9-0.2-5,1.2-6.2
		C538.8,395,544.9,390.8,551.6,385.7z"/>
	<path id="XMLID_135_" class="st0" d="M547.7,321.4c5-0.5,10.4,3.3,15.7,5.3c0.2,1,0.4,2.1,0.6,3.1c-3.1,2.3-6.1,6.2-9.5,6.6
		c-4.4,0.5-9.2-1.7-13.8-2.8C543,329.3,545,321.7,547.7,321.4z"/>
	<path id="XMLID_136_" class="st0" d="M589,361.7c1.5,0.2,4.1,2.6,3.9,3.8c-0.2,2-1.7,4.6-3.4,5.7c-7.9,5-20.5-0.4-24.3-11.4
		c4.7,0.9,8.2,1.8,11.8,2.1C581,362.1,585.1,361.3,589,361.7z"/>
	<path id="XMLID_137_" class="st0" d="M531.7,341C531.7,341,531.6,341,531.7,341C531.6,341.1,531.6,341.1,531.7,341L531.7,341
		L531.7,341L531.7,341L531.7,341C531.6,341,531.6,341,531.7,341C531.6,341,531.6,341,531.7,341z"/>
	<path id="XMLID_138_" class="st0" d="M515.7,344.3c1.2-4.8,1.5-11,4.7-13.6c2.7-2.2,8.9-0.3,13.5-0.3c-0.8,3.5-1.5,7.1-2.3,10.6
		c-3.6,1.7-7,3.8-10.7,5C519.4,346.4,515.6,344.4,515.7,344.3z"/>
	<path id="XMLID_139_" class="st0" d="M559.6,391.9c5.3,8.3,6.1,15,1.4,21.2c-1.7,2.2-5.7,2.5-8.7,3.7c-1-3.2-3.5-7.1-2.5-9.6
		C551.8,402.2,555.6,397.9,559.6,391.9z"/>
	<path id="XMLID_140_" class="st0" d="M518.6,295.9c5.1-0.1,10.3,2.9,15.5,4.6c-2.2,3.4-4.5,6.9-7.6,11.8c-5.3-2.1-9.3-3.7-13.3-5.3
		C514.9,303.2,516.7,295.9,518.6,295.9z"/>
	<path id="XMLID_141_" class="st0" d="M559.8,297.3c-3.1,9.6-8.7,13-16.3,12.4c-2.4-0.2-6.7-3.8-6.5-4.4c1.3-3.3,3.3-8.1,5.9-8.8
		C547.8,295.4,553.3,296.8,559.8,297.3z"/>
	<path id="XMLID_142_" class="st0" d="M582.3,398.1c1.9,1.6,1.5,5.8,2.2,8.9c-3.1,0.4-6.9,2.1-9.1,0.9c-6.6-3.5-9.6-9.6-9.4-19.5
		C572.5,392,577.9,394.4,582.3,398.1z"/>
	<path id="XMLID_143_" class="st0" d="M527.9,326c-5.9-0.4-6.6-3.4-4.4-8.1c3.1-6.4,10-7.6,20.8-3.4
		C541.6,322.6,535.6,326.5,527.9,326z"/>
	<path id="XMLID_144_" class="st0" d="M505.8,303.9c-2.8,0-5.6-2.1-8.5-3.3c1.3-2.8,1.8-6.6,4-8.3c3.8-2.9,8.7-4.6,13.1-6.7
		c0.7,1,1.5,2.1,2.2,3.1c-1.6,3.6-2.8,7.4-4.9,10.7C510.5,301.4,507.9,303.9,505.8,303.9z"/>
	<path id="XMLID_145_" class="st0" d="M530.8,276.2c0.3-0.7,0.6-1.3,0.9-2c3.5,1.6,6.9,3.2,10.4,4.8c-2.7,3.8-4.7,9.3-8.4,10.9
		c-2.8,1.2-7.7-2.6-11.7-4.2c1.7-2.7,3.3-5.4,5.3-7.9C528,276.9,529.6,276.7,530.8,276.2z"/>
	<path id="XMLID_146_" class="st0" d="M554.3,313c1.7-2.9,6.2-7.3,7.6-6.8c4.5,1.8,8.1,5.7,12.1,8.8c-4.8,2.1-9.4,5.1-14.4,6
		C554.1,321.9,551.4,317.8,554.3,313z"/>
	<path id="XMLID_147_" class="st0" d="M574,315.1C574,315.1,574,315,574,315.1c0-0.1,0-0.1,0.1-0.1C574.1,315,574.1,315,574,315.1
		L574,315.1L574,315.1z"/>
	<path id="XMLID_148_" class="st0" d="M563.8,283.6c-5,4.4-7.8,8-11.4,9.5c-2.2,0.9-5.8-1.4-8.8-2.2c1.6-4.6,3.3-9.3,4.9-13.9
		C552.7,278.9,556.9,280.7,563.8,283.6z"/>
	<path id="XMLID_149_" class="st0" d="M588.8,317.8c0.8,1.4-4.7,7.3-8.1,9.9c-1.7,1.3-5.4,0.1-8.3,0.1c0.2-2.5,0.3-4.9,0.6-7.3
		c0.2-1.8,0.6-3.6,1-5.4C579.6,312.9,585.6,312.3,588.8,317.8z"/>
	<path id="XMLID_150_" class="st0" d="M505.2,321.3c4.2-1.5,9.2-0.9,15.2-1.3c-1.7,8.6-6.4,11.7-12.2,12.3c-2.6,0.3-5.5-1.9-8.2-3
		C501.6,326.5,502.8,322.1,505.2,321.3z"/>
	<path id="XMLID_151_" class="st0" d="M546.3,346.9c1.6,4.2-7.2,8.7-15.1,8c-0.6-0.1-1.2-0.8-2-1.4c0.8-4.2,1.6-8.3,2.4-12.4
		C537.6,340.3,543.9,340.5,546.3,346.9z"/>
	<path id="XMLID_152_" class="st0" d="M575.6,384c5.9-1.9,10.8-3.8,15.9-5.1c1.5-0.4,4.1,0.2,4.9,1.3c0.8,1.1,0.6,3.7-0.2,5.1
		C592.3,392.4,581.5,392.5,575.6,384z"/>
	<path id="XMLID_153_" class="st0" d="M594.6,352.8c-3.2,6.5-15,7.2-20.6,1.1c4.5-2.4,8.9-4.7,13.3-7c0.5-0.3,1-0.8,1.4-0.7
		c2,0.4,4.4,0.4,5.7,1.6C595.3,348.6,595.3,351.4,594.6,352.8z"/>
	<path id="XMLID_154_" class="st0" d="M574.8,344.6c-1.8-0.1-4-2.4-4.9-4.2c-0.5-1,0.8-4.1,1.9-4.5c5.9-2.4,12.1-3.6,18.8,0.3
		C586.6,342.6,581.1,344.8,574.8,344.6z"/>
	<path id="XMLID_155_" class="st0" d="M513.2,350.1c3.3-0.9,7.6,1.8,11.5,3c-2.3,3.2-4.6,6.4-7.6,10.6c-4.1-1.9-6.9-3.2-9.6-4.5
		C509.4,356.1,510.7,350.8,513.2,350.1z"/>
	<path id="XMLID_156_" class="st0" d="M503.5,307.2c3.2,0.8,6.1,2.7,9.1,4.1c0,0.9,0.1,1.7,0.1,2.6c-3,1.5-5.9,3.6-9,4.3
		c-2.3,0.5-6.4-0.3-7.3-1.8c-1.4-2.4-0.7-6-0.9-9.1C498.1,307.2,501,306.5,503.5,307.2z"/>
	<path id="XMLID_157_" class="st0" d="M533.9,366.2c-2.6,3-4.6,7.4-7.8,8.7c-2.6,1-6.7-1.7-10.1-2.8c1.1-2.5,2.2-5.1,3.7-8.6
		C525.3,364.6,529.6,365.4,533.9,366.2z"/>
	<path id="XMLID_158_" class="st0" d="M580.1,309.8c-1.9,1.1-5.5-0.9-10.2-2c2.1-5.2,3.4-8.3,4.7-11.4c3.9,1.8,7.7,3.6,11.6,5.3
		C584.2,304.5,582.8,308.3,580.1,309.8z"/>
	<path id="XMLID_159_" class="st0" d="M552.1,351.9c-1.5-1.5-1.4-6.3-0.1-8.4c4.7-7.4,10-1.4,16-0.3
		C563.7,350.8,555.3,355.3,552.1,351.9z"/>
	<path id="XMLID_160_" class="st0" d="M569.7,294.2c-0.5,0.6-5.9-2-5.8-2.5c0.5-3.4,2-6.6,3.8-11.6c-6.9,3.1-10.1-4.6-16.6-6.7
		c6.7-6.2,12.4-6.6,18.4-3.5c5,2.6,5,5.7,0.4,8.9c-0.7,0.5-1.3,0.9-2,1.2c4.2,2.3,6.4,3.4,8.6,4.6
		C574.3,287.9,572.4,291.4,569.7,294.2z"/>
	<path id="XMLID_161_" class="st0" d="M514.6,337.3c-2.7,2.9-5.5,5.8-8.2,8.8c-1.4-2.6-2.9-5.2-4.3-7.8c3.2-1.6,6.4-3.2,9.6-4.9
		C512.6,334.7,513.6,336,514.6,337.3z"/>
	<path id="XMLID_162_" class="st0" d="M493.8,246c0.2,0,2.8,0,2.9,0c4.6,0.3,5.6,0,9.4,1.2c14.3,4.4,28.6,5.4,42.8,0.7
		c13.1-4.3,26.1-4.1,39.7-1.8c14.7,2.5,29.8,2.3,44.8,3.6c3.9,0.3,7.9,1.6,11.5,3.1c15.7,6.7,30.3,16.5,48.1,17.8
		c1.2,0.1,2.2,3.6,3.2,5.5c-8.2,3.4-4,9-3,12.5c0.9,2.7,1.5,3.7,1.5,4.7c-0.1,3.1-0.4,6.2-0.7,9.3c-2.5-2.1-5.3-4.1-7.5-6.5
		c-3.7-4-6.1-10-10.6-12.4c-13.9-7.5-28.5-13.7-42.9-20.4c-7.7-3.6-15.5-3.2-23.6-0.7c-3.3,1-7.4,0.9-10.8,0
		c-8.5-2.2-16.9-5.2-25.4-7.6c-1.9-0.5-4.3-0.3-6.3,0.1c-6.5,1.6-13,3-19.2,5.3c-4.3,1.6-8.7,3.9-11.9,7c-5.4,5.4-11.4,5.8-16.9,0.6
		c-3-2.9-6.6-5.2-10.4-6.8c-3-1.3-6.1-2.7-9.2-3.2c-0.2,0-0.4,0-0.6,0h-11v-12H493.8z"/>
</g>
<g id="XMLID_96_">
	<path id="XMLID_879_" class="st0" d="M70.8,230.2c2.2,4.6,0.5,7.4-2.4,8.6c-6.2,2.5-12.6,5.4-19.1,6.2c-21.1,2.5-42.3,3.9-63.3,6.3
		c-4.2,0.5-7.9,3.6-12,5.1c-4.8,1.8-9.4,5.2-15,1c-1.8-1.4-5.2-1.3-7.7-0.9c-6.2,0.9-12.2,2.6-18.4,3.6c-0.9,0-6.9,0.3-6.9,0.3
		v-11.2c0,0,5.7,0.1,6.3,0.1c3.9-0.1,7.9,0,11.8,0.1c8.9,0.1,17.7-0.1,26.3-3.4c4.7-1.8,10.1-1.7,15.2-2.5c5.7-0.9,11.5-2.1,17.2-3
		c3-0.5,6-0.9,9-0.7c16.7,1.1,33.3,1.4,49.1-5C64.2,233.5,67.3,231.8,70.8,230.2z"/>
	<path id="XMLID_877_" class="st0" d="M61.1,310.2c-2.4-0.4-4.8-0.6-7-1.4c-5.6-2-11.3-3.8-16.5-6.7c-6.7-3.8-13-8.4-19.2-13.2
		c-6.1-4.8-11.8-9.6-19.9-5.2c-0.8,0.4-3.5-0.9-3.8-1.9c-2.4-8.2-9.3-11.2-15.4-14.9c-2.8-1.7-4.9-3.1-3.2-6.9s4.5-2.7,6.8-1.5
		c10,5.5,19.9,11.4,29.8,17c3.5,2,6.9,4.1,10.5,5.7c4.8,2,8.9,4.2,11.7,9.3c1.4,2.6,4.9,4.2,7.7,5.8c6.3,3.8,12.8,7.4,19.2,11
		C61.6,308.5,61.3,309.4,61.1,310.2z"/>
	<path id="XMLID_876_" class="st0" d="M35.4,307.6c5.9-0.9,8.4,1.4,10,5.3c2.2,5.4,4.8,10.6,6.6,16.1c0.9,2.8,1.2,6.4,0.4,9.2
		c-1.2,4.1-0.9,7.6,1.1,11.2c8,14.4,8.8,29.9,4.6,45.1c-1.6,5.6-5.6,10.6-6.8,16.8c-0.1,0.6-3.1,1.4-3.4,0.9
		c-1.1-1.4-2.5-3.5-2.2-4.9c0.8-4.2,2.5-8.1,3.7-12.2c4.9-16.3,5.6-32.2-4.1-47.4c-3.2-5-4.7-9.7-2.1-15.7
		c2.5-5.7-1.1-10.8-3.5-15.9C38.4,313.5,37,310.8,35.4,307.6z"/>
	<path id="XMLID_872_" class="st0" d="M165,174.9c-6.3,8.4-76.4,50.6-83.8,50.3C107,203.3,135.5,188.2,165,174.9z"/>
	<path id="XMLID_866_" class="st0" d="M28.6,495.2c8.5-24.1,18.5-47.7,20.4-74.9C59.4,433,43.4,480.4,28.6,495.2z"/>
	<path id="XMLID_840_" class="st0" d="M83.5,233.4c29.9-10.8,60.5-14.4,91.9-9c0.1,0.6,0.1,1.1,0.2,1.7c-4.8,0.5-9.6,1.7-14.3,1.5
		c-25.7-1.1-51,1.9-76.2,6.1C84.5,233.6,84,233.4,83.5,233.4z"/>
	<path id="XMLID_839_" class="st0" d="M12.9,448.7c7.1-7.5,14-15,21.3-22.3c2.4-2.4,5.5-4.2,8.6-5.5C26,443.6,9.1,466.3-8.6,490.1
		c2-4.7,3.2-8.6,5.1-12c4.7-8.3,9.7-16.3,14.5-24.5C11.9,452.1,12.3,450.3,12.9,448.7L12.9,448.7z"/>
	<path id="XMLID_833_" class="st0" d="M68.6,227.3c-2.3-14.8,6.9-57.6,19.3-68.3c-5.9,22.9-11.8,45.8-17.7,68.6
		C69.6,227.5,69.1,227.4,68.6,227.3z"/>
	<path id="XMLID_832_" class="st0" d="M110.7,156c-3.6,15.4-23.1,58.5-33.1,62.5C87.5,197.1,95.7,174.6,110.7,156z"/>
	<path id="XMLID_829_" class="st0" d="M34.1,421.2C12.6,433.6-1,454.6-18.1,473C-18.2,457.3,18.4,421.3,34.1,421.2z"/>
	<path id="XMLID_822_" class="st0" d="M131.6,261c-19.8-2.7-37.9-7.4-57-12.6C85,241.8,121.2,249.8,131.6,261z"/>
	<path id="XMLID_819_" class="st0" d="M120.1,167.3c-3.4,6.5-6.5,13.1-10.2,19.4c-4.2,7.2-8.8,14.2-13.4,21.2
		c-0.9,1.4-2.4,2.3-4.5,2.7c9.7-18,15.4-38.4,28.7-54.1c0.5,0.2,1,0.4,1.5,0.6C121.4,160.5,120.7,164,120.1,167.3L120.1,167.3z"/>
	<path id="XMLID_815_" class="st0" d="M150.9,247.4c-24-1.6-46.6-3.2-69.6-4.8C89.1,235.9,138,238.9,150.9,247.4z"/>
	<path id="XMLID_813_" class="st0" d="M36.1,414.7c-17.5,7.7-34.9,15.3-52.4,23c-0.3-0.7-0.6-1.3-0.8-2c15.1-13.5,32.7-21,52.7-22.7
		C35.7,413.5,35.9,414.1,36.1,414.7z"/>
	<path id="XMLID_809_" class="st0" d="M118.1,395.6c-8.6-23.3-17.5-46.4-35.7-65.7C99.1,335.7,120.4,377.2,118.1,395.6z"/>
	<path id="XMLID_807_" class="st0" d="M142.4,153.4c-9.7,18.7-19.5,36-34.5,50.4C107.7,195.9,134.6,156.4,142.4,153.4z"/>
	<path id="XMLID_805_" class="st0" d="M42.2,435.9c-2.3,21-10,39.7-21.5,56.8C25.2,472.6,33.5,454.2,42.2,435.9z"/>
	<path id="XMLID_800_" class="st0" d="M47.5,481.3c4.9-20.9,8.1-42,6-65.1C62.7,429.7,59.7,465.2,47.5,481.3z"/>
	<path id="XMLID_780_" class="st0" d="M67.7,474.7c-2.3-18.9-4.6-37.8-6.9-56.8C68.7,421.7,74.7,462.4,67.7,474.7z"/>
	<path id="XMLID_777_" class="st0" d="M107.2,303.4c-10,3.7-19.9,7.5-29.9,11.1c-1.7,0.6-3.7,0.5-5.7,0.1
		c16.8-8.8,33.5-17.6,50.3-26.5c0.4,0.4,0.7,0.8,1.1,1.3C117.8,294.1,112.5,298.8,107.2,303.4L107.2,303.4z"/>
	<path id="XMLID_774_" class="st0" d="M9.7,495.4c5.8-17.8,12.8-35,22.5-50.9C29.5,463.9,21.9,480.8,9.7,495.4z"/>
	<path id="XMLID_772_" class="st0" d="M99.2,388.3c-6.8-18.9-13.5-37.2-19.9-55.2C88.7,336.9,102.7,374,99.2,388.3z"/>
	<path id="XMLID_767_" class="st0" d="M106.9,220c20-5.6,40.5-5.9,61.2-5.1c0.1,0.8,0.2,1.6,0.2,2.4c-20.4,1.8-40.8,3.7-61.2,5.5
		C107.1,221.9,107,220.9,106.9,220z"/>
	<path id="XMLID_766_" class="st0" d="M100.4,335.3c20.4,2.5,40.2,5,59,7.3C148.3,348.8,113,345.5,100.4,335.3z"/>
	<path id="XMLID_764_" class="st0" d="M101,233.8c21.3-3.6,42.7-6.7,63.5,4.4C143.3,236.8,122.2,235.3,101,233.8z"/>
	<path id="XMLID_760_" class="st0" d="M112.8,277.9c-4.3,12.7-29.5,28.9-42.5,27.4C84.7,296,98.1,287.3,112.8,277.9z"/>
	<path id="XMLID_757_" class="st0" d="M-12.6,395.6c18.2,0.6,36,1.1,53.9,1.6C36.2,404.1-4.7,404.2-12.6,395.6z"/>
	<path id="XMLID_754_" class="st0" d="M118.3,346.6c16.5,3.3,32.1,6.4,48,9.6C158,363.4,129.8,357.9,118.3,346.6z"/>
	<path id="XMLID_753_" class="st0" d="M82.3,383.5c-4.1-19.5-7.9-37.4-11.6-54.9C80.7,337.7,88.1,369.3,82.3,383.5z"/>
	<path id="XMLID_749_" class="st0" d="M93.6,327.8c19.3-3,38.1-5.9,56.3-8.7C144.1,327.6,109,333.6,93.6,327.8z"/>
	<path id="XMLID_737_" class="st0" d="M121.8,209.7c15.1-8.5,31.4-12.4,48.7-12.7c0.1,0.5,0.3,1.1,0.4,1.6
		c-16.1,4.6-32.2,9.1-48.3,13.7C122.3,211.4,122,210.6,121.8,209.7z"/>
	<path id="XMLID_736_" class="st0" d="M89.7,452.6c-12.9-13.5-17.1-32.3-27.1-47.5C76.1,418.2,83.8,434.9,89.7,452.6z"/>
	<path id="XMLID_734_" class="st0" d="M-6.5,407.2c15.3-0.7,30.7-1.3,46-2C31.9,412.6,1.3,414.2-6.5,407.2z"/>
	<path id="XMLID_730_" class="st0" d="M-2.5,497.5c5.1-16.9,13.1-32.1,23.9-45.7c0.7,0.4,1.3,0.8,2,1.2c-7.8,15.3-15.7,30.7-23.5,46
		C-0.9,498.5-1.7,498-2.5,497.5z"/>
	<path id="XMLID_728_" class="st0" d="M108.2,350.4c12.8,4.8,28.3,28,27.6,42.3C127,379.1,117.5,364.5,108.2,350.4z"/>
	<path id="XMLID_723_" class="st0" d="M155,158.5c-8.5,13.4-18.7,25.1-31.7,34C131,178.3,141.9,167.2,155,158.5z"/>
	<path id="XMLID_720_" class="st0" d="M131.9,303.4c-13.9,10.7-29.6,15.6-47.3,14.4c15.6-5.3,31.1-10.5,46.7-15.8
		C131.5,302.4,131.7,302.9,131.9,303.4z"/>
	<path id="XMLID_719_" class="st0" d="M60.4,301.1c12.7-9.7,24.2-18.6,36-27.7C95,283.8,73.1,301.1,60.4,301.1z"/>
	<path id="XMLID_716_" class="st0" d="M123.7,359.4c11.2,3.2,26.1,27.2,24.2,38.8C139.9,385.3,131.9,372.5,123.7,359.4z"/>
	<path id="XMLID_710_" class="st0" d="M62.1,324.2c7.4,10.7,10.3,37.6,4.7,49C65.3,357.4,63.8,341.6,62.1,324.2z"/>
	<path id="XMLID_708_" class="st0" d="M13,448.6c-3.8,5-7.7,10.1-11.5,15.1c-4.9,6.6-9.8,13.3-15.4,19.3
		c5.9-15.3,14.6-28.4,27.4-40.5C13.2,445.7,13.1,447.2,13,448.6L13,448.6z"/>
	<path id="XMLID_705_" class="st0" d="M112.8,364.5c10.7,5.5,19.9,27.3,16.4,38.7C123.7,390.1,118.5,377.8,112.8,364.5z"/>
	<path id="XMLID_702_" class="st0" d="M48.1,390.1c-9.5,6.1-36.2,3.9-42.9-3.4C19.6,387.8,33.1,388.9,48.1,390.1z"/>
	<path id="XMLID_693_" class="st0" d="M103.5,320.9c13.6-4.7,25.8-8.9,38.6-13.3C136.9,316.8,114.6,324.9,103.5,320.9z"/>
	<path id="XMLID_692_" class="st0" d="M135.2,362.4c8,0.1,25.5,15.7,29,26.9c-10.7-9.2-20.3-17.4-29.9-25.6
		C134.6,363.3,134.9,362.8,135.2,362.4z"/>
	<path id="XMLID_690_" class="st0" d="M-21.3,457.2c2.9-9.6,16.4-21.7,26.3-23.3C-2.7,444.2-11.5,451.2-21.3,457.2z"/>
	<path id="XMLID_685_" class="st0" d="M120,167.4c2.5-4.3,4.7-8.7,7.4-12.8c1.4-2.1,3.7-3.5,6.3-4.6c-3.2,11.5-9.5,20.8-15.8,30.1
		c-0.6-0.3-1.2-0.6-1.8-0.8C117.5,175.3,118.8,171.3,120,167.4L120,167.4z"/>
	<path id="XMLID_684_" class="st0" d="M86.2,187c0-11.4,3.2-21.7,9.5-30.8C97.3,168.2,92.7,177.9,86.2,187z"/>
	<path id="XMLID_683_" class="st0" d="M94.7,353.3c10.3,11.7,15.4,25,14.2,42C103.9,380.4,99.3,366.9,94.7,353.3z"/>
	<path id="XMLID_677_" class="st0" d="M82.7,418.9c-8.5-7.8-14.4-16-18-26.3C71.5,394.2,82.1,409.3,82.7,418.9z"/>
	<path id="XMLID_673_" class="st0" d="M146.5,361.8c10.5,0.3,18.7,4.8,26.9,11.3C167,375.2,150.8,368.4,146.5,361.8z"/>
	<path id="XMLID_669_" class="st0" d="M157.2,327c-5.8,7.1-22.4,10.9-32.6,6.9C136.2,331.4,146.5,329.2,157.2,327z"/>
	<path id="XMLID_663_" class="st0" d="M107.2,303.5c7.3-4.3,14.6-8.5,22.5-13.1c-1.7,7.6-17,17.8-25.1,17.1
		C105.5,306,106.4,304.7,107.2,303.5L107.2,303.5z"/>
	<path id="XMLID_662_" class="st0" d="M72.6,434.8c6.1,3.4,11.9,16.5,11.5,25.9C79.3,457.5,72,441,72.6,434.8z"/>
	<path id="XMLID_652_" class="st0" d="M163.6,403.3c-6.1-7.8-12.2-15.6-19-24.1C152.2,379.7,163.8,394.2,163.6,403.3z"/>
	<path id="XMLID_648_" class="st0" d="M72.5,352.7c4.1,8.6,6.8,17.3,2.9,26.7C71.5,370.8,71.5,361.8,72.5,352.7z"/>
	<path id="XMLID_616_" class="st0" d="M163.2,164.4c-5.6,8.4-13.2,14.2-22.3,17.8c-0.5-0.6-0.9-1.3-1.4-1.9
		c7.4-5.9,14.9-11.9,22.3-17.8C162.3,163.1,162.8,163.7,163.2,164.4z"/>
	<path id="XMLID_611_" class="st0" d="M59,345.3c-3.4-8.4-5.5-16.9-3.5-25.9C59.9,327.6,62.7,336,59,345.3z"/>
	<path id="XMLID_600_" class="st0" d="M5.5,419.3c-7.3,2.6-14.6,5.3-22,7.9C-14,419.8-2.2,415.5,5.5,419.3z"/>
	<path id="XMLID_595_" class="st0" d="M61.7,479.9c-3-8.3-3.9-15.5-2-23.3C64.7,461,65.9,472.6,61.7,479.9z"/>
	<path id="XMLID_533_" class="st0" d="M87.7,366.4c4.5,7.1,6.4,14.7,4,23.1C87.9,382.2,86.4,374.6,87.7,366.4z"/>
	<path id="XMLID_515_" class="st0" d="M164.3,206.3c-6.5,4.9-13.9,5.4-21.6,4.5C149.2,206,156.4,204.8,164.3,206.3z"/>
</g>
</svg>
