<?xml version="1.0" encoding="utf-8"?>
<!-- Generator: Adobe Illustrator 19.0.0, SVG Export Plug-In . SVG Version: 6.00 Build 0)  -->
<svg version="1.1" id="Layer_1" xmlns="http://www.w3.org/2000/svg" xmlns:xlink="http://www.w3.org/1999/xlink" x="0px" y="0px"
	 viewBox="0 0 350 500" style="enable-background:new 0 0 350 500;" xml:space="preserve">
<style type="text/css">
	.st0{fill:#9C8214;}
</style>
<g id="XMLID_42_">
	<path id="XMLID_43_" class="st0" d="M139,167.4c-0.8-0.7-1.8-0.9-2.8-0.5c-1.3,0.5-2.3,0.8-3.3,1.2c-1.4,0.5-2.1,1.9-1.7,3.3
		c0.4,1.4,0.8,2.8,1.7,3.6c3.2,2.8,7.4,7.2,10.4,10.1c2.1,2.1,4.1,5.8,3.9,8.6c-0.7,9.7,0.8,12.9,10.1,16.2c2.3,0.8,5.3,1,6.6,2.7
		c8.9,11.1,21,17.6,32.6,25.2c12.1,8,24.7,7.2,37.6,6.8c0.9,0,1.9-1.1,2.8-2.3c1-1.3,0.6-3.1-0.7-4c-0.8-0.5-1.6-1-2.5-1.3
		c-13.2-4.8-26.6-9.2-39.7-14.2c-3.6-1.4-7-4.2-9.7-7.1c-9.1-9.4-17.8-19.3-27-28.7C151.4,181.1,145.3,173,139,167.4z"/>
	<path id="XMLID_104_" class="st0" d="M130.4,149.1C116,107.6,101.6,66.2,87.3,24.8c-1,0.3-1.9,0.7-2.9,1
		c9,43.3,19.1,86.2,42.7,124.4C128.2,149.8,129.3,149.5,130.4,149.1z"/>
	<path id="XMLID_105_" class="st0" d="M120.8,29.5c-2.2,18.4,16.6,113.7,23.9,122.4C142.8,109.9,134.3,69.2,120.8,29.5z"/>
	<path id="XMLID_106_" class="st0" d="M97.6,7.9c3.4,36.4,9,72.3,28.5,104.5C120.6,76.5,111.5,41.6,97.6,7.9z"/>
	<path id="XMLID_107_" class="st0" d="M11.9,311.7c41-1.6,79.7-13.1,117.9-27.1C89.3,288.7,50.3,299.2,11.9,311.7z"/>
	<path id="XMLID_108_" class="st0" d="M118.9,151.8C98.2,118.1,74.1,87,46.6,58.4C66.3,93,90,124.4,118.9,151.8z"/>
	<path id="XMLID_109_" class="st0" d="M131.7,315.7C98.1,335.8,69,361,45,392C74.6,367.4,106.3,345.1,131.7,315.7z"/>
	<path id="XMLID_110_" class="st0" d="M127.3,200.8c-34.4-6.7-68.9-12-104.1-9.6C57.2,201.9,91.9,204.7,127.3,200.8z"/>
	<path id="XMLID_111_" class="st0" d="M55.6,21.1c12.3,31.7,23.8,62.3,42.8,89.6C98.5,91.3,68.4,28,55.6,21.1z"/>
	<path id="XMLID_112_" class="st0" d="M117.6,164.7C80.8,149.5,43.9,134.3,7,119.1c-0.5,1.2-1,2.4-1.5,3.6
		c35.2,19.2,72,34.9,110.6,45.9C116.7,167.3,117.1,166,117.6,164.7z"/>
	<path id="XMLID_113_" class="st0" d="M14.9,328.9c22.1-0.2,101.2-23.7,111.7-33.6C87.5,305.4,50.1,313.2,14.9,328.9z"/>
	<path id="XMLID_114_" class="st0" d="M36,235.8c30.3,14.2,61.5,21.8,94.6,30.8C120.4,254.4,48.3,231.4,36,235.8z"/>
	<path id="XMLID_115_" class="st0" d="M152.1,100c0-26.1-3.4-51.8-11.4-76.9c-2.5,26.3-2.7,52.4,7.3,77.3
		C149.4,100.3,150.8,100.2,152.1,100z"/>
	<path id="XMLID_116_" class="st0" d="M128.5,186.1c-28.2-5.2-56.5-9.4-85.6-7c28,7.8,56.2,14.1,85.4,11.1
		C131,190,131.3,186.5,128.5,186.1z"/>
	<path id="XMLID_117_" class="st0" d="M155,152.5c7.9-12,15-83,8-94.8c-3.8,32.9-7.4,63.7-10.9,94.5C153,152.3,154,152.4,155,152.5z
		"/>
	<path id="XMLID_118_" class="st0" d="M126.4,337.7C109,359,96.9,383.1,90.3,409.9C107.1,388.2,119.6,364.4,126.4,337.7z"/>
	<path id="XMLID_119_" class="st0" d="M107.7,280c-0.1-1.1-0.1-2.1-0.2-3.2c-32.4,0.3-65.1-5.1-96.9,5.5c0.1,1,0.1,2,0.2,2.9
		C43.1,283.5,75.4,281.8,107.7,280z"/>
	<path id="XMLID_120_" class="st0" d="M87,164.7c-24.6-12.5-50-22.9-77.8-26.4C34.1,149.9,58.2,164.1,87,164.7z"/>
	<path id="XMLID_121_" class="st0" d="M44.1,262.3c13.3,9.3,67.3,14.4,78.3,7.5C96,264.1,70.3,260.5,44.1,262.3z"/>
	<path id="XMLID_122_" class="st0" d="M132.6,384.7c8.6-13.2,16.6-59.8,12.5-72.1C137.1,324.5,128.2,376.1,132.6,384.7z"/>
	<path id="XMLID_123_" class="st0" d="M49.6,350.5c25.1-13.4,50.3-26.8,75.4-40.2c-0.5-0.9-1-1.9-1.5-2.8c-27,9.8-53.3,21-75.3,40.2
		C48.6,348.6,49.1,349.5,49.6,350.5z"/>
	<path id="XMLID_124_" class="st0" d="M59.8,115.7c15,19.4,33,35,56.1,43.9c0.7-0.9,1.3-1.7,2-2.6c-18.7-14.5-37.5-29.1-56.2-43.6
		C61.1,114.2,60.5,114.9,59.8,115.7z"/>
	<path id="XMLID_125_" class="st0" d="M86.9,123.8c-4.7-10.3-45.1-48.4-52.3-49.8C41.7,89.4,74.8,121.2,86.9,123.8z"/>
	<path id="XMLID_126_" class="st0" d="M70.1,399.3c16.7-13,28.9-28.9,39.7-48.7C95.4,355.3,68.5,389.3,70.1,399.3z"/>
	<path id="XMLID_127_" class="st0" d="M89.8,336.8c-11.4,1.9-46.8,30.4-53,42.7C49.3,376.8,85.6,347.6,89.8,336.8z"/>
	<path id="XMLID_128_" class="st0" d="M4.1,354.7c22.9-8.9,46.6-16.2,66.5-31.5C46.2,329.1,23.5,338.4,4.1,354.7z"/>
	<path id="XMLID_129_" class="st0" d="M315.6,383.6c-7.1-5.2-14.7-9.7-23.1-15.2c-2.7,5.3-1.3,11.3,2.5,16.7
		c4.4,6.3,10,11.6,18.4,10.8c2.2-0.2,5.4-3.2,5.8-5.4C319.7,388.5,317.6,385,315.6,383.6z"/>
	<path id="XMLID_130_" class="st0" d="M63.9,126.9c-15.4-16-31.5-29.3-52.4-38.4C17,100.2,53.1,126.7,63.9,126.9z"/>
	<path id="XMLID_131_" class="st0" d="M270,380c2,1.6,4.8,2.3,7,3.7c5.4,3.6,7.7,0.1,10.1-4.4c0.1-4.7,0.5-9.9,0.1-14.9
		c-0.5-5.7-4.7-7.1-8.4-3.7c-4.5,4-7.9,9.3-11.2,14.3C266.9,375.9,268.6,378.9,270,380z"/>
	<path id="XMLID_132_" class="st0" d="M62,169.4c-15.3-9.9-32.4-11.7-50-11.4C27.5,167,44,171.4,62,169.4z"/>
	<path id="XMLID_133_" class="st0" d="M73.8,256.8c-16.5-8.1-34.1-11.8-52.4-12.3C38,252.6,55,258.5,73.8,256.8z"/>
	<path id="XMLID_134_" class="st0" d="M286.4,385.7c-2.5,10.4,3.8,22,12.2,23.3c2.3,0.4,5.6-1.3,7.4-3.1c0.9-0.9,0.2-5-1.2-6.2
		C299.2,395,293.1,390.8,286.4,385.7z"/>
	<path id="XMLID_135_" class="st0" d="M290.3,321.4c-5-0.5-10.4,3.3-15.6,5.3c-0.2,1-0.4,2.1-0.6,3.1c3.1,2.3,6.1,6.2,9.4,6.6
		c4.4,0.5,9.2-1.7,13.8-2.8C295,329.3,293.1,321.7,290.3,321.4z"/>
	<path id="XMLID_136_" class="st0" d="M249.1,361.7c-1.5,0.2-4.1,2.6-3.9,3.8c0.2,2,1.7,4.6,3.4,5.7c7.9,5,20.5-0.4,24.3-11.4
		c-4.7,0.9-8.2,1.8-11.8,2.1C257,362.1,253,361.3,249.1,361.7z"/>
	<path id="XMLID_137_" class="st0" d="M306.4,341C306.4,341,306.4,341,306.4,341C306.4,341.1,306.4,341.1,306.4,341L306.4,341
		L306.4,341L306.4,341L306.4,341C306.4,341,306.4,341,306.4,341C306.4,341,306.4,341,306.4,341z"/>
	<path id="XMLID_138_" class="st0" d="M322.3,344.3c-1.2-4.8-1.5-11-4.7-13.6c-2.7-2.2-8.9-0.3-13.5-0.3c0.8,3.5,1.5,7.1,2.3,10.6
		c3.6,1.7,7,3.8,10.7,5C318.6,346.4,322.4,344.4,322.3,344.3z"/>
	<path id="XMLID_139_" class="st0" d="M278.4,391.9c-5.3,8.3-6.1,15-1.4,21.2c1.7,2.2,5.7,2.5,8.7,3.7c1-3.2,3.5-7.1,2.5-9.6
		C286.3,402.2,282.4,397.9,278.4,391.9z"/>
	<path id="XMLID_140_" class="st0" d="M319.5,295.9c-5.1-0.1-10.3,2.9-15.5,4.6c2.2,3.4,4.4,6.9,7.6,11.8c5.3-2.1,9.3-3.7,13.3-5.3
		C323.1,303.2,321.3,295.9,319.5,295.9z"/>
	<path id="XMLID_141_" class="st0" d="M278.2,297.3c3.1,9.6,8.7,13,16.3,12.4c2.4-0.2,6.7-3.8,6.5-4.4c-1.3-3.3-3.3-8.1-5.9-8.8
		C290.2,295.4,284.8,296.8,278.2,297.3z"/>
	<path id="XMLID_142_" class="st0" d="M255.8,398.1c-1.9,1.6-1.5,5.8-2.2,8.9c3.1,0.4,6.9,2.1,9.1,0.9c6.6-3.5,9.6-9.6,9.4-19.5
		C265.6,392,260.1,394.4,255.8,398.1z"/>
	<path id="XMLID_143_" class="st0" d="M310.1,326c5.9-0.4,6.6-3.4,4.4-8.1c-3.1-6.4-10-7.6-20.8-3.4
		C296.5,322.6,302.5,326.5,310.1,326z"/>
	<path id="XMLID_144_" class="st0" d="M332.2,303.9c2.8,0,5.6-2.1,8.5-3.3c-1.3-2.8-1.8-6.6-4-8.3c-3.8-2.9-8.7-4.6-13.1-6.7
		c-0.7,1-1.5,2.1-2.2,3.1c1.6,3.6,2.8,7.4,4.9,10.7C327.5,301.4,330.2,303.9,332.2,303.9z"/>
	<path id="XMLID_145_" class="st0" d="M307.2,276.2c-0.3-0.7-0.6-1.3-0.9-2c-3.5,1.6-6.9,3.2-10.4,4.8c2.7,3.8,4.7,9.3,8.4,10.9
		c2.8,1.2,7.7-2.6,11.7-4.2c-1.7-2.7-3.3-5.4-5.3-7.9C310,276.9,308.4,276.7,307.2,276.2z"/>
	<path id="XMLID_146_" class="st0" d="M283.8,313c-1.7-2.9-6.2-7.3-7.6-6.8c-4.5,1.8-8.1,5.7-12.1,8.8c4.8,2.1,9.4,5.1,14.4,6
		C284,321.9,286.6,317.8,283.8,313z"/>
	<path id="XMLID_147_" class="st0" d="M264,315.1C264.1,315.1,264.1,315,264,315.1c0-0.1,0-0.1-0.1-0.1C264,315,264,315,264,315.1
		C264,315.1,264,315.1,264,315.1L264,315.1z"/>
	<path id="XMLID_148_" class="st0" d="M274.3,283.6c5,4.4,7.8,8,11.4,9.5c2.2,0.9,5.8-1.4,8.8-2.2c-1.6-4.6-3.3-9.3-4.9-13.9
		C285.3,278.9,281.1,280.7,274.3,283.6z"/>
	<path id="XMLID_149_" class="st0" d="M249.2,317.8c-0.8,1.4,4.7,7.3,8.1,9.9c1.7,1.3,5.4,0.1,8.2,0.1c-0.2-2.5-0.3-4.9-0.6-7.3
		c-0.2-1.8-0.6-3.6-1-5.4C258.4,312.9,252.4,312.3,249.2,317.8z"/>
	<path id="XMLID_150_" class="st0" d="M332.8,321.3c-4.2-1.5-9.2-0.9-15.2-1.3c1.7,8.6,6.4,11.7,12.2,12.3c2.6,0.3,5.5-1.9,8.2-3
		C336.4,326.5,335.2,322.1,332.8,321.3z"/>
	<path id="XMLID_151_" class="st0" d="M291.7,346.9c-1.6,4.2,7.2,8.7,15.1,8c0.6-0.1,1.2-0.8,2-1.4c-0.8-4.2-1.6-8.3-2.4-12.4
		C300.4,340.3,294.1,340.5,291.7,346.9z"/>
	<path id="XMLID_152_" class="st0" d="M262.4,384c-5.9-1.9-10.8-3.8-15.9-5.1c-1.5-0.4-4.1,0.2-4.9,1.3c-0.8,1.1-0.6,3.7,0.2,5.1
		C245.8,392.4,256.6,392.5,262.4,384z"/>
	<path id="XMLID_153_" class="st0" d="M243.4,352.8c3.2,6.5,15,7.2,20.6,1.1c-4.5-2.4-8.9-4.7-13.3-7c-0.5-0.3-1-0.8-1.4-0.7
		c-2,0.4-4.4,0.4-5.6,1.6C242.8,348.6,242.8,351.4,243.4,352.8z"/>
	<path id="XMLID_154_" class="st0" d="M263.3,344.6c1.8-0.1,4-2.4,4.9-4.2c0.5-1-0.8-4.1-1.9-4.5c-5.9-2.4-12-3.6-18.8,0.3
		C251.4,342.6,256.9,344.8,263.3,344.6z"/>
	<path id="XMLID_155_" class="st0" d="M324.8,350.1c-3.3-0.9-7.6,1.8-11.5,3c2.3,3.2,4.6,6.4,7.6,10.6c4.1-1.9,6.9-3.2,9.6-4.5
		C328.6,356.1,327.3,350.8,324.8,350.1z"/>
	<path id="XMLID_156_" class="st0" d="M334.5,307.2c-3.2,0.8-6.1,2.7-9.1,4.1c0,0.9-0.1,1.7-0.1,2.6c3,1.5,5.9,3.6,9,4.3
		c2.3,0.5,6.4-0.3,7.3-1.8c1.4-2.4,0.7-6,0.9-9.1C339.9,307.2,337.1,306.5,334.5,307.2z"/>
	<path id="XMLID_157_" class="st0" d="M304.1,366.2c2.6,3,4.6,7.4,7.8,8.7c2.6,1,6.7-1.7,10.1-2.8c-1.1-2.5-2.2-5.1-3.7-8.6
		C312.7,364.6,308.4,365.4,304.1,366.2z"/>
	<path id="XMLID_158_" class="st0" d="M257.9,309.8c1.9,1.1,5.5-0.9,10.2-2c-2.1-5.2-3.4-8.3-4.7-11.4c-3.9,1.8-7.7,3.6-11.6,5.3
		C253.8,304.5,255.2,308.3,257.9,309.8z"/>
	<path id="XMLID_159_" class="st0" d="M286,351.9c1.5-1.5,1.4-6.3,0.1-8.4c-4.7-7.4-10-1.4-16-0.3
		C274.3,350.8,282.7,355.3,286,351.9z"/>
	<path id="XMLID_160_" class="st0" d="M268.4,294.2c0.5,0.6,5.9-2,5.8-2.5c-0.5-3.4-2-6.6-3.8-11.6c6.9,3.1,10.1-4.6,16.6-6.7
		c-6.7-6.2-12.4-6.6-18.4-3.5c-5,2.6-5,5.7-0.4,8.9c0.7,0.5,1.3,0.9,2,1.2c-4.2,2.3-6.4,3.4-8.6,4.6
		C263.7,287.9,265.7,291.4,268.4,294.2z"/>
	<path id="XMLID_161_" class="st0" d="M323.5,337.3c2.7,2.9,5.5,5.8,8.2,8.8c1.4-2.6,2.8-5.2,4.3-7.8c-3.2-1.6-6.4-3.2-9.6-4.9
		C325.4,334.7,324.4,336,323.5,337.3z"/>
	<path id="XMLID_162_" class="st0" d="M344.2,246c-0.2,0-2.8,0-2.9,0c-4.6,0.3-5.6,0-9.4,1.2c-14.2,4.4-28.5,5.4-42.8,0.7
		c-13.1-4.3-26.1-4.1-39.7-1.8c-14.7,2.5-29.8,2.3-44.7,3.6c-3.9,0.3-7.9,1.6-11.5,3.1c-15.7,6.7-30.3,16.5-48.1,17.8
		c-1.2,0.1-2.2,3.6-3.2,5.5c8.2,3.4,3.9,9,3,12.5c-0.9,2.7-1.5,3.7-1.5,4.7c0.1,3.1,0.4,6.2,0.7,9.3c2.5-2.1,5.3-4.1,7.5-6.5
		c3.7-4,6.1-10,10.6-12.4c13.9-7.5,28.5-13.7,42.9-20.4c7.7-3.6,15.5-3.2,23.6-0.7c3.3,1,7.4,0.9,10.8,0c8.5-2.2,16.9-5.2,25.4-7.6
		c1.9-0.5,4.3-0.3,6.3,0.1c6.4,1.6,13,3,19.2,5.3c4.3,1.6,8.7,3.9,11.9,7c5.4,5.4,11.4,5.8,16.9,0.6c3-2.9,6.6-5.2,10.4-6.8
		c3-1.3,6.1-2.7,9.2-3.2c0.2,0,0.4,0,0.6,0h11v-12H344.2z"/>
</g>
</svg>
