<?xml version="1.0" encoding="utf-8"?>
<!-- Generator: Adobe Illustrator 19.0.0, SVG Export Plug-In . SVG Version: 6.00 Build 0)  -->
<svg version="1.1" id="Layer_1" xmlns="http://www.w3.org/2000/svg" xmlns:xlink="http://www.w3.org/1999/xlink" x="0px" y="0px"
	 viewBox="0 0 350 500" style="enable-background:new 0 0 350 500;" xml:space="preserve">
<style type="text/css">
	.st0{fill:#9C8214;}
</style>
<g id="XMLID_42_">
	<path id="XMLID_43_" class="st0" d="M773.1,167.4c0.8-0.7,1.8-0.9,2.8-0.5c1.3,0.5,2.3,0.8,3.3,1.2c1.4,0.5,2.1,1.9,1.7,3.3
		c-0.4,1.4-0.8,2.8-1.7,3.6c-3.2,2.8-7.4,7.2-10.4,10.1c-2.1,2.1-4.1,5.8-3.9,8.6c0.7,9.7-0.8,12.9-10.1,16.2
		c-2.3,0.8-5.4,1-6.6,2.7c-8.9,11.1-21,17.6-32.6,25.2c-12.1,8-24.7,7.2-37.6,6.8c-1,0-1.9-1.1-2.8-2.3c-1-1.3-0.6-3.1,0.7-4
		c0.8-0.5,1.7-1,2.5-1.3c13.2-4.8,26.6-9.2,39.8-14.2c3.6-1.4,7-4.2,9.7-7.1c9.2-9.4,17.8-19.3,27-28.7
		C760.7,181.1,766.8,173,773.1,167.4z"/>
	<path id="XMLID_104_" class="st0" d="M781.7,149.1c14.4-41.4,28.8-82.8,43.2-124.2c1,0.3,1.9,0.7,2.9,1
		c-9,43.3-19.1,86.2-42.7,124.4C784,149.8,782.8,149.5,781.7,149.1z"/>
	<path id="XMLID_105_" class="st0" d="M791.4,29.5c2.2,18.4-16.7,113.7-23.9,122.4C769.3,109.9,777.9,69.2,791.4,29.5z"/>
	<path id="XMLID_106_" class="st0" d="M814.5,7.9c-3.4,36.4-9,72.3-28.6,104.5C791.5,76.5,800.6,41.6,814.5,7.9z"/>
	<path id="XMLID_107_" class="st0" d="M900.3,311.7c-41.1-1.6-79.8-13.1-117.9-27.1C822.9,288.7,861.8,299.2,900.3,311.7z"/>
	<path id="XMLID_108_" class="st0" d="M793.3,151.8C814,118.1,838,87,865.6,58.4C845.9,93,822.2,124.4,793.3,151.8z"/>
	<path id="XMLID_109_" class="st0" d="M780.4,315.7c33.6,20,62.7,45.3,86.7,76.3C837.5,367.4,805.9,345.1,780.4,315.7z"/>
	<path id="XMLID_110_" class="st0" d="M784.8,200.8c34.4-6.7,68.9-12,104.2-9.6C855,201.9,820.2,204.7,784.8,200.8z"/>
	<path id="XMLID_111_" class="st0" d="M856.6,21.1c-12.3,31.7-23.8,62.3-42.8,89.6C813.6,91.3,843.8,28,856.6,21.1z"/>
	<path id="XMLID_112_" class="st0" d="M794.5,164.7c36.9-15.2,73.8-30.4,110.6-45.6c0.5,1.2,1,2.4,1.5,3.6
		c-35.3,19.2-72,34.9-110.7,45.9C795.5,167.3,795,166,794.5,164.7z"/>
	<path id="XMLID_113_" class="st0" d="M897.3,328.9c-22.2-0.2-101.3-23.7-111.7-33.6C824.7,305.4,862.1,313.2,897.3,328.9z"/>
	<path id="XMLID_114_" class="st0" d="M876.2,235.8c-30.3,14.2-61.5,21.8-94.6,30.8C791.8,254.4,863.9,231.4,876.2,235.8z"/>
	<path id="XMLID_115_" class="st0" d="M760,100c0-26.1,3.4-51.8,11.4-76.9c2.5,26.3,2.7,52.4-7.3,77.3
		C762.7,100.3,761.3,100.2,760,100z"/>
	<path id="XMLID_116_" class="st0" d="M783.6,186.1c28.2-5.2,56.6-9.4,85.6-7c-28,7.8-56.2,14.1-85.4,11.1
		C781.1,190,780.9,186.5,783.6,186.1z"/>
	<path id="XMLID_117_" class="st0" d="M757.1,152.5c-7.9-12-15.1-83-8-94.8c3.8,32.9,7.4,63.7,10.9,94.5
		C759.1,152.3,758.1,152.4,757.1,152.5z"/>
	<path id="XMLID_118_" class="st0" d="M785.7,337.7c17.4,21.3,29.5,45.4,36.2,72.2C805.1,388.2,792.6,364.4,785.7,337.7z"/>
	<path id="XMLID_119_" class="st0" d="M804.5,280c0.1-1.1,0.1-2.1,0.2-3.2c32.4,0.3,65.1-5.1,96.9,5.5c-0.1,1-0.1,2-0.2,2.9
		C869.1,283.5,836.8,281.8,804.5,280z"/>
	<path id="XMLID_120_" class="st0" d="M825.2,164.7c24.7-12.5,50-22.9,77.9-26.4C878.1,149.9,854,164.1,825.2,164.7z"/>
	<path id="XMLID_121_" class="st0" d="M868.1,262.3c-13.4,9.3-67.3,14.4-78.4,7.5C816.2,264.1,841.8,260.5,868.1,262.3z"/>
	<path id="XMLID_122_" class="st0" d="M779.5,384.7c-8.6-13.2-16.6-59.8-12.5-72.1C775,324.5,783.9,376.1,779.5,384.7z"/>
	<path id="XMLID_123_" class="st0" d="M862.6,350.5c-25.1-13.4-50.3-26.8-75.4-40.2c0.5-0.9,1-1.9,1.5-2.8c27,9.8,53.3,21,75.3,40.2
		C863.5,348.6,863.1,349.5,862.6,350.5z"/>
	<path id="XMLID_124_" class="st0" d="M852.3,115.7c-15,19.4-33,35-56.2,43.9c-0.7-0.9-1.3-1.7-2-2.6c18.8-14.5,37.5-29.1,56.3-43.6
		C851,114.2,851.7,114.9,852.3,115.7z"/>
	<path id="XMLID_125_" class="st0" d="M825.3,123.8c4.7-10.3,45.2-48.4,52.3-49.8C870.5,89.4,837.4,121.2,825.3,123.8z"/>
	<path id="XMLID_126_" class="st0" d="M842.1,399.3c-16.7-13-28.9-28.9-39.7-48.7C816.7,355.3,843.6,389.3,842.1,399.3z"/>
	<path id="XMLID_127_" class="st0" d="M822.3,336.8c11.4,1.9,46.9,30.4,53,42.7C862.8,376.8,826.6,347.6,822.3,336.8z"/>
	<path id="XMLID_128_" class="st0" d="M908.1,354.7c-22.9-8.9-46.6-16.2-66.5-31.5C865.9,329.1,888.7,338.4,908.1,354.7z"/>
	<path id="XMLID_129_" class="st0" d="M596.4,383.6c7.1-5.2,14.7-9.7,23.1-15.2c2.7,5.3,1.3,11.3-2.5,16.7
		c-4.4,6.3-10,11.6-18.4,10.8c-2.2-0.2-5.4-3.2-5.8-5.4C592.4,388.5,594.4,385,596.4,383.6z"/>
	<path id="XMLID_130_" class="st0" d="M848.3,126.9c15.4-16,31.5-29.3,52.4-38.4C895.2,100.2,859.1,126.7,848.3,126.9z"/>
	<path id="XMLID_131_" class="st0" d="M642.1,380c-2,1.6-4.8,2.3-7,3.7c-5.4,3.6-7.7,0.1-10.1-4.4c-0.1-4.7-0.5-9.9-0.1-14.9
		c0.5-5.7,4.7-7.1,8.5-3.7c4.5,4,7.9,9.3,11.2,14.3C645.1,375.9,643.5,378.9,642.1,380z"/>
	<path id="XMLID_132_" class="st0" d="M850.2,169.4c15.3-9.9,32.4-11.7,50-11.4C884.7,167,868.1,171.4,850.2,169.4z"/>
	<path id="XMLID_133_" class="st0" d="M838.4,256.8c16.5-8.1,34.2-11.8,52.4-12.3C874.2,252.6,857.2,258.5,838.4,256.8z"/>
	<path id="XMLID_134_" class="st0" d="M625.6,385.7c2.5,10.4-3.8,22-12.3,23.3c-2.3,0.4-5.6-1.3-7.4-3.1c-0.9-0.9-0.2-5,1.2-6.2
		C612.8,395,618.9,390.8,625.6,385.7z"/>
	<path id="XMLID_135_" class="st0" d="M621.7,321.4c5-0.5,10.4,3.3,15.7,5.3c0.2,1,0.4,2.1,0.6,3.1c-3.1,2.3-6.1,6.2-9.5,6.6
		c-4.4,0.5-9.2-1.7-13.8-2.8C617,329.3,619,321.7,621.7,321.4z"/>
	<path id="XMLID_136_" class="st0" d="M663,361.7c1.5,0.2,4.1,2.6,3.9,3.8c-0.2,2-1.7,4.6-3.4,5.7c-7.9,5-20.5-0.4-24.3-11.4
		c4.7,0.9,8.2,1.8,11.8,2.1C655,362.1,659.1,361.3,663,361.7z"/>
	<path id="XMLID_137_" class="st0" d="M605.7,341C605.7,341,605.6,341,605.7,341C605.6,341.1,605.6,341.1,605.7,341L605.7,341
		L605.7,341L605.7,341L605.7,341C605.6,341,605.6,341,605.7,341C605.6,341,605.6,341,605.7,341z"/>
	<path id="XMLID_138_" class="st0" d="M589.7,344.3c1.2-4.8,1.5-11,4.7-13.6c2.7-2.2,8.9-0.3,13.5-0.3c-0.8,3.5-1.5,7.1-2.3,10.6
		c-3.6,1.7-7,3.8-10.7,5C593.4,346.4,589.6,344.4,589.7,344.3z"/>
	<path id="XMLID_139_" class="st0" d="M633.6,391.9c5.3,8.3,6.1,15,1.4,21.2c-1.7,2.2-5.7,2.5-8.7,3.7c-1-3.2-3.5-7.1-2.5-9.6
		C625.8,402.2,629.6,397.9,633.6,391.9z"/>
	<path id="XMLID_140_" class="st0" d="M592.6,295.9c5.1-0.1,10.3,2.9,15.5,4.6c-2.2,3.4-4.5,6.9-7.6,11.8c-5.3-2.1-9.3-3.7-13.3-5.3
		C588.9,303.2,590.7,295.9,592.6,295.9z"/>
	<path id="XMLID_141_" class="st0" d="M633.8,297.3c-3.1,9.6-8.7,13-16.3,12.4c-2.4-0.2-6.7-3.8-6.5-4.4c1.3-3.3,3.3-8.1,5.9-8.8
		C621.8,295.4,627.3,296.8,633.8,297.3z"/>
	<path id="XMLID_142_" class="st0" d="M656.3,398.1c1.9,1.6,1.5,5.8,2.2,8.9c-3.1,0.4-6.9,2.1-9.1,0.9c-6.6-3.5-9.6-9.6-9.4-19.5
		C646.5,392,651.9,394.4,656.3,398.1z"/>
	<path id="XMLID_143_" class="st0" d="M601.9,326c-5.9-0.4-6.6-3.4-4.4-8.1c3.1-6.4,10-7.6,20.8-3.4
		C615.6,322.6,609.6,326.5,601.9,326z"/>
	<path id="XMLID_144_" class="st0" d="M579.8,303.9c-2.8,0-5.6-2.1-8.5-3.3c1.3-2.8,1.8-6.6,4-8.3c3.8-2.9,8.7-4.6,13.1-6.7
		c0.7,1,1.5,2.1,2.2,3.1c-1.6,3.6-2.8,7.4-4.9,10.7C584.5,301.4,581.9,303.9,579.8,303.9z"/>
	<path id="XMLID_145_" class="st0" d="M604.8,276.2c0.3-0.7,0.6-1.3,0.9-2c3.5,1.6,6.9,3.2,10.4,4.8c-2.7,3.8-4.7,9.3-8.4,10.9
		c-2.8,1.2-7.7-2.6-11.7-4.2c1.7-2.7,3.3-5.4,5.3-7.9C602,276.9,603.6,276.7,604.8,276.2z"/>
	<path id="XMLID_146_" class="st0" d="M628.3,313c1.7-2.9,6.2-7.3,7.6-6.8c4.5,1.8,8.1,5.7,12.1,8.8c-4.8,2.1-9.4,5.1-14.4,6
		C628.1,321.9,625.4,317.8,628.3,313z"/>
	<path id="XMLID_147_" class="st0" d="M648,315.1C648,315.1,648,315,648,315.1c0-0.1,0-0.1,0.1-0.1C648.1,315,648.1,315,648,315.1
		C648,315.1,648,315.1,648,315.1L648,315.1z"/>
	<path id="XMLID_148_" class="st0" d="M637.8,283.6c-5,4.4-7.8,8-11.4,9.5c-2.2,0.9-5.8-1.4-8.8-2.2c1.6-4.6,3.3-9.3,4.9-13.9
		C626.7,278.9,630.9,280.7,637.8,283.6z"/>
	<path id="XMLID_149_" class="st0" d="M662.8,317.8c0.8,1.4-4.7,7.3-8.1,9.9c-1.7,1.3-5.4,0.1-8.3,0.1c0.2-2.5,0.3-4.9,0.6-7.3
		c0.2-1.8,0.6-3.6,1-5.4C653.6,312.9,659.6,312.3,662.8,317.8z"/>
	<path id="XMLID_150_" class="st0" d="M579.2,321.3c4.2-1.5,9.2-0.9,15.2-1.3c-1.7,8.6-6.4,11.7-12.2,12.3c-2.6,0.3-5.5-1.9-8.2-3
		C575.6,326.5,576.8,322.1,579.2,321.3z"/>
	<path id="XMLID_151_" class="st0" d="M620.3,346.9c1.6,4.2-7.2,8.7-15.1,8c-0.6-0.1-1.2-0.8-2-1.4c0.8-4.2,1.6-8.3,2.4-12.4
		C611.6,340.3,617.9,340.5,620.3,346.9z"/>
	<path id="XMLID_152_" class="st0" d="M649.6,384c5.9-1.9,10.8-3.8,15.9-5.1c1.5-0.4,4.1,0.2,4.9,1.3c0.8,1.1,0.6,3.7-0.2,5.1
		C666.3,392.4,655.5,392.5,649.6,384z"/>
	<path id="XMLID_153_" class="st0" d="M668.6,352.8c-3.2,6.5-15,7.2-20.6,1.1c4.5-2.4,8.9-4.7,13.3-7c0.5-0.3,1-0.8,1.4-0.7
		c2,0.4,4.4,0.4,5.7,1.6C669.3,348.6,669.3,351.4,668.6,352.8z"/>
	<path id="XMLID_154_" class="st0" d="M648.8,344.6c-1.8-0.1-4-2.4-4.9-4.2c-0.5-1,0.8-4.1,1.9-4.5c5.9-2.4,12.1-3.6,18.8,0.3
		C660.6,342.6,655.1,344.8,648.8,344.6z"/>
	<path id="XMLID_155_" class="st0" d="M587.2,350.1c3.3-0.9,7.6,1.8,11.5,3c-2.3,3.2-4.6,6.4-7.6,10.6c-4.1-1.9-6.9-3.2-9.6-4.5
		C583.4,356.1,584.7,350.8,587.2,350.1z"/>
	<path id="XMLID_156_" class="st0" d="M577.5,307.2c3.2,0.8,6.1,2.7,9.1,4.1c0,0.9,0.1,1.7,0.1,2.6c-3,1.5-5.9,3.6-9,4.3
		c-2.3,0.5-6.4-0.3-7.3-1.8c-1.4-2.4-0.7-6-0.9-9.1C572.1,307.2,575,306.5,577.5,307.2z"/>
	<path id="XMLID_157_" class="st0" d="M607.9,366.2c-2.6,3-4.6,7.4-7.8,8.7c-2.6,1-6.7-1.7-10.1-2.8c1.1-2.5,2.2-5.1,3.7-8.6
		C599.3,364.6,603.6,365.4,607.9,366.2z"/>
	<path id="XMLID_158_" class="st0" d="M654.1,309.8c-1.9,1.1-5.5-0.9-10.2-2c2.1-5.2,3.4-8.3,4.7-11.4c3.9,1.8,7.7,3.6,11.6,5.3
		C658.2,304.5,656.8,308.3,654.1,309.8z"/>
	<path id="XMLID_159_" class="st0" d="M626.1,351.9c-1.5-1.5-1.4-6.3-0.1-8.4c4.7-7.4,10-1.4,16-0.3
		C637.7,350.8,629.3,355.3,626.1,351.9z"/>
	<path id="XMLID_160_" class="st0" d="M643.7,294.2c-0.5,0.6-5.9-2-5.8-2.5c0.5-3.4,2-6.6,3.8-11.6c-6.9,3.1-10.1-4.6-16.6-6.7
		c6.7-6.2,12.4-6.6,18.4-3.5c5,2.6,5,5.7,0.4,8.9c-0.7,0.5-1.3,0.9-2,1.2c4.2,2.3,6.4,3.4,8.6,4.6
		C648.3,287.9,646.4,291.4,643.7,294.2z"/>
	<path id="XMLID_161_" class="st0" d="M588.6,337.3c-2.7,2.9-5.5,5.8-8.2,8.8c-1.4-2.6-2.9-5.2-4.3-7.8c3.2-1.6,6.4-3.2,9.6-4.9
		C586.6,334.7,587.6,336,588.6,337.3z"/>
	<path id="XMLID_162_" class="st0" d="M567.8,246c0.2,0,2.8,0,2.9,0c4.6,0.3,5.6,0,9.4,1.2c14.3,4.4,28.6,5.4,42.8,0.7
		c13.1-4.3,26.1-4.1,39.7-1.8c14.7,2.5,29.8,2.3,44.8,3.6c3.9,0.3,7.9,1.6,11.5,3.1c15.7,6.7,30.3,16.5,48.1,17.8
		c1.2,0.1,2.2,3.6,3.2,5.5c-8.2,3.4-4,9-3,12.5c0.9,2.7,1.5,3.7,1.5,4.7c-0.1,3.1-0.4,6.2-0.7,9.3c-2.5-2.1-5.3-4.1-7.5-6.5
		c-3.7-4-6.1-10-10.6-12.4c-13.9-7.5-28.5-13.7-42.9-20.4c-7.7-3.6-15.5-3.2-23.6-0.7c-3.3,1-7.4,0.9-10.8,0
		c-8.5-2.2-16.9-5.2-25.4-7.6c-1.9-0.5-4.3-0.3-6.3,0.1c-6.5,1.6-13,3-19.2,5.3c-4.3,1.6-8.7,3.9-11.9,7c-5.4,5.4-11.4,5.8-16.9,0.6
		c-3-2.9-6.6-5.2-10.4-6.8c-3-1.3-6.1-2.7-9.2-3.2c-0.2,0-0.4,0-0.6,0h-11v-12H567.8z"/>
</g>
<g id="XMLID_96_">
	<path id="XMLID_879_" class="st0" d="M144.8,225.6c2.2,4.6,0.5,7.4-2.4,8.6c-6.2,2.5-12.6,5.4-19.1,6.2
		c-21.1,2.5-42.3,3.9-63.3,6.3c-4.2,0.5-7.9,3.6-12,5.1c-4.8,1.8-9.4,5.2-15,1c-1.8-1.4-5.2-1.3-7.7-0.9c-6.2,0.9-12.2,2.6-18.4,3.6
		C6,255.5,0,255.8,0,255.8v-11.2c0,0,5.7,0.1,6.3,0.1c3.9-0.1,7.9,0,11.8,0.1c8.9,0.1,17.7-0.1,26.3-3.4c4.7-1.8,10.1-1.7,15.2-2.5
		c5.7-0.9,11.5-2.1,17.2-3c3-0.5,6-0.9,9-0.7c16.7,1.1,33.3,1.4,49.1-5C138.2,228.9,141.3,227.2,144.8,225.6z"/>
	<path id="XMLID_877_" class="st0" d="M135.1,305.6c-2.4-0.4-4.8-0.6-7-1.4c-5.6-2-11.3-3.8-16.5-6.7c-6.7-3.8-13-8.4-19.2-13.2
		c-6.1-4.8-11.8-9.6-19.9-5.2c-0.8,0.4-3.5-0.9-3.8-1.9c-2.4-8.2-9.3-11.2-15.4-14.9c-2.8-1.7-4.9-3.1-3.2-6.9
		c1.7-3.8,4.5-2.7,6.8-1.5c10,5.5,19.9,11.4,29.8,17c3.5,2,6.9,4.1,10.5,5.7c4.8,2,8.9,4.2,11.7,9.3c1.4,2.6,4.9,4.2,7.7,5.8
		c6.3,3.8,12.8,7.4,19.2,11C135.6,303.9,135.3,304.8,135.1,305.6z"/>
	<path id="XMLID_876_" class="st0" d="M109.4,303c5.9-0.9,8.4,1.4,10,5.3c2.2,5.4,4.8,10.6,6.6,16.1c0.9,2.8,1.2,6.4,0.4,9.2
		c-1.2,4.1-0.9,7.6,1.1,11.2c8,14.4,8.8,29.9,4.6,45.1c-1.6,5.6-5.6,10.6-6.8,16.8c-0.1,0.6-3.1,1.4-3.4,0.9
		c-1.1-1.4-2.5-3.5-2.2-4.9c0.8-4.2,2.5-8.1,3.7-12.2c4.9-16.3,5.6-32.2-4.1-47.4c-3.2-5-4.7-9.7-2.1-15.7
		c2.5-5.7-1.1-10.8-3.5-15.9C112.4,308.9,111,306.2,109.4,303z"/>
	<path id="XMLID_872_" class="st0" d="M239,170.3c-6.3,8.4-76.4,50.6-83.8,50.3C181,198.7,209.5,183.6,239,170.3z"/>
	<path id="XMLID_866_" class="st0" d="M102.6,490.6c8.5-24.1,18.5-47.7,20.4-74.9C133.4,428.4,117.4,475.8,102.6,490.6z"/>
	<path id="XMLID_840_" class="st0" d="M157.5,228.8c29.9-10.8,60.5-14.4,91.9-9c0.1,0.6,0.1,1.1,0.2,1.7c-4.8,0.5-9.6,1.7-14.3,1.5
		c-25.7-1.1-51,1.9-76.2,6.1C158.5,229,158,228.8,157.5,228.8z"/>
	<path id="XMLID_839_" class="st0" d="M86.9,444.1c7.1-7.5,14-15,21.3-22.3c2.4-2.4,5.5-4.2,8.6-5.5C100,439,83.1,461.7,65.4,485.5
		c2-4.7,3.2-8.6,5.1-12c4.7-8.3,9.7-16.3,14.5-24.5C85.9,447.5,86.3,445.7,86.9,444.1L86.9,444.1z"/>
	<path id="XMLID_833_" class="st0" d="M142.6,222.7c-2.3-14.8,6.9-57.6,19.3-68.3c-5.9,22.9-11.8,45.8-17.7,68.6
		C143.6,222.9,143.1,222.8,142.6,222.7z"/>
	<path id="XMLID_832_" class="st0" d="M184.7,151.4c-3.6,15.4-23.1,58.5-33.1,62.5C161.5,192.5,169.7,170,184.7,151.4z"/>
	<path id="XMLID_829_" class="st0" d="M108.1,416.6C86.6,429,73,450,55.9,468.4C55.8,452.7,92.4,416.7,108.1,416.6z"/>
	<path id="XMLID_822_" class="st0" d="M205.6,256.4c-19.8-2.7-37.9-7.4-57-12.6C159,237.2,195.2,245.2,205.6,256.4z"/>
	<path id="XMLID_819_" class="st0" d="M194.1,162.7c-3.4,6.5-6.5,13.1-10.2,19.4c-4.2,7.2-8.8,14.2-13.4,21.2
		c-0.9,1.4-2.4,2.3-4.5,2.7c9.7-18,15.4-38.4,28.7-54.1c0.5,0.2,1,0.4,1.5,0.6C195.4,155.9,194.7,159.4,194.1,162.7L194.1,162.7z"/>
	<path id="XMLID_815_" class="st0" d="M224.9,242.8c-24-1.6-46.6-3.2-69.6-4.8C163.1,231.3,212,234.3,224.9,242.8z"/>
	<path id="XMLID_813_" class="st0" d="M110.1,410.1c-17.5,7.7-34.9,15.3-52.4,23c-0.3-0.7-0.6-1.3-0.8-2
		c15.1-13.5,32.7-21,52.7-22.7C109.7,408.9,109.9,409.5,110.1,410.1z"/>
	<path id="XMLID_809_" class="st0" d="M192.1,391c-8.6-23.3-17.5-46.4-35.7-65.7C173.1,331.1,194.4,372.6,192.1,391z"/>
	<path id="XMLID_807_" class="st0" d="M216.4,148.8c-9.7,18.7-19.5,36-34.5,50.4C181.7,191.3,208.6,151.8,216.4,148.8z"/>
	<path id="XMLID_805_" class="st0" d="M116.2,431.3c-2.3,21-10,39.7-21.5,56.8C99.2,468,107.5,449.6,116.2,431.3z"/>
	<path id="XMLID_800_" class="st0" d="M121.5,476.7c4.9-20.9,8.1-42,6-65.1C136.7,425.1,133.7,460.6,121.5,476.7z"/>
	<path id="XMLID_780_" class="st0" d="M141.7,470.1c-2.3-18.9-4.6-37.8-6.9-56.8C142.7,417.1,148.7,457.8,141.7,470.1z"/>
	<path id="XMLID_777_" class="st0" d="M181.2,298.8c-10,3.7-19.9,7.5-29.9,11.1c-1.7,0.6-3.7,0.5-5.7,0.1
		c16.8-8.8,33.5-17.6,50.3-26.5c0.4,0.4,0.7,0.8,1.1,1.3C191.8,289.5,186.5,294.2,181.2,298.8L181.2,298.8z"/>
	<path id="XMLID_774_" class="st0" d="M83.7,490.8c5.8-17.8,12.8-35,22.5-50.9C103.5,459.3,95.9,476.2,83.7,490.8z"/>
	<path id="XMLID_772_" class="st0" d="M173.2,383.7c-6.8-18.9-13.5-37.2-19.9-55.2C162.7,332.3,176.7,369.4,173.2,383.7z"/>
	<path id="XMLID_767_" class="st0" d="M180.9,215.4c20-5.6,40.5-5.9,61.2-5.1c0.1,0.8,0.2,1.6,0.2,2.4c-20.4,1.8-40.8,3.7-61.2,5.5
		C181.1,217.3,181,216.3,180.9,215.4z"/>
	<path id="XMLID_766_" class="st0" d="M174.4,330.7c20.4,2.5,40.2,5,59,7.3C222.3,344.2,187,340.9,174.4,330.7z"/>
	<path id="XMLID_764_" class="st0" d="M175,229.2c21.3-3.6,42.7-6.7,63.5,4.4C217.3,232.2,196.2,230.7,175,229.2z"/>
	<path id="XMLID_760_" class="st0" d="M186.8,273.3c-4.3,12.7-29.5,28.9-42.5,27.4C158.7,291.4,172.1,282.7,186.8,273.3z"/>
	<path id="XMLID_757_" class="st0" d="M61.4,391c18.2,0.6,36,1.1,53.9,1.6C110.2,399.5,69.3,399.6,61.4,391z"/>
	<path id="XMLID_754_" class="st0" d="M192.3,342c16.5,3.3,32.1,6.4,48,9.6C232,358.8,203.8,353.3,192.3,342z"/>
	<path id="XMLID_753_" class="st0" d="M156.3,378.9c-4.1-19.5-7.9-37.4-11.6-54.9C154.7,333.1,162.1,364.7,156.3,378.9z"/>
	<path id="XMLID_749_" class="st0" d="M167.6,323.2c19.3-3,38.1-5.9,56.3-8.7C218.1,323,183,329,167.6,323.2z"/>
	<path id="XMLID_737_" class="st0" d="M195.8,205.1c15.1-8.5,31.4-12.4,48.7-12.7c0.1,0.5,0.3,1.1,0.4,1.6
		c-16.1,4.6-32.2,9.1-48.3,13.7C196.3,206.8,196,206,195.8,205.1z"/>
	<path id="XMLID_736_" class="st0" d="M163.7,448c-12.9-13.5-17.1-32.3-27.1-47.5C150.1,413.6,157.8,430.3,163.7,448z"/>
	<path id="XMLID_734_" class="st0" d="M67.5,402.6c15.3-0.7,30.7-1.3,46-2C105.9,408,75.3,409.6,67.5,402.6z"/>
	<path id="XMLID_730_" class="st0" d="M71.5,492.9c5.1-16.9,13.1-32.1,23.9-45.7c0.7,0.4,1.3,0.8,2,1.2c-7.8,15.3-15.7,30.7-23.5,46
		C73.1,493.9,72.3,493.4,71.5,492.9z"/>
	<path id="XMLID_728_" class="st0" d="M182.2,345.8c12.8,4.8,28.3,28,27.6,42.3C201,374.5,191.5,359.9,182.2,345.8z"/>
	<path id="XMLID_723_" class="st0" d="M229,153.9c-8.5,13.4-18.7,25.1-31.7,34C205,173.7,215.9,162.6,229,153.9z"/>
	<path id="XMLID_720_" class="st0" d="M205.9,298.8c-13.9,10.7-29.6,15.6-47.3,14.4c15.6-5.3,31.1-10.5,46.7-15.8
		C205.5,297.8,205.7,298.3,205.9,298.8z"/>
	<path id="XMLID_719_" class="st0" d="M134.4,296.5c12.7-9.7,24.2-18.6,36-27.7C169,279.2,147.1,296.5,134.4,296.5z"/>
	<path id="XMLID_716_" class="st0" d="M197.7,354.8c11.2,3.2,26.1,27.2,24.2,38.8C213.9,380.7,205.9,367.9,197.7,354.8z"/>
	<path id="XMLID_710_" class="st0" d="M136.1,319.6c7.4,10.7,10.3,37.6,4.7,49C139.3,352.8,137.8,337,136.1,319.6z"/>
	<path id="XMLID_708_" class="st0" d="M87,444c-3.8,5-7.7,10.1-11.5,15.1c-4.9,6.6-9.8,13.3-15.4,19.3c5.9-15.3,14.6-28.4,27.4-40.5
		C87.2,441.1,87.1,442.6,87,444L87,444z"/>
	<path id="XMLID_705_" class="st0" d="M186.8,359.9c10.7,5.5,19.9,27.3,16.4,38.7C197.7,385.5,192.5,373.2,186.8,359.9z"/>
	<path id="XMLID_702_" class="st0" d="M122.1,385.5c-9.5,6.1-36.2,3.9-42.9-3.4C93.6,383.2,107.1,384.3,122.1,385.5z"/>
	<path id="XMLID_693_" class="st0" d="M177.5,316.3c13.6-4.7,25.8-8.9,38.6-13.3C210.9,312.2,188.6,320.3,177.5,316.3z"/>
	<path id="XMLID_692_" class="st0" d="M209.2,357.8c8,0.1,25.5,15.7,29,26.9c-10.7-9.2-20.3-17.4-29.9-25.6
		C208.6,358.7,208.9,358.2,209.2,357.8z"/>
	<path id="XMLID_690_" class="st0" d="M52.7,452.6c2.9-9.6,16.4-21.7,26.3-23.3C71.3,439.6,62.5,446.6,52.7,452.6z"/>
	<path id="XMLID_685_" class="st0" d="M194,162.8c2.5-4.3,4.7-8.7,7.4-12.8c1.4-2.1,3.7-3.5,6.3-4.6c-3.2,11.5-9.5,20.8-15.8,30.1
		c-0.6-0.3-1.2-0.6-1.8-0.8C191.5,170.7,192.8,166.7,194,162.8L194,162.8z"/>
	<path id="XMLID_684_" class="st0" d="M160.2,182.4c0-11.4,3.2-21.7,9.5-30.8C171.3,163.6,166.7,173.3,160.2,182.4z"/>
	<path id="XMLID_683_" class="st0" d="M168.7,348.7c10.3,11.7,15.4,25,14.2,42C177.9,375.8,173.3,362.3,168.7,348.7z"/>
	<path id="XMLID_677_" class="st0" d="M156.7,414.3c-8.5-7.8-14.4-16-18-26.3C145.5,389.6,156.1,404.7,156.7,414.3z"/>
	<path id="XMLID_673_" class="st0" d="M220.5,357.2c10.5,0.3,18.7,4.8,26.9,11.3C241,370.6,224.8,363.8,220.5,357.2z"/>
	<path id="XMLID_669_" class="st0" d="M231.2,322.4c-5.8,7.1-22.4,10.9-32.6,6.9C210.2,326.8,220.5,324.6,231.2,322.4z"/>
	<path id="XMLID_663_" class="st0" d="M181.2,298.9c7.3-4.3,14.6-8.5,22.5-13.1c-1.7,7.6-17,17.8-25.1,17.1
		C179.5,301.4,180.4,300.1,181.2,298.9L181.2,298.9z"/>
	<path id="XMLID_662_" class="st0" d="M146.6,430.2c6.1,3.4,11.9,16.5,11.5,25.9C153.3,452.9,146,436.4,146.6,430.2z"/>
	<path id="XMLID_652_" class="st0" d="M237.6,398.7c-6.1-7.8-12.2-15.6-19-24.1C226.2,375.1,237.8,389.6,237.6,398.7z"/>
	<path id="XMLID_648_" class="st0" d="M146.5,348.1c4.1,8.6,6.8,17.3,2.9,26.7C145.5,366.2,145.5,357.2,146.5,348.1z"/>
	<path id="XMLID_616_" class="st0" d="M237.2,159.8c-5.6,8.4-13.2,14.2-22.3,17.8c-0.5-0.6-0.9-1.3-1.4-1.9
		c7.4-5.9,14.9-11.9,22.3-17.8C236.3,158.5,236.8,159.1,237.2,159.8z"/>
	<path id="XMLID_611_" class="st0" d="M133,340.7c-3.4-8.4-5.5-16.9-3.5-25.9C133.9,323,136.7,331.4,133,340.7z"/>
	<path id="XMLID_600_" class="st0" d="M79.5,414.7c-7.3,2.6-14.6,5.3-22,7.9C60,415.2,71.8,410.9,79.5,414.7z"/>
	<path id="XMLID_595_" class="st0" d="M135.7,475.3c-3-8.3-3.9-15.5-2-23.3C138.7,456.4,139.9,468,135.7,475.3z"/>
	<path id="XMLID_533_" class="st0" d="M161.7,361.8c4.5,7.1,6.4,14.7,4,23.1C161.9,377.6,160.4,370,161.7,361.8z"/>
	<path id="XMLID_515_" class="st0" d="M238.3,201.7c-6.5,4.9-13.9,5.4-21.6,4.5C223.2,201.4,230.4,200.2,238.3,201.7z"/>
</g>
</svg>
