<?xml version="1.0" encoding="utf-8"?>
<!-- Generator: Adobe Illustrator 19.0.0, SVG Export Plug-In . SVG Version: 6.00 Build 0)  -->
<svg version="1.1" id="Layer_1" xmlns="http://www.w3.org/2000/svg" xmlns:xlink="http://www.w3.org/1999/xlink" x="0px" y="0px"
	 viewBox="-74 0 350 500" style="enable-background:new -74 0 350 500;" xml:space="preserve">
<style type="text/css">
	.st0{fill:#9C8214;}
</style>
<g id="XMLID_42_">
	<path id="XMLID_43_" class="st0" d="M120,176.5c0.7-0.6,1.7-0.8,2.6-0.5c1.2,0.5,2.1,0.7,3,1.1c1.3,0.5,1.9,1.7,1.6,3
		c-0.4,1.3-0.7,2.6-1.6,3.3c-2.9,2.6-6.8,6.6-9.6,9.3c-1.9,1.9-3.8,5.3-3.6,7.9c0.6,8.9-0.7,11.9-9.3,14.9c-2.1,0.7-5,0.9-6.1,2.5
		c-8.2,10.2-19.3,16.2-30,23.2c-11.1,7.4-22.7,6.6-34.6,6.2c-0.9,0-1.7-1-2.6-2.1c-0.9-1.2-0.6-2.8,0.6-3.7c0.7-0.5,1.6-0.9,2.3-1.2
		c12.1-4.4,24.4-8.5,36.6-13.1c3.3-1.3,6.4-3.9,8.9-6.5c8.5-8.6,16.4-17.7,24.8-26.4C108.6,189.1,114.2,181.6,120,176.5z"/>
	<path id="XMLID_104_" class="st0" d="M127.9,159.7c13.2-38.1,26.5-76.1,39.7-114.2c0.9,0.3,1.7,0.6,2.7,0.9
		c-8.3,39.8-17.6,79.2-39.2,114.3C130,160.3,128.9,160,127.9,159.7z"/>
	<path id="XMLID_105_" class="st0" d="M136.8,49.7c2,16.9-15.3,104.5-22,112.5C116.5,123.6,124.4,86.2,136.8,49.7z"/>
	<path id="XMLID_106_" class="st0" d="M158.1,29.9c-3.1,33.5-8.3,66.5-26.3,96C136.9,92.9,145.3,60.9,158.1,29.9z"/>
	<path id="XMLID_107_" class="st0" d="M236.9,309.1c-37.8-1.5-73.3-12-108.4-24.9C165.8,288,201.5,297.6,236.9,309.1z"/>
	<path id="XMLID_108_" class="st0" d="M138.6,162.2c19-31,41.1-59.6,66.5-85.8C186.9,108.1,165.1,137,138.6,162.2z"/>
	<path id="XMLID_109_" class="st0" d="M126.7,312.8c30.9,18.4,57.6,41.6,79.7,70.1C179.2,360.3,150.2,339.8,126.7,312.8z"/>
	<path id="XMLID_110_" class="st0" d="M130.8,207.2c31.6-6.2,63.3-11,95.8-8.8C195.3,208.2,163.3,210.8,130.8,207.2z"/>
	<path id="XMLID_111_" class="st0" d="M196.8,42c-11.3,29.1-21.9,57.3-39.3,82.4C157.2,106.5,185,48.4,196.8,42z"/>
	<path id="XMLID_112_" class="st0" d="M139.7,174c33.9-14,67.8-27.9,101.7-41.9c0.5,1.1,0.9,2.2,1.4,3.3
		c-32.4,17.6-66.2,32.1-101.7,42.2C140.6,176.4,140.1,175.2,139.7,174z"/>
	<path id="XMLID_113_" class="st0" d="M234.2,324.9c-20.4-0.2-93.1-21.8-102.7-30.9C167.4,303.3,201.8,310.5,234.2,324.9z"/>
	<path id="XMLID_114_" class="st0" d="M214.8,239.4c-27.8,13.1-56.5,20-86.9,28.3C137.2,256.4,203.5,235.3,214.8,239.4z"/>
	<path id="XMLID_115_" class="st0" d="M108,114.5c0-24,3.1-47.6,10.5-70.7c2.3,24.2,2.5,48.2-6.7,71
		C110.5,114.8,109.2,114.7,108,114.5z"/>
	<path id="XMLID_116_" class="st0" d="M129.7,193.7c25.9-4.8,52-8.6,78.7-6.4c-25.7,7.2-51.7,13-78.5,10.2
		C127.4,197.3,127.2,194,129.7,193.7z"/>
	<path id="XMLID_117_" class="st0" d="M105.3,162.8c-7.3-11-13.9-76.3-7.4-87.1c3.5,30.2,6.8,58.5,10,86.9
		C107.2,162.6,106.2,162.7,105.3,162.8z"/>
	<path id="XMLID_118_" class="st0" d="M131.6,333c16,19.6,27.1,41.7,33.3,66.4C149.4,379.4,137.9,357.6,131.6,333z"/>
	<path id="XMLID_119_" class="st0" d="M148.9,280c0.1-1,0.1-1.9,0.2-2.9c29.8,0.3,59.8-4.7,89.1,5.1c-0.1,0.9-0.1,1.8-0.2,2.7
		C208.3,283.2,178.6,281.6,148.9,280z"/>
	<path id="XMLID_120_" class="st0" d="M167.9,174c22.7-11.5,46-21,71.6-24.3C216.5,160.4,194.4,173.5,167.9,174z"/>
	<path id="XMLID_121_" class="st0" d="M207.3,263.7c-12.3,8.5-61.9,13.2-72.1,6.9C159.6,265.4,183.2,262.1,207.3,263.7z"/>
	<path id="XMLID_122_" class="st0" d="M125.9,376.2c-7.9-12.1-15.3-55-11.5-66.3C121.8,320.9,129.9,368.3,125.9,376.2z"/>
	<path id="XMLID_123_" class="st0" d="M202.3,344.8c-23.1-12.3-46.2-24.6-69.3-36.9c0.5-0.8,0.9-1.7,1.4-2.6
		c24.8,9,49,19.3,69.2,36.9C203.1,343,202.7,343.9,202.3,344.8z"/>
	<path id="XMLID_124_" class="st0" d="M192.8,129c-13.8,17.8-30.3,32.2-51.7,40.3c-0.6-0.8-1.2-1.6-1.8-2.4
		c17.3-13.3,34.5-26.7,51.7-40.1C191.6,127.6,192.3,128.2,192.8,129z"/>
	<path id="XMLID_125_" class="st0" d="M168,136.4c4.3-9.5,41.5-44.5,48.1-45.8C209.5,104.8,179.1,134,168,136.4z"/>
	<path id="XMLID_126_" class="st0" d="M183.4,389.6c-15.3-11.9-26.6-26.6-36.5-44.8C160.1,349.2,184.8,380.4,183.4,389.6z"/>
	<path id="XMLID_127_" class="st0" d="M165.2,332.2c10.5,1.7,43.1,27.9,48.7,39.2C202.5,368.9,169.2,342.1,165.2,332.2z"/>
	<path id="XMLID_128_" class="st0" d="M244.1,348.6c-21-8.2-42.8-14.9-61.1-29C205.3,325.1,226.3,333.7,244.1,348.6z"/>
	<path id="XMLID_129_" class="st0" d="M-42.4,375.2c6.5-4.8,13.5-8.9,21.2-14c2.5,4.9,1.2,10.4-2.3,15.3c-4,5.8-9.2,10.7-16.9,9.9
		c-2-0.2-5-2.9-5.3-5C-46.1,379.7-44.2,376.5-42.4,375.2z"/>
	<path id="XMLID_130_" class="st0" d="M189.1,139.3c14.2-14.7,29-26.9,48.2-35.3C232.2,114.7,199.1,139.1,189.1,139.3z"/>
	<path id="XMLID_131_" class="st0" d="M-0.4,371.9c-1.8,1.5-4.4,2.1-6.4,3.4c-5,3.3-7.1,0.1-9.3-4c-0.1-4.3-0.5-9.1-0.1-13.7
		c0.5-5.2,4.3-6.5,7.8-3.4c4.1,3.7,7.3,8.5,10.3,13.1C2.4,368.1,0.9,370.9-0.4,371.9z"/>
	<path id="XMLID_132_" class="st0" d="M190.9,178.3c14.1-9.1,29.8-10.8,46-10.5C222.6,176.1,207.3,180.2,190.9,178.3z"/>
	<path id="XMLID_133_" class="st0" d="M180,258.7c15.2-7.4,31.4-10.8,48.2-11.3C212.9,254.8,197.3,260.2,180,258.7z"/>
	<path id="XMLID_134_" class="st0" d="M-15.5,377.1c2.3,9.6-3.5,20.2-11.3,21.4c-2.1,0.4-5.1-1.2-6.8-2.8c-0.8-0.8-0.2-4.6,1.1-5.7
		C-27.3,385.7-21.7,381.8-15.5,377.1z"/>
	<path id="XMLID_135_" class="st0" d="M-19.1,318c4.6-0.5,9.6,3,14.4,4.9c0.2,0.9,0.4,1.9,0.6,2.8c-2.8,2.1-5.6,5.7-8.7,6.1
		c-4,0.5-8.5-1.6-12.7-2.6C-23.4,325.3-21.6,318.3-19.1,318z"/>
	<path id="XMLID_136_" class="st0" d="M18.8,355.1c1.4,0.2,3.8,2.4,3.6,3.5c-0.2,1.8-1.6,4.2-3.1,5.2C12,368.4,0.4,363.4-3,353.3
		c4.3,0.8,7.5,1.7,10.8,1.9C11.5,355.4,15.2,354.7,18.8,355.1z"/>
	<path id="XMLID_137_" class="st0" d="M-33.8,336C-33.8,336-33.9,336-33.8,336C-33.9,336.1-33.9,336.1-33.8,336L-33.8,336L-33.8,336
		L-33.8,336L-33.8,336C-33.9,336-33.9,336-33.8,336C-33.9,336-33.9,336-33.8,336z"/>
	<path id="XMLID_138_" class="st0" d="M-48.5,339.1c1.1-4.4,1.4-10.1,4.3-12.5c2.5-2,8.2-0.3,12.4-0.3c-0.7,3.2-1.4,6.5-2.1,9.7
		c-3.3,1.6-6.4,3.5-9.8,4.6C-45.1,341-48.6,339.2-48.5,339.1z"/>
	<path id="XMLID_139_" class="st0" d="M-8.2,382.8c4.9,7.6,5.6,13.8,1.3,19.5c-1.6,2-5.2,2.3-8,3.4c-0.9-2.9-3.2-6.5-2.3-8.8
		C-15.4,392.3-11.9,388.3-8.2,382.8z"/>
	<path id="XMLID_140_" class="st0" d="M-45.9,294.6c4.7-0.1,9.5,2.7,14.2,4.2c-2,3.1-4.1,6.3-7,10.8c-4.9-1.9-8.5-3.4-12.2-4.9
		C-49.3,301.3-47.6,294.6-45.9,294.6z"/>
	<path id="XMLID_141_" class="st0" d="M-8,295.9c-2.8,8.8-8,11.9-15,11.4c-2.2-0.2-6.2-3.5-6-4c1.2-3,3-7.4,5.4-8.1
		C-19,294.1-14,295.4-8,295.9z"/>
	<path id="XMLID_142_" class="st0" d="M12.7,388.5c1.7,1.5,1.4,5.3,2,8.2c-2.8,0.4-6.3,1.9-8.4,0.8c-6.1-3.2-8.8-8.8-8.6-17.9
		C3.7,382.9,8.6,385.1,12.7,388.5z"/>
	<path id="XMLID_143_" class="st0" d="M-37.3,322.3c-5.4-0.4-6.1-3.1-4-7.4c2.8-5.9,9.2-7,19.1-3.1
		C-24.7,319.1-30.3,322.7-37.3,322.3z"/>
	<path id="XMLID_144_" class="st0" d="M-57.6,301.9c-2.6,0-5.1-1.9-7.8-3c1.2-2.6,1.7-6.1,3.7-7.6c3.5-2.7,8-4.2,12-6.2
		c0.6,0.9,1.4,1.9,2,2.8c-1.5,3.3-2.6,6.8-4.5,9.8C-53.3,299.6-55.7,301.9-57.6,301.9z"/>
	<path id="XMLID_145_" class="st0" d="M-34.7,276.5c0.3-0.6,0.6-1.2,0.8-1.8c3.2,1.5,6.3,2.9,9.6,4.4c-2.5,3.5-4.3,8.5-7.7,10
		c-2.6,1.1-7.1-2.4-10.8-3.9c1.6-2.5,3-5,4.9-7.3C-37.2,277.1-35.8,276.9-34.7,276.5z"/>
	<path id="XMLID_146_" class="st0" d="M-13.1,310.3c1.6-2.7,5.7-6.7,7-6.2c4.1,1.7,7.4,5.2,11.1,8.1c-4.4,1.9-8.6,4.7-13.2,5.5
		C-13.2,318.5-15.7,314.7-13.1,310.3z"/>
	<path id="XMLID_147_" class="st0" d="M5,312.2C5,312.2,5,312.1,5,312.2C5,312.1,5,312.1,5,312.2C5.1,312.1,5.1,312.1,5,312.2
		L5,312.2L5,312.2z"/>
	<path id="XMLID_148_" class="st0" d="M-4.3,283.3c-4.6,4-7.2,7.4-10.5,8.7c-2,0.8-5.3-1.3-8.1-2c1.5-4.2,3-8.5,4.5-12.8
		C-14.5,279-10.7,280.6-4.3,283.3z"/>
	<path id="XMLID_149_" class="st0" d="M18.6,314.7c0.7,1.3-4.3,6.7-7.4,9.1c-1.6,1.2-5,0.1-7.6,0.1c0.2-2.3,0.3-4.5,0.6-6.7
		c0.2-1.7,0.6-3.3,0.9-5C10.2,310.2,15.7,309.7,18.6,314.7z"/>
	<path id="XMLID_150_" class="st0" d="M-58.2,317.9c3.9-1.4,8.5-0.8,14-1.2c-1.6,7.9-5.9,10.8-11.2,11.3c-2.4,0.3-5.1-1.7-7.5-2.8
		C-61.5,322.7-60.4,318.7-58.2,317.9z"/>
	<path id="XMLID_151_" class="st0" d="M-20.4,341.5c1.5,3.9-6.6,8-13.9,7.4c-0.6-0.1-1.1-0.7-1.8-1.3c0.7-3.9,1.5-7.6,2.2-11.4
		C-28.4,335.4-22.6,335.6-20.4,341.5z"/>
	<path id="XMLID_152_" class="st0" d="M6.5,375.6c5.4-1.7,9.9-3.5,14.6-4.7c1.4-0.4,3.8,0.2,4.5,1.2c0.7,1,0.6,3.4-0.2,4.7
		C21.9,383.3,11.9,383.4,6.5,375.6z"/>
	<path id="XMLID_153_" class="st0" d="M24,346.9c-2.9,6-13.8,6.6-18.9,1c4.1-2.2,8.2-4.3,12.2-6.4c0.5-0.3,0.9-0.7,1.3-0.6
		c1.8,0.4,4,0.4,5.2,1.5C24.6,343,24.6,345.6,24,346.9z"/>
	<path id="XMLID_154_" class="st0" d="M5.8,339.4c-1.7-0.1-3.7-2.2-4.5-3.9c-0.5-0.9,0.7-3.8,1.7-4.1c5.4-2.2,11.1-3.3,17.3,0.3
		C16.6,337.5,11.6,339.5,5.8,339.4z"/>
	<path id="XMLID_155_" class="st0" d="M-50.8,344.4c3-0.8,7,1.7,10.6,2.8c-2.1,2.9-4.2,5.9-7,9.7c-3.8-1.7-6.3-2.9-8.8-4.1
		C-54.3,349.9-53.1,345.1-50.8,344.4z"/>
	<path id="XMLID_156_" class="st0" d="M-59.8,305c2.9,0.7,5.6,2.5,8.4,3.8c0,0.8,0.1,1.6,0.1,2.4c-2.8,1.4-5.4,3.3-8.3,4
		c-2.1,0.5-5.9-0.3-6.7-1.7c-1.3-2.2-0.6-5.5-0.8-8.4C-64.7,305-62.1,304.3-59.8,305z"/>
	<path id="XMLID_157_" class="st0" d="M-31.8,359.2c-2.4,2.8-4.2,6.8-7.2,8c-2.4,0.9-6.2-1.6-9.3-2.6c1-2.3,2-4.7,3.4-7.9
		C-39.7,357.7-35.8,358.5-31.8,359.2z"/>
	<path id="XMLID_158_" class="st0" d="M10.6,307.4c-1.7,1-5.1-0.8-9.4-1.8c1.9-4.8,3.1-7.6,4.3-10.5c3.6,1.7,7.1,3.3,10.7,4.9
		C14.4,302.5,13.1,306,10.6,307.4z"/>
	<path id="XMLID_159_" class="st0" d="M-15.1,346.1c-1.4-1.4-1.3-5.8-0.1-7.7c4.3-6.8,9.2-1.3,14.7-0.3
		C-4.4,345.1-12.1,349.2-15.1,346.1z"/>
	<path id="XMLID_160_" class="st0" d="M1.1,293c-0.5,0.6-5.4-1.8-5.3-2.3c0.5-3.1,1.8-6.1,3.5-10.7c-6.3,2.8-9.3-4.2-15.3-6.2
		c6.2-5.7,11.4-6.1,16.9-3.2c4.6,2.4,4.6,5.2,0.4,8.2c-0.6,0.5-1.2,0.8-1.8,1.1c3.9,2.1,5.9,3.1,7.9,4.2
		C5.3,287.2,3.6,290.5,1.1,293z"/>
	<path id="XMLID_161_" class="st0" d="M-49.6,332.6c-2.5,2.7-5.1,5.3-7.5,8.1c-1.3-2.4-2.7-4.8-4-7.2c2.9-1.5,5.9-2.9,8.8-4.5
		C-51.4,330.3-50.5,331.4-49.6,332.6z"/>
	<path id="XMLID_162_" class="st0" d="M-68.7,248.7c0.2,0,2.6,0,2.7,0c4.2,0.3,5.1,0,8.6,1.1c13.1,4,26.3,5,39.3,0.6
		c12-4,24-3.8,36.5-1.7c13.5,2.3,27.4,2.1,41.2,3.3c3.6,0.3,7.3,1.5,10.6,2.8c14.4,6.2,27.8,15.2,44.2,16.4c1.1,0.1,2,3.3,2.9,5.1
		c-7.5,3.1-3.7,8.3-2.8,11.5c0.8,2.5,1.4,3.4,1.4,4.3c-0.1,2.8-0.4,5.7-0.6,8.5c-2.3-1.9-4.9-3.8-6.9-6c-3.4-3.7-5.6-9.2-9.7-11.4
		c-12.8-6.9-26.2-12.6-39.4-18.7c-7.1-3.3-14.2-2.9-21.7-0.6c-3,0.9-6.8,0.8-9.9,0c-7.8-2-15.5-4.8-23.3-7c-1.7-0.5-4-0.3-5.8,0.1
		c-6,1.5-11.9,2.8-17.6,4.9c-4,1.5-8,3.6-10.9,6.4c-5,5-10.5,5.3-15.5,0.6c-2.8-2.7-6.1-4.8-9.6-6.2c-2.8-1.2-5.6-2.5-8.5-2.9
		c-0.2,0-0.4,0-0.6,0H-74v-11H-68.7z"/>
</g>
<g id="XMLID_96_">
	<path id="XMLID_879_" class="st0" d="M829.8,227.6c2.2,4.6,0.5,7.4-2.4,8.6c-6.2,2.5-12.6,5.4-19.1,6.2
		c-21.1,2.5-42.3,3.9-63.3,6.3c-4.2,0.5-7.9,3.6-12,5.1c-4.8,1.8-9.4,5.2-15,1c-1.8-1.4-5.2-1.3-7.7-0.9c-6.2,0.9-12.2,2.6-18.4,3.6
		c-0.9,0.1-6.9,0.4-6.9,0.4v-11.2c0,0,5.7,0.1,6.3,0.1c3.9-0.1,7.9,0,11.8,0.1c8.9,0.1,17.7-0.1,26.3-3.4c4.7-1.8,10.1-1.7,15.2-2.5
		c5.7-0.9,11.5-2.1,17.2-3c3-0.5,6-0.9,9-0.7c16.7,1.1,33.3,1.4,49.1-5C823.2,230.9,826.3,229.2,829.8,227.6z"/>
	<path id="XMLID_877_" class="st0" d="M820.1,307.6c-2.4-0.4-4.8-0.6-7-1.4c-5.6-2-11.3-3.8-16.5-6.7c-6.7-3.8-13-8.4-19.2-13.2
		c-6.1-4.8-11.8-9.6-19.9-5.2c-0.8,0.4-3.5-0.9-3.8-1.9c-2.4-8.2-9.3-11.2-15.4-14.9c-2.8-1.7-4.9-3.1-3.2-6.9
		c1.7-3.8,4.5-2.7,6.8-1.5c10,5.5,19.9,11.4,29.8,17c3.5,2,6.9,4.1,10.5,5.7c4.8,2,8.9,4.2,11.7,9.3c1.4,2.6,4.9,4.2,7.7,5.8
		c6.3,3.8,12.8,7.4,19.2,11C820.6,305.9,820.3,306.8,820.1,307.6z"/>
	<path id="XMLID_876_" class="st0" d="M794.4,305c5.9-0.9,8.4,1.4,10,5.3c2.2,5.4,4.8,10.6,6.6,16.1c0.9,2.8,1.2,6.4,0.4,9.2
		c-1.2,4.1-0.9,7.6,1.1,11.2c8,14.4,8.8,29.9,4.6,45.1c-1.6,5.6-5.6,10.6-6.8,16.8c-0.1,0.6-3.1,1.4-3.4,0.9
		c-1.1-1.4-2.5-3.5-2.2-4.9c0.8-4.2,2.5-8.1,3.7-12.2c4.9-16.3,5.6-32.2-4.1-47.4c-3.2-5-4.7-9.7-2.1-15.7
		c2.5-5.7-1.1-10.8-3.5-15.9C797.4,310.9,796,308.2,794.4,305z"/>
	<path id="XMLID_872_" class="st0" d="M924,172.3c-6.3,8.4-76.4,50.6-83.8,50.3C866,200.7,894.5,185.6,924,172.3z"/>
	<path id="XMLID_866_" class="st0" d="M787.6,492.6c8.5-24.1,18.5-47.7,20.4-74.9C818.4,430.4,802.4,477.8,787.6,492.6z"/>
	<path id="XMLID_840_" class="st0" d="M842.5,230.8c29.9-10.8,60.5-14.4,91.9-9c0.1,0.6,0.1,1.1,0.2,1.7c-4.8,0.5-9.6,1.7-14.3,1.5
		c-25.7-1.1-51,1.9-76.2,6.1C843.5,231,843,230.8,842.5,230.8z"/>
	<path id="XMLID_839_" class="st0" d="M771.9,446.1c7.1-7.5,14-15,21.3-22.3c2.4-2.4,5.5-4.2,8.6-5.5
		c-16.9,22.7-33.7,45.4-51.4,69.3c2-4.7,3.2-8.6,5.1-12c4.7-8.3,9.7-16.3,14.5-24.5C770.9,449.5,771.3,447.7,771.9,446.1
		L771.9,446.1z"/>
	<path id="XMLID_833_" class="st0" d="M827.6,224.7c-2.3-14.8,6.9-57.6,19.3-68.3c-5.9,22.9-11.8,45.8-17.7,68.6
		C828.6,224.9,828.1,224.8,827.6,224.7z"/>
	<path id="XMLID_832_" class="st0" d="M869.7,153.4c-3.6,15.4-23.1,58.5-33.1,62.5C846.5,194.5,854.7,172,869.7,153.4z"/>
	<path id="XMLID_829_" class="st0" d="M793.1,418.6C771.6,431,758,452,740.9,470.4C740.8,454.7,777.4,418.7,793.1,418.6z"/>
	<path id="XMLID_822_" class="st0" d="M890.6,258.4c-19.8-2.7-37.9-7.4-57-12.6C844,239.2,880.2,247.2,890.6,258.4z"/>
	<path id="XMLID_819_" class="st0" d="M879.1,164.7c-3.4,6.5-6.5,13.1-10.2,19.4c-4.2,7.2-8.8,14.2-13.4,21.2
		c-0.9,1.4-2.4,2.3-4.5,2.7c9.7-18,15.4-38.4,28.7-54.1c0.5,0.2,1,0.4,1.5,0.6C880.4,157.9,879.7,161.4,879.1,164.7L879.1,164.7z"/>
	<path id="XMLID_815_" class="st0" d="M909.9,244.8c-24-1.6-46.6-3.2-69.6-4.8C848.1,233.3,897,236.3,909.9,244.8z"/>
	<path id="XMLID_813_" class="st0" d="M795.1,412.1c-17.5,7.7-34.9,15.3-52.4,23c-0.3-0.7-0.6-1.3-0.8-2
		c15.1-13.5,32.7-21,52.7-22.7C794.7,410.9,794.9,411.5,795.1,412.1z"/>
	<path id="XMLID_809_" class="st0" d="M877.1,393c-8.6-23.3-17.5-46.4-35.7-65.7C858.1,333.1,879.4,374.6,877.1,393z"/>
	<path id="XMLID_807_" class="st0" d="M901.4,150.8c-9.7,18.7-19.5,36-34.5,50.4C866.7,193.3,893.6,153.8,901.4,150.8z"/>
	<path id="XMLID_805_" class="st0" d="M801.2,433.3c-2.3,21-10,39.7-21.5,56.8C784.2,470,792.5,451.6,801.2,433.3z"/>
	<path id="XMLID_800_" class="st0" d="M806.5,478.7c4.9-20.9,8.1-42,6-65.1C821.7,427.1,818.7,462.6,806.5,478.7z"/>
	<path id="XMLID_780_" class="st0" d="M826.7,472.1c-2.3-18.9-4.6-37.8-6.9-56.8C827.7,419.1,833.7,459.8,826.7,472.1z"/>
	<path id="XMLID_777_" class="st0" d="M866.2,300.8c-10,3.7-19.9,7.5-29.9,11.1c-1.7,0.6-3.7,0.5-5.7,0.1
		c16.8-8.8,33.5-17.6,50.3-26.5c0.4,0.4,0.7,0.8,1.1,1.3C876.8,291.5,871.5,296.2,866.2,300.8L866.2,300.8z"/>
	<path id="XMLID_774_" class="st0" d="M768.7,492.8c5.8-17.8,12.8-35,22.5-50.9C788.5,461.3,780.9,478.2,768.7,492.8z"/>
	<path id="XMLID_772_" class="st0" d="M858.2,385.7c-6.8-18.9-13.5-37.2-19.9-55.2C847.7,334.3,861.7,371.4,858.2,385.7z"/>
	<path id="XMLID_767_" class="st0" d="M865.9,217.4c20-5.6,40.5-5.9,61.2-5.1c0.1,0.8,0.2,1.6,0.2,2.4c-20.4,1.8-40.8,3.7-61.2,5.5
		C866.1,219.3,866,218.3,865.9,217.4z"/>
	<path id="XMLID_766_" class="st0" d="M859.4,332.7c20.4,2.5,40.2,5,59,7.3C907.3,346.2,872,342.9,859.4,332.7z"/>
	<path id="XMLID_764_" class="st0" d="M860,231.2c21.3-3.6,42.7-6.7,63.5,4.4C902.3,234.2,881.2,232.7,860,231.2z"/>
	<path id="XMLID_760_" class="st0" d="M871.8,275.3c-4.3,12.7-29.5,28.9-42.5,27.4C843.7,293.4,857.1,284.7,871.8,275.3z"/>
	<path id="XMLID_757_" class="st0" d="M746.4,393c18.2,0.6,36,1.1,53.9,1.6C795.2,401.5,754.3,401.6,746.4,393z"/>
	<path id="XMLID_754_" class="st0" d="M877.3,344c16.5,3.3,32.1,6.4,48,9.6C917,360.8,888.8,355.3,877.3,344z"/>
	<path id="XMLID_753_" class="st0" d="M841.3,380.9c-4.1-19.5-7.9-37.4-11.6-54.9C839.7,335.1,847.1,366.7,841.3,380.9z"/>
	<path id="XMLID_749_" class="st0" d="M852.6,325.2c19.3-3,38.1-5.9,56.3-8.7C903.1,325,868,331,852.6,325.2z"/>
	<path id="XMLID_737_" class="st0" d="M880.8,207.1c15.1-8.5,31.4-12.4,48.7-12.7c0.1,0.5,0.3,1.1,0.4,1.6
		c-16.1,4.6-32.2,9.1-48.3,13.7C881.3,208.8,881,208,880.8,207.1z"/>
	<path id="XMLID_736_" class="st0" d="M848.7,450c-12.9-13.5-17.1-32.3-27.1-47.5C835.1,415.6,842.8,432.3,848.7,450z"/>
	<path id="XMLID_734_" class="st0" d="M752.5,404.6c15.3-0.7,30.7-1.3,46-2C790.9,410,760.3,411.6,752.5,404.6z"/>
	<path id="XMLID_730_" class="st0" d="M756.5,494.9c5.1-16.9,13.1-32.1,23.9-45.7c0.7,0.4,1.3,0.8,2,1.2
		c-7.8,15.3-15.7,30.7-23.5,46C758.1,495.9,757.3,495.4,756.5,494.9z"/>
	<path id="XMLID_728_" class="st0" d="M867.2,347.8c12.8,4.8,28.3,28,27.6,42.3C886,376.5,876.5,361.9,867.2,347.8z"/>
	<path id="XMLID_723_" class="st0" d="M914,155.9c-8.5,13.4-18.7,25.1-31.7,34C890,175.7,900.9,164.6,914,155.9z"/>
	<path id="XMLID_720_" class="st0" d="M890.9,300.8c-13.9,10.7-29.6,15.6-47.3,14.4c15.6-5.3,31.1-10.5,46.7-15.8
		C890.5,299.8,890.7,300.3,890.9,300.8z"/>
	<path id="XMLID_719_" class="st0" d="M819.4,298.5c12.7-9.7,24.2-18.6,36-27.7C854,281.2,832.1,298.5,819.4,298.5z"/>
	<path id="XMLID_716_" class="st0" d="M882.7,356.8c11.2,3.2,26.1,27.2,24.2,38.8C898.9,382.7,890.9,369.9,882.7,356.8z"/>
	<path id="XMLID_710_" class="st0" d="M821.1,321.6c7.4,10.7,10.3,37.6,4.7,49C824.3,354.8,822.8,339,821.1,321.6z"/>
	<path id="XMLID_708_" class="st0" d="M772,446c-3.8,5-7.7,10.1-11.5,15.1c-4.9,6.6-9.8,13.3-15.4,19.3
		c5.9-15.3,14.6-28.4,27.4-40.5C772.2,443.1,772.1,444.6,772,446L772,446z"/>
	<path id="XMLID_705_" class="st0" d="M871.8,361.9c10.7,5.5,19.9,27.3,16.4,38.7C882.7,387.5,877.5,375.2,871.8,361.9z"/>
	<path id="XMLID_702_" class="st0" d="M807.1,387.5c-9.5,6.1-36.2,3.9-42.9-3.4C778.6,385.2,792.1,386.3,807.1,387.5z"/>
	<path id="XMLID_693_" class="st0" d="M862.5,318.3c13.6-4.7,25.8-8.9,38.6-13.3C895.9,314.2,873.6,322.3,862.5,318.3z"/>
	<path id="XMLID_692_" class="st0" d="M894.2,359.8c8,0.1,25.5,15.7,29,26.9c-10.7-9.2-20.3-17.4-29.9-25.6
		C893.6,360.7,893.9,360.2,894.2,359.8z"/>
	<path id="XMLID_690_" class="st0" d="M737.7,454.6c2.9-9.6,16.4-21.7,26.3-23.3C756.3,441.6,747.5,448.6,737.7,454.6z"/>
	<path id="XMLID_685_" class="st0" d="M879,164.8c2.5-4.3,4.7-8.7,7.4-12.8c1.4-2.1,3.7-3.5,6.3-4.6c-3.2,11.5-9.5,20.8-15.8,30.1
		c-0.6-0.3-1.2-0.6-1.8-0.8C876.5,172.7,877.8,168.7,879,164.8L879,164.8z"/>
	<path id="XMLID_684_" class="st0" d="M845.2,184.4c0-11.4,3.2-21.7,9.5-30.8C856.3,165.6,851.7,175.3,845.2,184.4z"/>
	<path id="XMLID_683_" class="st0" d="M853.7,350.7c10.3,11.7,15.4,25,14.2,42C862.9,377.8,858.3,364.3,853.7,350.7z"/>
	<path id="XMLID_677_" class="st0" d="M841.7,416.3c-8.5-7.8-14.4-16-18-26.3C830.5,391.6,841.1,406.7,841.7,416.3z"/>
	<path id="XMLID_673_" class="st0" d="M905.5,359.2c10.5,0.3,18.7,4.8,26.9,11.3C926,372.6,909.8,365.8,905.5,359.2z"/>
	<path id="XMLID_669_" class="st0" d="M916.2,324.4c-5.8,7.1-22.4,10.9-32.6,6.9C895.2,328.8,905.5,326.6,916.2,324.4z"/>
	<path id="XMLID_663_" class="st0" d="M866.2,300.9c7.3-4.3,14.6-8.5,22.5-13.1c-1.7,7.6-17,17.8-25.1,17.1
		C864.5,303.4,865.4,302.1,866.2,300.9L866.2,300.9z"/>
	<path id="XMLID_662_" class="st0" d="M831.6,432.2c6.1,3.4,11.9,16.5,11.5,25.9C838.3,454.9,831,438.4,831.6,432.2z"/>
	<path id="XMLID_652_" class="st0" d="M922.6,400.7c-6.1-7.8-12.2-15.6-19-24.1C911.2,377.1,922.8,391.6,922.6,400.7z"/>
	<path id="XMLID_648_" class="st0" d="M831.5,350.1c4.1,8.6,6.8,17.3,2.9,26.7C830.5,368.2,830.5,359.2,831.5,350.1z"/>
	<path id="XMLID_616_" class="st0" d="M922.2,161.8c-5.6,8.4-13.2,14.2-22.3,17.8c-0.5-0.6-0.9-1.3-1.4-1.9
		c7.4-5.9,14.9-11.9,22.3-17.8C921.3,160.5,921.8,161.1,922.2,161.8z"/>
	<path id="XMLID_611_" class="st0" d="M818,342.7c-3.4-8.4-5.5-16.9-3.5-25.9C818.9,325,821.7,333.4,818,342.7z"/>
	<path id="XMLID_600_" class="st0" d="M764.5,416.7c-7.3,2.6-14.6,5.3-22,7.9C745,417.2,756.8,412.9,764.5,416.7z"/>
	<path id="XMLID_595_" class="st0" d="M820.7,477.3c-3-8.3-3.9-15.5-2-23.3C823.7,458.4,824.9,470,820.7,477.3z"/>
	<path id="XMLID_533_" class="st0" d="M846.7,363.8c4.5,7.1,6.4,14.7,4,23.1C846.9,379.6,845.4,372,846.7,363.8z"/>
	<path id="XMLID_515_" class="st0" d="M923.3,203.7c-6.5,4.9-13.9,5.4-21.6,4.5C908.2,203.4,915.4,202.2,923.3,203.7z"/>
</g>
</svg>
