<?xml version="1.0" encoding="utf-8"?>
<!-- Generator: Adobe Illustrator 19.0.0, SVG Export Plug-In . SVG Version: 6.00 Build 0)  -->
<svg version="1.1" id="Layer_1" xmlns="http://www.w3.org/2000/svg" xmlns:xlink="http://www.w3.org/1999/xlink" x="0px" y="0px"
	 viewBox="0 0 352.3 500" style="enable-background:new 0 0 352.3 500;" xml:space="preserve">
<style type="text/css">
	.st0{fill:#9C8214;}
	.st1{fill:none;stroke:#9C8214;stroke-width:6;stroke-miterlimit:10;}
</style>
<g id="XMLID_42_">
	<path id="XMLID_43_" class="st0" d="M809.1,167.4c0.8-0.7,1.8-0.9,2.8-0.5c1.3,0.5,2.3,0.8,3.3,1.2c1.4,0.5,2.1,1.9,1.7,3.3
		c-0.4,1.4-0.8,2.8-1.7,3.6c-3.2,2.8-7.4,7.2-10.4,10.1c-2.1,2.1-4.1,5.8-3.9,8.6c0.7,9.7-0.8,12.9-10.1,16.2
		c-2.3,0.8-5.4,1-6.6,2.7c-8.9,11.1-21,17.6-32.6,25.2c-12.1,8-24.7,7.2-37.6,6.8c-1,0-1.9-1.1-2.8-2.3c-1-1.3-0.6-3.1,0.7-4
		c0.8-0.5,1.7-1,2.5-1.3c13.2-4.8,26.6-9.2,39.8-14.2c3.6-1.4,7-4.2,9.7-7.1c9.2-9.4,17.8-19.3,27-28.7
		C796.7,181.1,802.8,173,809.1,167.4z"/>
	<path id="XMLID_104_" class="st0" d="M817.7,149.1c14.4-41.4,28.8-82.8,43.2-124.2c1,0.3,1.9,0.7,2.9,1
		c-9,43.3-19.1,86.2-42.7,124.4C820,149.8,818.8,149.5,817.7,149.1z"/>
	<path id="XMLID_105_" class="st0" d="M827.4,29.5c2.2,18.4-16.7,113.7-23.9,122.4C805.3,109.9,813.9,69.2,827.4,29.5z"/>
	<path id="XMLID_106_" class="st0" d="M850.5,7.9c-3.4,36.4-9,72.3-28.6,104.5C827.5,76.5,836.6,41.6,850.5,7.9z"/>
	<path id="XMLID_107_" class="st0" d="M936.3,311.7c-41.1-1.6-79.8-13.1-117.9-27.1C858.9,288.7,897.8,299.2,936.3,311.7z"/>
	<path id="XMLID_108_" class="st0" d="M829.3,151.8C850,118.1,874,87,901.6,58.4C881.9,93,858.2,124.4,829.3,151.8z"/>
	<path id="XMLID_109_" class="st0" d="M816.4,315.7c33.6,20,62.7,45.3,86.7,76.3C873.5,367.4,841.9,345.1,816.4,315.7z"/>
	<path id="XMLID_110_" class="st0" d="M820.8,200.8c34.4-6.7,68.9-12,104.2-9.6C891,201.9,856.2,204.7,820.8,200.8z"/>
	<path id="XMLID_111_" class="st0" d="M892.6,21.1c-12.3,31.7-23.8,62.3-42.8,89.6C849.6,91.3,879.8,28,892.6,21.1z"/>
	<path id="XMLID_112_" class="st0" d="M830.5,164.7c36.9-15.2,73.8-30.4,110.6-45.6c0.5,1.2,1,2.4,1.5,3.6
		c-35.3,19.2-72,34.9-110.7,45.9C831.5,167.3,831,166,830.5,164.7z"/>
	<path id="XMLID_113_" class="st0" d="M933.3,328.9c-22.2-0.2-101.3-23.7-111.7-33.6C860.7,305.4,898.1,313.2,933.3,328.9z"/>
	<path id="XMLID_114_" class="st0" d="M912.2,235.8c-30.3,14.2-61.5,21.8-94.6,30.8C827.8,254.4,899.9,231.4,912.2,235.8z"/>
	<path id="XMLID_115_" class="st0" d="M796,100c0-26.1,3.4-51.8,11.4-76.9c2.5,26.3,2.7,52.4-7.3,77.3
		C798.7,100.3,797.3,100.2,796,100z"/>
	<path id="XMLID_116_" class="st0" d="M819.6,186.1c28.2-5.2,56.6-9.4,85.6-7c-28,7.8-56.2,14.1-85.4,11.1
		C817.1,190,816.9,186.5,819.6,186.1z"/>
	<path id="XMLID_117_" class="st0" d="M793.1,152.5c-7.9-12-15.1-83-8-94.8c3.8,32.9,7.4,63.7,10.9,94.5
		C795.1,152.3,794.1,152.4,793.1,152.5z"/>
	<path id="XMLID_118_" class="st0" d="M821.7,337.7c17.4,21.3,29.5,45.4,36.2,72.2C841.1,388.2,828.6,364.4,821.7,337.7z"/>
	<path id="XMLID_119_" class="st0" d="M840.5,280c0.1-1.1,0.1-2.1,0.2-3.2c32.4,0.3,65.1-5.1,96.9,5.5c-0.1,1-0.1,2-0.2,2.9
		C905.1,283.5,872.8,281.8,840.5,280z"/>
	<path id="XMLID_120_" class="st0" d="M861.2,164.7c24.7-12.5,50-22.9,77.9-26.4C914.1,149.9,890,164.1,861.2,164.7z"/>
	<path id="XMLID_121_" class="st0" d="M904.1,262.3c-13.4,9.3-67.3,14.4-78.4,7.5C852.2,264.1,877.8,260.5,904.1,262.3z"/>
	<path id="XMLID_122_" class="st0" d="M815.5,384.7c-8.6-13.2-16.6-59.8-12.5-72.1C811,324.5,819.9,376.1,815.5,384.7z"/>
	<path id="XMLID_123_" class="st0" d="M898.6,350.5c-25.1-13.4-50.3-26.8-75.4-40.2c0.5-0.9,1-1.9,1.5-2.8c27,9.8,53.3,21,75.3,40.2
		C899.5,348.6,899.1,349.5,898.6,350.5z"/>
	<path id="XMLID_124_" class="st0" d="M888.3,115.7c-15,19.4-33,35-56.2,43.9c-0.7-0.9-1.3-1.7-2-2.6c18.8-14.5,37.5-29.1,56.3-43.6
		C887,114.2,887.7,114.9,888.3,115.7z"/>
	<path id="XMLID_125_" class="st0" d="M861.3,123.8c4.7-10.3,45.2-48.4,52.3-49.8C906.5,89.4,873.4,121.2,861.3,123.8z"/>
	<path id="XMLID_126_" class="st0" d="M878.1,399.3c-16.7-13-28.9-28.9-39.7-48.7C852.7,355.3,879.6,389.3,878.1,399.3z"/>
	<path id="XMLID_127_" class="st0" d="M858.3,336.8c11.4,1.9,46.9,30.4,53,42.7C898.8,376.8,862.6,347.6,858.3,336.8z"/>
	<path id="XMLID_128_" class="st0" d="M944.1,354.7c-22.9-8.9-46.6-16.2-66.5-31.5C901.9,329.1,924.7,338.4,944.1,354.7z"/>
	<path id="XMLID_129_" class="st0" d="M632.4,383.6c7.1-5.2,14.7-9.7,23.1-15.2c2.7,5.3,1.3,11.3-2.5,16.7
		c-4.4,6.3-10,11.6-18.4,10.8c-2.2-0.2-5.4-3.2-5.8-5.4C628.4,388.5,630.4,385,632.4,383.6z"/>
	<path id="XMLID_130_" class="st0" d="M884.3,126.9c15.4-16,31.5-29.3,52.4-38.4C931.2,100.2,895.1,126.7,884.3,126.9z"/>
	<path id="XMLID_131_" class="st0" d="M678.1,380c-2,1.6-4.8,2.3-7,3.7c-5.4,3.6-7.7,0.1-10.1-4.4c-0.1-4.7-0.5-9.9-0.1-14.9
		c0.5-5.7,4.7-7.1,8.5-3.7c4.5,4,7.9,9.3,11.2,14.3C681.1,375.9,679.5,378.9,678.1,380z"/>
	<path id="XMLID_132_" class="st0" d="M886.2,169.4c15.3-9.9,32.4-11.7,50-11.4C920.7,167,904.1,171.4,886.2,169.4z"/>
	<path id="XMLID_133_" class="st0" d="M874.4,256.8c16.5-8.1,34.2-11.8,52.4-12.3C910.2,252.6,893.2,258.5,874.4,256.8z"/>
	<path id="XMLID_134_" class="st0" d="M661.6,385.7c2.5,10.4-3.8,22-12.3,23.3c-2.3,0.4-5.6-1.3-7.4-3.1c-0.9-0.9-0.2-5,1.2-6.2
		C648.8,395,654.9,390.8,661.6,385.7z"/>
	<path id="XMLID_135_" class="st0" d="M657.7,321.4c5-0.5,10.4,3.3,15.7,5.3c0.2,1,0.4,2.1,0.6,3.1c-3.1,2.3-6.1,6.2-9.5,6.6
		c-4.4,0.5-9.2-1.7-13.8-2.8C653,329.3,655,321.7,657.7,321.4z"/>
	<path id="XMLID_136_" class="st0" d="M699,361.7c1.5,0.2,4.1,2.6,3.9,3.8c-0.2,2-1.7,4.6-3.4,5.7c-7.9,5-20.5-0.4-24.3-11.4
		c4.7,0.9,8.2,1.8,11.8,2.1C691,362.1,695.1,361.3,699,361.7z"/>
	<path id="XMLID_137_" class="st0" d="M641.7,341C641.7,341,641.6,341,641.7,341C641.6,341.1,641.6,341.1,641.7,341L641.7,341
		L641.7,341L641.7,341L641.7,341C641.6,341,641.6,341,641.7,341C641.6,341,641.6,341,641.7,341z"/>
	<path id="XMLID_138_" class="st0" d="M625.7,344.3c1.2-4.8,1.5-11,4.7-13.6c2.7-2.2,8.9-0.3,13.5-0.3c-0.8,3.5-1.5,7.1-2.3,10.6
		c-3.6,1.7-7,3.8-10.7,5C629.4,346.4,625.6,344.4,625.7,344.3z"/>
	<path id="XMLID_139_" class="st0" d="M669.6,391.9c5.3,8.3,6.1,15,1.4,21.2c-1.7,2.2-5.7,2.5-8.7,3.7c-1-3.2-3.5-7.1-2.5-9.6
		C661.8,402.2,665.6,397.9,669.6,391.9z"/>
	<path id="XMLID_140_" class="st0" d="M628.6,295.9c5.1-0.1,10.3,2.9,15.5,4.6c-2.2,3.4-4.5,6.9-7.6,11.8c-5.3-2.1-9.3-3.7-13.3-5.3
		C624.9,303.2,626.7,295.9,628.6,295.9z"/>
	<path id="XMLID_141_" class="st0" d="M669.8,297.3c-3.1,9.6-8.7,13-16.3,12.4c-2.4-0.2-6.7-3.8-6.5-4.4c1.3-3.3,3.3-8.1,5.9-8.8
		C657.8,295.4,663.3,296.8,669.8,297.3z"/>
	<path id="XMLID_142_" class="st0" d="M692.3,398.1c1.9,1.6,1.5,5.8,2.2,8.9c-3.1,0.4-6.9,2.1-9.1,0.9c-6.6-3.5-9.6-9.6-9.4-19.5
		C682.5,392,687.9,394.4,692.3,398.1z"/>
	<path id="XMLID_143_" class="st0" d="M637.9,326c-5.9-0.4-6.6-3.4-4.4-8.1c3.1-6.4,10-7.6,20.8-3.4
		C651.6,322.6,645.6,326.5,637.9,326z"/>
	<path id="XMLID_144_" class="st0" d="M615.8,303.9c-2.8,0-5.6-2.1-8.5-3.3c1.3-2.8,1.8-6.6,4-8.3c3.8-2.9,8.7-4.6,13.1-6.7
		c0.7,1,1.5,2.1,2.2,3.1c-1.6,3.6-2.8,7.4-4.9,10.7C620.5,301.4,617.9,303.9,615.8,303.9z"/>
	<path id="XMLID_145_" class="st0" d="M640.8,276.2c0.3-0.7,0.6-1.3,0.9-2c3.5,1.6,6.9,3.2,10.4,4.8c-2.7,3.8-4.7,9.3-8.4,10.9
		c-2.8,1.2-7.7-2.6-11.7-4.2c1.7-2.7,3.3-5.4,5.3-7.9C638,276.9,639.6,276.7,640.8,276.2z"/>
	<path id="XMLID_146_" class="st0" d="M664.3,313c1.7-2.9,6.2-7.3,7.6-6.8c4.5,1.8,8.1,5.7,12.1,8.8c-4.8,2.1-9.4,5.1-14.4,6
		C664.1,321.9,661.4,317.8,664.3,313z"/>
	<path id="XMLID_147_" class="st0" d="M684,315.1C684,315.1,684,315,684,315.1c0-0.1,0-0.1,0.1-0.1C684.1,315,684.1,315,684,315.1
		C684,315.1,684,315.1,684,315.1L684,315.1z"/>
	<path id="XMLID_148_" class="st0" d="M673.8,283.6c-5,4.4-7.8,8-11.4,9.5c-2.2,0.9-5.8-1.4-8.8-2.2c1.6-4.6,3.3-9.3,4.9-13.9
		C662.7,278.9,666.9,280.7,673.8,283.6z"/>
	<path id="XMLID_149_" class="st0" d="M698.8,317.8c0.8,1.4-4.7,7.3-8.1,9.9c-1.7,1.3-5.4,0.1-8.3,0.1c0.2-2.5,0.3-4.9,0.6-7.3
		c0.2-1.8,0.6-3.6,1-5.4C689.6,312.9,695.6,312.3,698.8,317.8z"/>
	<path id="XMLID_150_" class="st0" d="M615.2,321.3c4.2-1.5,9.2-0.9,15.2-1.3c-1.7,8.6-6.4,11.7-12.2,12.3c-2.6,0.3-5.5-1.9-8.2-3
		C611.6,326.5,612.8,322.1,615.2,321.3z"/>
	<path id="XMLID_151_" class="st0" d="M656.3,346.9c1.6,4.2-7.2,8.7-15.1,8c-0.6-0.1-1.2-0.8-2-1.4c0.8-4.2,1.6-8.3,2.4-12.4
		C647.6,340.3,653.9,340.5,656.3,346.9z"/>
	<path id="XMLID_152_" class="st0" d="M685.6,384c5.9-1.9,10.8-3.8,15.9-5.1c1.5-0.4,4.1,0.2,4.9,1.3c0.8,1.1,0.6,3.7-0.2,5.1
		C702.3,392.4,691.5,392.5,685.6,384z"/>
	<path id="XMLID_153_" class="st0" d="M704.6,352.8c-3.2,6.5-15,7.2-20.6,1.1c4.5-2.4,8.9-4.7,13.3-7c0.5-0.3,1-0.8,1.4-0.7
		c2,0.4,4.4,0.4,5.7,1.6C705.3,348.6,705.3,351.4,704.6,352.8z"/>
	<path id="XMLID_154_" class="st0" d="M684.8,344.6c-1.8-0.1-4-2.4-4.9-4.2c-0.5-1,0.8-4.1,1.9-4.5c5.9-2.4,12.1-3.6,18.8,0.3
		C696.6,342.6,691.1,344.8,684.8,344.6z"/>
	<path id="XMLID_155_" class="st0" d="M623.2,350.1c3.3-0.9,7.6,1.8,11.5,3c-2.3,3.2-4.6,6.4-7.6,10.6c-4.1-1.9-6.9-3.2-9.6-4.5
		C619.4,356.1,620.7,350.8,623.2,350.1z"/>
	<path id="XMLID_156_" class="st0" d="M613.5,307.2c3.2,0.8,6.1,2.7,9.1,4.1c0,0.9,0.1,1.7,0.1,2.6c-3,1.5-5.9,3.6-9,4.3
		c-2.3,0.5-6.4-0.3-7.3-1.8c-1.4-2.4-0.7-6-0.9-9.1C608.1,307.2,611,306.5,613.5,307.2z"/>
	<path id="XMLID_157_" class="st0" d="M643.9,366.2c-2.6,3-4.6,7.4-7.8,8.7c-2.6,1-6.7-1.7-10.1-2.8c1.1-2.5,2.2-5.1,3.7-8.6
		C635.3,364.6,639.6,365.4,643.9,366.2z"/>
	<path id="XMLID_158_" class="st0" d="M690.1,309.8c-1.9,1.1-5.5-0.9-10.2-2c2.1-5.2,3.4-8.3,4.7-11.4c3.9,1.8,7.7,3.6,11.6,5.3
		C694.2,304.5,692.8,308.3,690.1,309.8z"/>
	<path id="XMLID_159_" class="st0" d="M662.1,351.9c-1.5-1.5-1.4-6.3-0.1-8.4c4.7-7.4,10-1.4,16-0.3
		C673.7,350.8,665.3,355.3,662.1,351.9z"/>
	<path id="XMLID_160_" class="st0" d="M679.7,294.2c-0.5,0.6-5.9-2-5.8-2.5c0.5-3.4,2-6.6,3.8-11.6c-6.9,3.1-10.1-4.6-16.6-6.7
		c6.7-6.2,12.4-6.6,18.4-3.5c5,2.6,5,5.7,0.4,8.9c-0.7,0.5-1.3,0.9-2,1.2c4.2,2.3,6.4,3.4,8.6,4.6
		C684.3,287.9,682.4,291.4,679.7,294.2z"/>
	<path id="XMLID_161_" class="st0" d="M624.6,337.3c-2.7,2.9-5.5,5.8-8.2,8.8c-1.4-2.6-2.9-5.2-4.3-7.8c3.2-1.6,6.4-3.2,9.6-4.9
		C622.6,334.7,623.6,336,624.6,337.3z"/>
	<path id="XMLID_162_" class="st0" d="M603.8,246c0.2,0,2.8,0,2.9,0c4.6,0.3,5.6,0,9.4,1.2c14.3,4.4,28.6,5.4,42.8,0.7
		c13.1-4.3,26.1-4.1,39.7-1.8c14.7,2.5,29.8,2.3,44.8,3.6c3.9,0.3,7.9,1.6,11.5,3.1c15.7,6.7,30.3,16.5,48.1,17.8
		c1.2,0.1,2.2,3.6,3.2,5.5c-8.2,3.4-4,9-3,12.5c0.9,2.7,1.5,3.7,1.5,4.7c-0.1,3.1-0.4,6.2-0.7,9.3c-2.5-2.1-5.3-4.1-7.5-6.5
		c-3.7-4-6.1-10-10.6-12.4c-13.9-7.5-28.5-13.7-42.9-20.4c-7.7-3.6-15.5-3.2-23.6-0.7c-3.3,1-7.4,0.9-10.8,0
		c-8.5-2.2-16.9-5.2-25.4-7.6c-1.9-0.5-4.3-0.3-6.3,0.1c-6.5,1.6-13,3-19.2,5.3c-4.3,1.6-8.7,3.9-11.9,7c-5.4,5.4-11.4,5.8-16.9,0.6
		c-3-2.9-6.6-5.2-10.4-6.8c-3-1.3-6.1-2.7-9.2-3.2c-0.2,0-0.4,0-0.6,0h-11v-12H603.8z"/>
</g>
<g id="XMLID_96_">
	<path id="XMLID_879_" class="st0" d="M811.8,227.6c2.2,4.6,0.5,7.4-2.4,8.6c-6.2,2.5-12.6,5.4-19.1,6.2
		c-21.1,2.5-42.3,3.9-63.3,6.3c-4.2,0.5-7.9,3.6-12,5.1c-4.8,1.8-9.4,5.2-15,1c-1.8-1.4-5.2-1.3-7.7-0.9c-6.2,0.9-12.2,2.6-18.4,3.6
		c-0.9,0.1-6.9,0.4-6.9,0.4v-11.2c0,0,5.7,0.1,6.3,0.1c3.9-0.1,7.9,0,11.8,0.1c8.9,0.1,17.7-0.1,26.3-3.4c4.7-1.8,10.1-1.7,15.2-2.5
		c5.7-0.9,11.5-2.1,17.2-3c3-0.5,6-0.9,9-0.7c16.7,1.1,33.3,1.4,49.1-5C805.2,230.9,808.3,229.2,811.8,227.6z"/>
	<path id="XMLID_877_" class="st0" d="M802.1,307.6c-2.4-0.4-4.8-0.6-7-1.4c-5.6-2-11.3-3.8-16.5-6.7c-6.7-3.8-13-8.4-19.2-13.2
		c-6.1-4.8-11.8-9.6-19.9-5.2c-0.8,0.4-3.5-0.9-3.8-1.9c-2.4-8.2-9.3-11.2-15.4-14.9c-2.8-1.7-4.9-3.1-3.2-6.9
		c1.7-3.8,4.5-2.7,6.8-1.5c10,5.5,19.9,11.4,29.8,17c3.5,2,6.9,4.1,10.5,5.7c4.8,2,8.9,4.2,11.7,9.3c1.4,2.6,4.9,4.2,7.7,5.8
		c6.3,3.8,12.8,7.4,19.2,11C802.6,305.9,802.3,306.8,802.1,307.6z"/>
	<path id="XMLID_876_" class="st0" d="M776.4,305c5.9-0.9,8.4,1.4,10,5.3c2.2,5.4,4.8,10.6,6.6,16.1c0.9,2.8,1.2,6.4,0.4,9.2
		c-1.2,4.1-0.9,7.6,1.1,11.2c8,14.4,8.8,29.9,4.6,45.1c-1.6,5.6-5.6,10.6-6.8,16.8c-0.1,0.6-3.1,1.4-3.4,0.9
		c-1.1-1.4-2.5-3.5-2.2-4.9c0.8-4.2,2.5-8.1,3.7-12.2c4.9-16.3,5.6-32.2-4.1-47.4c-3.2-5-4.7-9.7-2.1-15.7
		c2.5-5.7-1.1-10.8-3.5-15.9C779.4,310.9,778,308.2,776.4,305z"/>
	<path id="XMLID_872_" class="st0" d="M906,172.3c-6.3,8.4-76.4,50.6-83.8,50.3C848,200.7,876.5,185.6,906,172.3z"/>
	<path id="XMLID_866_" class="st0" d="M769.6,492.6c8.5-24.1,18.5-47.7,20.4-74.9C800.4,430.4,784.4,477.8,769.6,492.6z"/>
	<path id="XMLID_840_" class="st0" d="M824.5,230.8c29.9-10.8,60.5-14.4,91.9-9c0.1,0.6,0.1,1.1,0.2,1.7c-4.8,0.5-9.6,1.7-14.3,1.5
		c-25.7-1.1-51,1.9-76.2,6.1C825.5,231,825,230.8,824.5,230.8z"/>
	<path id="XMLID_839_" class="st0" d="M753.9,446.1c7.1-7.5,14-15,21.3-22.3c2.4-2.4,5.5-4.2,8.6-5.5
		c-16.9,22.7-33.7,45.4-51.4,69.3c2-4.7,3.2-8.6,5.1-12c4.7-8.3,9.7-16.3,14.5-24.5C752.9,449.5,753.3,447.7,753.9,446.1
		L753.9,446.1z"/>
	<path id="XMLID_833_" class="st0" d="M809.6,224.7c-2.3-14.8,6.9-57.6,19.3-68.3c-5.9,22.9-11.8,45.8-17.7,68.6
		C810.6,224.9,810.1,224.8,809.6,224.7z"/>
	<path id="XMLID_832_" class="st0" d="M851.7,153.4c-3.6,15.4-23.1,58.5-33.1,62.5C828.5,194.5,836.7,172,851.7,153.4z"/>
	<path id="XMLID_829_" class="st0" d="M775.1,418.6C753.6,431,740,452,722.9,470.4C722.8,454.7,759.4,418.7,775.1,418.6z"/>
	<path id="XMLID_822_" class="st0" d="M872.6,258.4c-19.8-2.7-37.9-7.4-57-12.6C826,239.2,862.2,247.2,872.6,258.4z"/>
	<path id="XMLID_819_" class="st0" d="M861.1,164.7c-3.4,6.5-6.5,13.1-10.2,19.4c-4.2,7.2-8.8,14.2-13.4,21.2
		c-0.9,1.4-2.4,2.3-4.5,2.7c9.7-18,15.4-38.4,28.7-54.1c0.5,0.2,1,0.4,1.5,0.6C862.4,157.9,861.7,161.4,861.1,164.7L861.1,164.7z"/>
	<path id="XMLID_815_" class="st0" d="M891.9,244.8c-24-1.6-46.6-3.2-69.6-4.8C830.1,233.3,879,236.3,891.9,244.8z"/>
	<path id="XMLID_813_" class="st0" d="M777.1,412.1c-17.5,7.7-34.9,15.3-52.4,23c-0.3-0.7-0.6-1.3-0.8-2
		c15.1-13.5,32.7-21,52.7-22.7C776.7,410.9,776.9,411.5,777.1,412.1z"/>
	<path id="XMLID_809_" class="st0" d="M859.1,393c-8.6-23.3-17.5-46.4-35.7-65.7C840.1,333.1,861.4,374.6,859.1,393z"/>
	<path id="XMLID_807_" class="st0" d="M883.4,150.8c-9.7,18.7-19.5,36-34.5,50.4C848.7,193.3,875.6,153.8,883.4,150.8z"/>
	<path id="XMLID_805_" class="st0" d="M783.2,433.3c-2.3,21-10,39.7-21.5,56.8C766.2,470,774.5,451.6,783.2,433.3z"/>
	<path id="XMLID_800_" class="st0" d="M788.5,478.7c4.9-20.9,8.1-42,6-65.1C803.7,427.1,800.7,462.6,788.5,478.7z"/>
	<path id="XMLID_780_" class="st0" d="M808.7,472.1c-2.3-18.9-4.6-37.8-6.9-56.8C809.7,419.1,815.7,459.8,808.7,472.1z"/>
	<path id="XMLID_777_" class="st0" d="M848.2,300.8c-10,3.7-19.9,7.5-29.9,11.1c-1.7,0.6-3.7,0.5-5.7,0.1
		c16.8-8.8,33.5-17.6,50.3-26.5c0.4,0.4,0.7,0.8,1.1,1.3C858.8,291.5,853.5,296.2,848.2,300.8L848.2,300.8z"/>
	<path id="XMLID_774_" class="st0" d="M750.7,492.8c5.8-17.8,12.8-35,22.5-50.9C770.5,461.3,762.9,478.2,750.7,492.8z"/>
	<path id="XMLID_772_" class="st0" d="M840.2,385.7c-6.8-18.9-13.5-37.2-19.9-55.2C829.7,334.3,843.7,371.4,840.2,385.7z"/>
	<path id="XMLID_767_" class="st0" d="M847.9,217.4c20-5.6,40.5-5.9,61.2-5.1c0.1,0.8,0.2,1.6,0.2,2.4c-20.4,1.8-40.8,3.7-61.2,5.5
		C848.1,219.3,848,218.3,847.9,217.4z"/>
	<path id="XMLID_766_" class="st0" d="M841.4,332.7c20.4,2.5,40.2,5,59,7.3C889.3,346.2,854,342.9,841.4,332.7z"/>
	<path id="XMLID_764_" class="st0" d="M842,231.2c21.3-3.6,42.7-6.7,63.5,4.4C884.3,234.2,863.2,232.7,842,231.2z"/>
	<path id="XMLID_760_" class="st0" d="M853.8,275.3c-4.3,12.7-29.5,28.9-42.5,27.4C825.7,293.4,839.1,284.7,853.8,275.3z"/>
	<path id="XMLID_757_" class="st0" d="M728.4,393c18.2,0.6,36,1.1,53.9,1.6C777.2,401.5,736.3,401.6,728.4,393z"/>
	<path id="XMLID_754_" class="st0" d="M859.3,344c16.5,3.3,32.1,6.4,48,9.6C899,360.8,870.8,355.3,859.3,344z"/>
	<path id="XMLID_753_" class="st0" d="M823.3,380.9c-4.1-19.5-7.9-37.4-11.6-54.9C821.7,335.1,829.1,366.7,823.3,380.9z"/>
	<path id="XMLID_749_" class="st0" d="M834.6,325.2c19.3-3,38.1-5.9,56.3-8.7C885.1,325,850,331,834.6,325.2z"/>
	<path id="XMLID_737_" class="st0" d="M862.8,207.1c15.1-8.5,31.4-12.4,48.7-12.7c0.1,0.5,0.3,1.1,0.4,1.6
		c-16.1,4.6-32.2,9.1-48.3,13.7C863.3,208.8,863,208,862.8,207.1z"/>
	<path id="XMLID_736_" class="st0" d="M830.7,450c-12.9-13.5-17.1-32.3-27.1-47.5C817.1,415.6,824.8,432.3,830.7,450z"/>
	<path id="XMLID_734_" class="st0" d="M734.5,404.6c15.3-0.7,30.7-1.3,46-2C772.9,410,742.3,411.6,734.5,404.6z"/>
	<path id="XMLID_730_" class="st0" d="M738.5,494.9c5.1-16.9,13.1-32.1,23.9-45.7c0.7,0.4,1.3,0.8,2,1.2
		c-7.8,15.3-15.7,30.7-23.5,46C740.1,495.9,739.3,495.4,738.5,494.9z"/>
	<path id="XMLID_728_" class="st0" d="M849.2,347.8c12.8,4.8,28.3,28,27.6,42.3C868,376.5,858.5,361.9,849.2,347.8z"/>
	<path id="XMLID_723_" class="st0" d="M896,155.9c-8.5,13.4-18.7,25.1-31.7,34C872,175.7,882.9,164.6,896,155.9z"/>
	<path id="XMLID_720_" class="st0" d="M872.9,300.8c-13.9,10.7-29.6,15.6-47.3,14.4c15.6-5.3,31.1-10.5,46.7-15.8
		C872.5,299.8,872.7,300.3,872.9,300.8z"/>
	<path id="XMLID_719_" class="st0" d="M801.4,298.5c12.7-9.7,24.2-18.6,36-27.7C836,281.2,814.1,298.5,801.4,298.5z"/>
	<path id="XMLID_716_" class="st0" d="M864.7,356.8c11.2,3.2,26.1,27.2,24.2,38.8C880.9,382.7,872.9,369.9,864.7,356.8z"/>
	<path id="XMLID_710_" class="st0" d="M803.1,321.6c7.4,10.7,10.3,37.6,4.7,49C806.3,354.8,804.8,339,803.1,321.6z"/>
	<path id="XMLID_708_" class="st0" d="M754,446c-3.8,5-7.7,10.1-11.5,15.1c-4.9,6.6-9.8,13.3-15.4,19.3
		c5.9-15.3,14.6-28.4,27.4-40.5C754.2,443.1,754.1,444.6,754,446L754,446z"/>
	<path id="XMLID_705_" class="st0" d="M853.8,361.9c10.7,5.5,19.9,27.3,16.4,38.7C864.7,387.5,859.5,375.2,853.8,361.9z"/>
	<path id="XMLID_702_" class="st0" d="M789.1,387.5c-9.5,6.1-36.2,3.9-42.9-3.4C760.6,385.2,774.1,386.3,789.1,387.5z"/>
	<path id="XMLID_693_" class="st0" d="M844.5,318.3c13.6-4.7,25.8-8.9,38.6-13.3C877.9,314.2,855.6,322.3,844.5,318.3z"/>
	<path id="XMLID_692_" class="st0" d="M876.2,359.8c8,0.1,25.5,15.7,29,26.9c-10.7-9.2-20.3-17.4-29.9-25.6
		C875.6,360.7,875.9,360.2,876.2,359.8z"/>
	<path id="XMLID_690_" class="st0" d="M719.7,454.6c2.9-9.6,16.4-21.7,26.3-23.3C738.3,441.6,729.5,448.6,719.7,454.6z"/>
	<path id="XMLID_685_" class="st0" d="M861,164.8c2.5-4.3,4.7-8.7,7.4-12.8c1.4-2.1,3.7-3.5,6.3-4.6c-3.2,11.5-9.5,20.8-15.8,30.1
		c-0.6-0.3-1.2-0.6-1.8-0.8C858.5,172.7,859.8,168.7,861,164.8L861,164.8z"/>
	<path id="XMLID_684_" class="st0" d="M827.2,184.4c0-11.4,3.2-21.7,9.5-30.8C838.3,165.6,833.7,175.3,827.2,184.4z"/>
	<path id="XMLID_683_" class="st0" d="M835.7,350.7c10.3,11.7,15.4,25,14.2,42C844.9,377.8,840.3,364.3,835.7,350.7z"/>
	<path id="XMLID_677_" class="st0" d="M823.7,416.3c-8.5-7.8-14.4-16-18-26.3C812.5,391.6,823.1,406.7,823.7,416.3z"/>
	<path id="XMLID_673_" class="st0" d="M887.5,359.2c10.5,0.3,18.7,4.8,26.9,11.3C908,372.6,891.8,365.8,887.5,359.2z"/>
	<path id="XMLID_669_" class="st0" d="M898.2,324.4c-5.8,7.1-22.4,10.9-32.6,6.9C877.2,328.8,887.5,326.6,898.2,324.4z"/>
	<path id="XMLID_663_" class="st0" d="M848.2,300.9c7.3-4.3,14.6-8.5,22.5-13.1c-1.7,7.6-17,17.8-25.1,17.1
		C846.5,303.4,847.4,302.1,848.2,300.9L848.2,300.9z"/>
	<path id="XMLID_662_" class="st0" d="M813.6,432.2c6.1,3.4,11.9,16.5,11.5,25.9C820.3,454.9,813,438.4,813.6,432.2z"/>
	<path id="XMLID_652_" class="st0" d="M904.6,400.7c-6.1-7.8-12.2-15.6-19-24.1C893.2,377.1,904.8,391.6,904.6,400.7z"/>
	<path id="XMLID_648_" class="st0" d="M813.5,350.1c4.1,8.6,6.8,17.3,2.9,26.7C812.5,368.2,812.5,359.2,813.5,350.1z"/>
	<path id="XMLID_616_" class="st0" d="M904.2,161.8c-5.6,8.4-13.2,14.2-22.3,17.8c-0.5-0.6-0.9-1.3-1.4-1.9
		c7.4-5.9,14.9-11.9,22.3-17.8C903.3,160.5,903.8,161.1,904.2,161.8z"/>
	<path id="XMLID_611_" class="st0" d="M800,342.7c-3.4-8.4-5.5-16.9-3.5-25.9C800.9,325,803.7,333.4,800,342.7z"/>
	<path id="XMLID_600_" class="st0" d="M746.5,416.7c-7.3,2.6-14.6,5.3-22,7.9C727,417.2,738.8,412.9,746.5,416.7z"/>
	<path id="XMLID_595_" class="st0" d="M802.7,477.3c-3-8.3-3.9-15.5-2-23.3C805.7,458.4,806.9,470,802.7,477.3z"/>
	<path id="XMLID_533_" class="st0" d="M828.7,363.8c4.5,7.1,6.4,14.7,4,23.1C828.9,379.6,827.4,372,828.7,363.8z"/>
	<path id="XMLID_515_" class="st0" d="M905.3,203.7c-6.5,4.9-13.9,5.4-21.6,4.5C890.2,203.4,897.4,202.2,905.3,203.7z"/>
</g>
<line id="XMLID_79_" class="st1" x1="579" y1="884" x2="1109" y2="884"/>
<g id="XMLID_97_">
	<path id="XMLID_1337_" class="st0" d="M157.9,140.2c-0.6,2.6-1.6,5.1-1.6,7.7c0.3,13.6,1.1,27.3-3.5,40.4
		c-4.2,11.9-10.3,22.7-21,30.1c-3.6,2.5-8.4,3.6-12.7,4.7c-4.1,1-7.3,2.5-7.1,7.2c0.4,10.7-3.4,17.2-13.9,20.7
		c-10.2,3.4-20.7,6.4-31.3,8.5c-14.7,3-29.4,6.6-44.8,5.5c-4.8-0.3-10.9-1-13.5,5.2c-1.9,4.5-0.5,6.8,4.4,7.1
		c1.6,0.1,3.2-0.4,4.8-0.5c7.4-0.6,14.8-0.9,22.2-1.8c5.5-0.7,10.8-2.1,16.3-3c2.9-0.5,5.9-0.5,8.8-0.7c4.4-0.3,9.5,0.6,13.2-1.2
		c14.6-6.9,29.3-14.1,41-25.4c3.4-3.3,5.7-7.7,8.5-11.6c1.6-2.2,2.8-5.5,4.9-6.3c14.1-5,19.4-17,24.4-29c7.1-17.2,8-35.2,4.8-53.5
		c-0.2-1-0.5-1.9-0.8-2.8c-0.1-0.3-0.5-0.6-0.8-0.9C159.3,140.6,158.6,140.4,157.9,140.2z"/>
	<path id="XMLID_1334_" class="st0" d="M104.5,239.1c-10.3,0.3-20.6,0.5-30.9,0.9c-1.8,0.1-3.4,1.1-5.2,1.3
		c-5.7,0.8-11.4,1.9-17.1,1.9c-4.6,0-8.3,0.2-12,3.7c-2.5,2.3-9.6,3.5-12.7,2.9C16.3,247.7,0,248.5,0,248.5v11.4
		c0,0,17,2.2,30.2,1.2c8.5-0.6,17.7-3.4,26.2-4.1c2.6-0.2,5.6,0.3,7.6-0.8c9.8-5.2,20.4-6.6,31.3-7.4
		C103.1,248.2,104.4,246.4,104.5,239.1z"/>
	<path id="XMLID_1331_" class="st0" d="M8.7,274.7c1.5,1.1,3.1,2.1,4.4,3.3c2.6,2.2,5.3,4.5,7.6,7c2.3,2.5,4.2,4.1,7.3,1.2
		c2.6-2.4,5.5-2.9,8.9-1.1c3.9,2.1,7.3,4.4,12.4,4.7c3.5,0.2,6.7,5.6,10.1,8.6c3.3,2.8,6.7,5.5,10.3,8c0.5,0.4,2.7-0.2,2.9-0.8
		c0.3-1.2,0.4-3.1-0.4-3.8c-3.5-3.7-7.3-7.2-11.1-10.8c-1-0.9-2.1-1.6-3-2.6c-4.5-4.8-10-6.9-16.6-8.1c-8.4-1.5-16.3-5.3-24.6-7.7
		c-2.4-0.7-5.3,0.2-8,0.4C9,273.5,8.8,274.1,8.7,274.7z"/>
	<path id="XMLID_1329_" class="st0" d="M183.2,243.2c-3.1-4.8-5.6-5.3-9.9-3.9c-6.3,2.1-13.1,3-19.7,4.3c-2.7,0.6-6.2,0.1-8,1.6
		c-9.7,7.8-22,7.4-33.2,10.6c-2.9,0.8-5.5,3-9.3,5.2c7.2,3.7,12.2,5.4,18.6,2.5c4.2-1.9,9.4-1.4,14-2.8c4.4-1.3,8.5-3.6,12.7-5.5
		c2.8-1.3,5.6-2.8,8.5-3.8C165.4,248.6,173.9,246.1,183.2,243.2z"/>
	<path id="XMLID_1327_" class="st0" d="M156.8,125.7c-2.6-33.7-16-64.4-28.5-95.3C131.3,64,147.3,93.9,156.8,125.7z"/>
	<path id="XMLID_1325_" class="st0" d="M331.3,207.4c-41.7-5-80.3,10.2-120.3,16.3c0.2,1,0.3,2,0.5,3c9.8-1.5,19.6-2.9,29.3-4.6
		c10.1-1.9,20-4.5,30.1-6.2c9.9-1.6,19.9-2.5,29.9-3.6c10.2-1,20.4-1.8,30.5-2.7C331.3,208.8,331.3,208.1,331.3,207.4z"/>
	<path id="XMLID_1318_" class="st0" d="M310.5,174.7c-30,16.5-59.5,34.2-93.7,42C233.7,221.6,295.7,193.9,310.5,174.7z"/>
	<path id="XMLID_1317_" class="st0" d="M151.7,131.4c-3.4-21.3-46.1-63.2-64.5-63.7C112.3,85.4,134.6,105.9,151.7,131.4z"/>
	<path id="XMLID_1312_" class="st0" d="M130.1,242.1c7.7,0.7,14.4,0.1,21-2.7c4.6-1.9,9.7-2.9,14.6-4c2.7-0.6,5.6-0.4,8.3-1.2
		c5.5-1.5,4.7-5.8,3.4-9.6c-1.7-4.7-4.4-1-6.8-0.6c-3.4,0.7-6.9,1.1-10.4,1.9c-2.1,0.5-4,1.3-6,2c-5.3,1.9-10.5,4.6-16,5.5
		C133,234.2,130.7,236.3,130.1,242.1z"/>
	<path id="XMLID_1309_" class="st0" d="M150.6,56.8c1.4,6.5,3.1,13,4.1,19.5c1.3,8.2,2.1,16.4,3.2,24.6c0.3,2.2,1.2,4.4,2.6,6.4
		c1.7-29.4-3-57.8-11.6-85.8c-0.7,0-1.4,0.1-2,0.1c0.2,2.8,0.3,5.6,0.6,8.3C148.5,39,149.6,48,150.6,56.8L150.6,56.8z"/>
	<path id="XMLID_1308_" class="st0" d="M223.4,230.5c29.7,1.1,59.4,2.2,89.2,3.4c0-0.8,0-1.6,0.1-2.4c-29.6-5.6-59.3-7.3-89.2-2.4
		C223.4,229.6,223.4,230,223.4,230.5z"/>
	<path id="XMLID_1306_" class="st0" d="M244.8,145c-23.6,17-39.8,39.3-49.6,66.3c0.5,0.3,1,0.7,1.5,1c7.5-11.5,14.4-23.6,22.8-34.5
		c8.4-11,18.2-20.8,27.5-31.2C246.2,146.1,245.5,145.5,244.8,145z"/>
	<path id="XMLID_1303_" class="st0" d="M194.7,221.5c25.9-14.9,46.8-34.7,60.6-61.2C235,180.7,214.9,201.1,194.7,221.5z"/>
	<path id="XMLID_1302_" class="st0" d="M224.8,257.2c-8.7-6.5-17.3-13-26.1-19.4c-1.8-1.3-3.9-2.1-6.4-2.5
		c16,16.6,31.7,33.3,49.8,47.5c0.7-0.5,1.3-1,2-1.6c-4.1-5.5-8.2-11.1-12.3-16.6C229.5,262.2,227.2,259.7,224.8,257.2z"/>
	<path id="XMLID_1300_" class="st0" d="M133.5,84.6c-9.6-8.4-19.3-16.9-29-25.3c-3-2.6-6.1-4.9-9.2-7.4c-0.6,0.4-1.2,0.8-1.7,1.2
		c1.2,2.2,2,4.7,3.6,6.5c4.8,5.1,10.2,9.6,15,14.7c8.7,9.1,17.2,18.3,25.8,27.5c1.4,1.5,2.7,3,4,4.6c0.6-0.3,1.1-0.7,1.7-1
		C140.4,98.4,136.9,91.5,133.5,84.6L133.5,84.6z"/>
	<path id="XMLID_1136_" class="st0" d="M167.4,127.2c17.7-15.1,31.5-32,46-49.6C202.1,80.2,168.3,116.3,167.4,127.2z"/>
	<path id="XMLID_1131_" class="st0" d="M88.9,362.8c-1.5-16.8-6-32.8-13.8-48C77.4,331.4,81.5,347.6,88.9,362.8z"/>
	<path id="XMLID_1129_" class="st0" d="M231.4,207.3c25.6-5.3,47.2-17.6,65.5-35.7c-22.1,11.4-44.1,22.8-66.2,34.2
		C230.9,206.3,231.1,206.8,231.4,207.3z"/>
	<path id="XMLID_1125_" class="st0" d="M196.8,231.4c18.7,12.3,37.4,24.6,56,36.9c-14.3-18.5-32.6-31.4-54.6-39
		C197.8,230,197.3,230.7,196.8,231.4z"/>
	<path id="XMLID_1122_" class="st0" d="M100.1,132.9c17.1,13.6,34.3,27.3,50.8,40.3C149.3,160.7,116.9,133.7,100.1,132.9z"/>
	<path id="XMLID_1121_" class="st0" d="M133.5,84.6c2.6,2.6,5.1,5.1,8.3,8.2c-0.5-11.9-27.8-47.2-39.8-50.4
		c4.7,6.3,9.3,12.6,14,18.8C121.7,69.1,127.6,76.8,133.5,84.6L133.5,84.6z"/>
	<path id="XMLID_1117_" class="st0" d="M84.9,111.3c20.2,14.8,40.4,29.5,61.3,44.8C130.1,134.8,109.9,119.9,84.9,111.3z"/>
	<path id="XMLID_1116_" class="st0" d="M133.4,303.1c-15.8,2.3-31.6,4.6-47.4,7c0.1,0.6,0.2,1.3,0.3,1.9c16.5,1.9,31.9-2.7,47.5-7.1
		C133.6,304.3,133.5,303.7,133.4,303.1z"/>
	<path id="XMLID_1115_" class="st0" d="M101.7,100.9c16.5,13.3,33,26.7,51.1,41.2c-1.4-3.3-1.7-5.3-2.9-6.7
		c-12-14.2-26.2-25.8-42.9-34.3c-1.5-0.7-3.2-1.1-4.8-1.6C102,100,101.9,100.4,101.7,100.9z"/>
	<path id="XMLID_871_" class="st0" d="M153.5,156.3c-1.7-11.9-32.9-38.7-47.9-41.6C121.9,128.9,137.2,142.1,153.5,156.3z"/>
	<path id="XMLID_870_" class="st0" d="M214.4,195c15.4-10.8,26.6-25.1,34.9-41.6C234.5,164.7,222.7,178.4,214.4,195z"/>
	<path id="XMLID_865_" class="st0" d="M225.2,283.6c-6.5-17.4-17.8-30.9-34.2-40.3C199.4,259.2,212.9,270.9,225.2,283.6z"/>
	<path id="XMLID_838_" class="st0" d="M124.9,345.3c-11.1-9.5-23.8-16-38.1-19.4C98.3,334.5,111.2,340.8,124.9,345.3z"/>
	<path id="XMLID_835_" class="st0" d="M168.5,138.5c16.6-12.7,33.3-25.5,50.1-38.4C208.1,99.4,172.2,126.1,168.5,138.5z"/>
	<path id="XMLID_831_" class="st0" d="M236.2,235.4c16.6,7.5,34.3,10.7,53.1,12.5C283.3,240.7,249,232.5,236.2,235.4z"/>
	<path id="XMLID_827_" class="st0" d="M83,304.4c14.3,0.4,27.4-3.8,40.1-9.7C109.1,295.3,95.8,298.8,83,304.4z"/>
	<path id="XMLID_825_" class="st0" d="M109.2,365.5c0.2-8.1-13.8-29.3-21.7-33.4C93,343.8,100.5,354.3,109.2,365.5z"/>
	<path id="XMLID_824_" class="st0" d="M67.9,311.8c-1.5,14-3.1,28-4.6,42.4c5.5-4.8,9.1-30.7,6.2-42.2
		C69,311.9,68.5,311.9,67.9,311.8z"/>
	<path id="XMLID_823_" class="st0" d="M133.7,317.3c-15.5,0.1-31,0.1-46.1,0.2C92.8,323.1,124.4,323.2,133.7,317.3z"/>
	<path id="XMLID_821_" class="st0" d="M150.7,56.9c-3.4-9.4-6.8-18.9-10.2-28.3c-1.1,0.3-2.1,0.6-3.2,1c4.3,16.9,8.5,33.9,12.8,50.8
		c1-0.1,1.9-0.2,2.9-0.4c-0.3-3.8-0.5-7.6-0.8-11.4C151.7,64.6,151.2,60.7,150.7,56.9L150.7,56.9z"/>
	<path id="XMLID_820_" class="st0" d="M313.3,218.6c-16.9-4.1-33.4-2.7-49.5,3.5C280.5,224.3,297,222.8,313.3,218.6z"/>
	<path id="XMLID_801_" class="st0" d="M162.4,23.7c-2.5,19.5-2,39,1.2,58.5C167.6,62.7,165.7,43.2,162.4,23.7z"/>
	<path id="XMLID_776_" class="st0" d="M184.7,39.6c-5.7,19.1-11.5,38.2-17.2,57.3c0.7,0.2,1.3,0.4,2,0.6
		c10.3-17.8,15.5-37.1,17.3-57.5C186.1,39.9,185.4,39.8,184.7,39.6z"/>
	<path id="XMLID_770_" class="st0" d="M71,292.8c6.7,4.4,29.1,0.1,36.2-7.1C95.5,288,83.7,290.3,71,292.8z"/>
	<path id="XMLID_769_" class="st0" d="M185.6,221.4c6.3-17.6,12.5-35.2,18.8-52.7c-0.6-0.2-1.3-0.5-1.9-0.7
		c-10.4,16.1-16.7,33.7-19.3,52.7C184,220.9,184.8,221.2,185.6,221.4z"/>
	<path id="XMLID_762_" class="st0" d="M296.7,199c7.4-5,14.8-9.9,22.1-15c1.6-1.1,2.9-2.9,3.4-5.4c-15,8-30,16.1-45,24.1
		c0.1,0.5,0.2,1,0.3,1.5c3.8-0.8,7.7-1.5,11.5-2.3C291.6,201,294.2,200,296.7,199z"/>
	<path id="XMLID_761_" class="st0" d="M119.1,287.6c-13.4,3.5-26,6.7-39.3,10.2C87,301.1,114.3,294.1,119.1,287.6z"/>
	<path id="XMLID_756_" class="st0" d="M166.1,114.5c13.1-14.7,23.6-30.9,29.5-49.8c-0.6-0.3-1.2-0.7-1.8-1
		c-9.7,16.6-19.4,33.2-29.1,49.8C165.1,113.9,165.6,114.2,166.1,114.5z"/>
	<path id="XMLID_748_" class="st0" d="M234.9,243.8c15.1,6.7,30.7,11.7,47.7,13.7C277.8,251.4,242.3,240.8,234.9,243.8z"/>
	<path id="XMLID_744_" class="st0" d="M125.7,337.1c-8.7-6.9-18.6-11.4-29.6-13.4C104.7,331,114.6,335.3,125.7,337.1z"/>
	<path id="XMLID_738_" class="st0" d="M72.4,359.5c4.9-8,5.2-24.4,0.4-30.7C71,339.6,70.9,349.6,72.4,359.5z"/>
	<path id="XMLID_733_" class="st0" d="M172.5,143.9c14.2-9.7,28.4-19.4,42.5-29.1C206.5,113.4,175.3,133.4,172.5,143.9z"/>
	<path id="XMLID_732_" class="st0" d="M63.4,313.3c-4.3,10.2-8,19.3-12.1,29.1C58.7,340.5,66.1,322.4,63.4,313.3z"/>
	<path id="XMLID_731_" class="st0" d="M280.2,167.8c-14.4,8.8-28.7,17.5-43.1,26.3C246.7,195.5,276.1,177.2,280.2,167.8z"/>
	<path id="XMLID_726_" class="st0" d="M171.4,151.9c14-6.5,28-13,42-19.5c-0.2-0.5-0.5-1-0.7-1.6c-15.8,2.6-30.2,8.4-42.4,18.9
		C170.7,150.5,171,151.2,171.4,151.9z"/>
	<path id="XMLID_721_" class="st0" d="M296.7,199c-2.6,1-5.1,1.9-7.7,2.9c1.2,0.7,2.5,2.1,3.5,1.9c14.8-3.2,29.6-6.7,44.4-10.1
		c0.3-0.1,0.4-0.6,1.1-1.7C323.3,191.1,310.1,196,296.7,199z"/>
	<path id="XMLID_713_" class="st0" d="M179.9,214.5c3.7-14.3,0.4-28.9,2-44.5C175.5,179.7,174.3,206,179.9,214.5z"/>
	<path id="XMLID_712_" class="st0" d="M43.9,323.8c8.4-3.8,14.3-17.3,11.8-25.8C51.5,307.2,47.7,315.5,43.9,323.8z"/>
	<path id="XMLID_711_" class="st0" d="M59.7,305.1c-4.5,9.7-9,19.3-13.7,29.5C53,331.6,61.2,314.1,59.7,305.1z"/>
	<path id="XMLID_709_" class="st0" d="M110.8,25.3c1.4,13.8,7.9,25.1,18,34.4C125.8,46.7,118.3,36,110.8,25.3z"/>
	<path id="XMLID_701_" class="st0" d="M101.8,338.4c-0.1,8,8.6,19.4,16.9,22C113.9,351.9,108.3,345.5,101.8,338.4z"/>
	<path id="XMLID_700_" class="st0" d="M204.2,71.1c-10.5,6.2-17.3,15.3-21.7,26.4C193.2,91.5,200.5,82.8,204.2,71.1z"/>
	<path id="XMLID_699_" class="st0" d="M98,87.4c10.2,7.6,20.4,15.3,31.5,23.6C128.5,101.1,111.8,88.7,98,87.4z"/>
	<path id="XMLID_698_" class="st0" d="M101.1,367.9c-0.5-9.2-4.7-15.5-9.9-21.8C89.1,351.7,94.1,363,101.1,367.9z"/>
	<path id="XMLID_696_" class="st0" d="M109.6,313.9c9.7,1.2,19.2,0.7,28.3-3.4C128.2,309.1,118.8,310.9,109.6,313.9z"/>
	<path id="XMLID_695_" class="st0" d="M133.6,295c-9.4,2.8-18.7,5.6-28.1,8.3c0.2,0.6,0.4,1.1,0.5,1.7c10-0.6,19.4-3.6,28.2-8
		C134.1,296.3,133.8,295.6,133.6,295z"/>
	<path id="XMLID_694_" class="st0" d="M223.1,83.6c-10.9,4.1-19.4,10.9-25.4,20.5C208.6,100.2,216.9,93.2,223.1,83.6z"/>
	<path id="XMLID_688_" class="st0" d="M274,156.3c-10.5,5.8-19.1,13.4-24.8,23.9C260.4,175.1,268,166.5,274,156.3z"/>
	<path id="XMLID_682_" class="st0" d="M117.1,324.6c7.8,3.7,15.9,4.3,24.3,3.1C133.6,324.1,125.5,322.6,117.1,324.6z"/>
	<path id="XMLID_667_" class="st0" d="M224.8,257.2c2.3,2.5,4.6,5,7,7.5c5.4,4.2,10.8,8.5,16.2,12.7c0.5-0.5,1-1.1,1.5-1.6
		c-7.2-9-15.4-17.1-26.4-23C223.7,254.3,224.3,255.7,224.8,257.2z"/>
	<path id="XMLID_666_" class="st0" d="M175.9,29.1c-3.5,10.8-5.7,21.8-2.7,33.2C177.9,51.7,178.4,40.5,175.9,29.1z"/>
	<path id="XMLID_660_" class="st0" d="M198.2,148.5c-10.9,1.7-20.2,4.2-28.2,11.3C176.1,162.4,192.1,156,198.2,148.5z"/>
	<path id="XMLID_649_" class="st0" d="M126.2,357.6c-1.6-7-8.2-12.7-14.8-13C114.8,350.7,119.6,354.6,126.2,357.6z"/>
	<path id="XMLID_631_" class="st0" d="M87.5,285.9c-7.3-0.7-14.2-0.1-20.6,3.5C74.4,291.3,81.1,289.7,87.5,285.9z"/>
	<path id="XMLID_608_" class="st0" d="M184.5,69c6.2-7.1,8.9-15.4,7.9-24.8C186.8,51.5,184,59.7,184.5,69z"/>
	<path id="XMLID_603_" class="st0" d="M55.9,355.6c4.8-5.3,6.8-10.9,6.7-17.5C57.8,341.1,54.2,350.1,55.9,355.6z"/>
	<path id="XMLID_601_" class="st0" d="M239.9,293.6c-0.9-9-9.3-19.9-16.3-22C226.5,280.5,231.6,287.3,239.9,293.6z"/>
	<path id="XMLID_535_" class="st0" d="M186.8,186.4c6.7-5,10.4-16.3,7.4-24C190,170.4,186.4,177.4,186.8,186.4z"/>
	<path id="XMLID_510_" class="st0" d="M210.8,174.9c4.8-6.5,9.6-12.9,14.8-19.9C218,155.3,209.8,165.5,210.8,174.9z"/>
	<path id="XMLID_480_" class="st0" d="M348.7,202.5c-9-3.9-17.4-3.7-26.6-3.1C326.2,203.6,341.1,205.3,348.7,202.5z"/>
	<path id="XMLID_229_" class="st0" d="M320.6,190.5c6.9-2.9,13.9-5.8,20.8-8.7c-0.4-0.8-0.7-1.6-1.1-2.4c-7.9,0.8-14.4,4.6-20.8,8.9
		C319.9,189,320.2,189.8,320.6,190.5z"/>
	<g id="XMLID_101_">
		<path id="XMLID_604_" class="st0" d="M158.7,300.9c-5.7-0.9-7.7,2-8.5,5.6c-0.3,1.1,1.4,3.6,2.7,4.1c4,1.3,10-1.4,9.9-4.7
			C162.7,304.2,160.2,302.6,158.7,300.9z"/>
		<g id="XMLID_100_">
			<path id="XMLID_751_" class="st0" d="M154.4,296.9c-1.2-1.2-1.8-2.2-2.7-2.7c-2-0.9-4.1-1.5-6.1-2.2c-0.6,2.7-1.3,5.4-1.9,8.1
				c2.5,0.2,5,0.5,7.5,0.5c1.7,0,3.5-0.6,5.2-0.9c2-0.4,4.5-0.2,5.8-1.3c2-1.7,3.3-4.3,4.9-6.5c-2.2-1.1-4.4-2.6-6.8-3.1
				c-3.9-0.8-4.5,2.1-5,5C155.3,294.7,154.9,295.5,154.4,296.9z"/>
			<path id="XMLID_741_" class="st0" d="M196.4,309.2c5.4,8.8,18.5,10.6,24.2,4c1.1-1.2,1.3-3.8,0.8-5.4c-0.2-0.9-2.9-2.1-4-1.8
				c-3.4,0.8-6.5,2.9-9.9,3.5C204.2,309.9,200.6,309.3,196.4,309.2z"/>
			<path id="XMLID_729_" class="st0" d="M184.8,313.7c2.3,5.3,4.2,9.8,6.1,14.3c3.5-2,6.9-3.9,10.4-5.9c-3.5-3.7-7-7.6-10.8-11
				C190,310.7,187.4,312.5,184.8,313.7z"/>
			<path id="XMLID_681_" class="st0" d="M167.5,296.2c0.9,1.9,1.4,4.9,2.9,5.6c3.1,1.4,9.5-2.9,10.6-6.4c1.2-4-1.9-4.4-4.6-5.4
				C170.7,288,169.5,291.5,167.5,296.2z"/>
			<path id="XMLID_680_" class="st0" d="M183.8,282.7c-0.7,2.6-3.5,5.5,1.4,7.1c4.1,1.4,12.8-0.8,13.2-3.6c0.2-1.1-1-2.7-2-3.5
				C192.2,279.7,187.9,279.2,183.8,282.7L183.8,282.7z"/>
			<path id="XMLID_679_" class="st0" d="M203.9,321.8c3.6,5.7,13.6,7.7,17.7,3.7c1-1,1.8-3.1,1.4-4.2c-0.4-1.1-2.6-2.5-3.8-2.3
				C214.1,319.6,209.1,320.8,203.9,321.8z"/>
			<path id="XMLID_678_" class="st0" d="M183.4,317.6c-3.3,3.7-6.7,7.3-9.6,11.2c-0.8,1.1-0.8,4,0,4.8c1,0.9,3.6,1.1,5.1,0.6
				C184.6,332,186.8,323.6,183.4,317.6z"/>
			<path id="XMLID_670_" class="st0" d="M153.1,284.5c6.7,3.5,11.1,2.1,14.4-2c1-1.3,1.2-5,0.4-5.5c-2-1.1-5.5-2.2-6.9-1.3
				C158,277.8,155.9,281.2,153.1,284.5z"/>
			<path id="XMLID_665_" class="st0" d="M176.3,263.5c-7.3-1.1-7.8,3.5-9,6.8c-0.4,1.1,0.9,4,2.1,4.4c3.6,1.4,10.6-2.7,10.4-6.1
				C179.6,266.5,177.1,264.6,176.3,263.5z"/>
			<path id="XMLID_659_" class="st0" d="M202.5,328.9c2.2,6.8,7,10.6,11.9,10c1.6-0.2,4-1.8,4.4-3.1c0.3-1.3-1.3-4.2-2.5-4.6
				C212.1,330.1,207.7,329.7,202.5,328.9z"/>
			<path id="XMLID_658_" class="st0" d="M198,330.3c-1.1,4.9-2.4,9-2.6,13c-0.1,1.5,2.8,3.1,4.3,4.7c1.4-1.5,3.7-2.8,3.9-4.4
				C204.2,338.8,203.5,334.2,198,330.3z"/>
			<path id="XMLID_653_" class="st0" d="M155.2,269.6c6.4,1.4,8.5-1.9,9.4-6.2c0.3-1.3-1.1-3.8-2.3-4.2c-3.5-1.2-10.9,2.7-10.8,5.7
				C151.6,266.4,153.9,268,155.2,269.6z"/>
			<path id="XMLID_651_" class="st0" d="M183.7,282.8c-0.6-2-0.8-5.4-1.9-5.7c-2.3-0.7-5.6-0.4-7.5,0.8c-2.3,1.4-3.6,4.4-5.6,6.9
				C174.9,288.3,179.4,285.5,183.7,282.8L183.7,282.8z"/>
			<path id="XMLID_615_" class="st0" d="M180.3,251.2c-4.6,2.3-10.4,3.6-10.8,5.8c-0.9,5.1,5.6,3.5,8.6,5.2c0.7,0.4,4.2-2.5,5.3-4.5
				C183.9,256.8,181.9,254.4,180.3,251.2z"/>
			<path id="XMLID_602_" class="st0" d="M144.3,274.3c1.8,2.7,3.6,6.3,4.2,6.1c3.3-1,6.3-2.8,9.4-4.4c-2.6-2-4.9-4.5-7.8-5.9
				C149.3,269.7,146.9,272.3,144.3,274.3z"/>
			<path id="XMLID_594_" class="st0" d="M141.1,281.4c0.7-1.3,1.8-2.5,1.9-3.9c0.1-2.3-0.4-4.6-0.6-6.9c-2.5,1.3-5.7,2-7.2,4
				c-1.4,1.8-1,4.9-1.5,8.2C137,282.2,139.1,281.8,141.1,281.4L141.1,281.4z"/>
			<path id="XMLID_528_" class="st0" d="M191.1,333c-3.6,1.8-7,3.4-10.3,5.4c-0.8,0.5-1.6,2.5-1.2,3.2c0.6,1.1,2.1,2.1,3.3,2.2
				C189,344.6,192.8,340,191.1,333z"/>
			<path id="XMLID_527_" class="st0" d="M183.9,268.6c3.8-1.7,9.5-0.7,9.9-6.5c0.1-1.6-3.5-4.3-5.8-5
				C185.3,256.4,182.8,263.1,183.9,268.6z"/>
			<path id="XMLID_525_" class="st0" d="M176.3,318.1c-3.8,1.4-7.2,2.3-10.3,3.9c-1.2,0.6-2.3,2.7-2.3,4.2c0,0.7,2.5,2.1,3.8,2.1
				C172.5,328.5,176.3,324,176.3,318.1z"/>
			<path id="XMLID_491_" class="st0" d="M184.1,275.1c4.6,3.2,8.2,2.5,11.1-0.1c1.3-1.2,1.5-3.5,2.2-5.4c-2.2-0.4-5-1.8-6.6-1
				C188.3,270,186.5,272.7,184.1,275.1z"/>
			<path id="XMLID_482_" class="st0" d="M183.6,296.1c1.7,2.7,3.1,5.2,3.4,5.1c3.3-1.2,6.4-2.8,9.6-4.3c-1.9-1.5-3.7-4-5.7-4.2
				C188.9,292.5,186.6,294.6,183.6,296.1z"/>
			<path id="XMLID_469_" class="st0" d="M207.6,285.5c-6.1-1-7.5,2.5-8.8,5.6c-0.3,0.6,2.2,3.2,2.5,3.1c3-1.3,5.8-3,8.7-4.6
				C209.1,287.9,208.1,286.3,207.6,285.5z"/>
			<path id="XMLID_448_" class="st0" d="M161.4,319.1c3.1-1.4,6.3-2.7,9.2-4.5c0.9-0.6,1.4-3.7,0.8-4.2c-1.2-0.9-3.9-1.7-4.8-1.1
				c-2.7,1.9-4.8,4.6-7.1,7C160.1,317.3,160.7,318.2,161.4,319.1z"/>
			<path id="XMLID_231_" class="st0" d="M199.7,302.3c5.5,3.5,9.3,2.9,12.3-0.5c0.9-1,0.8-3.5,0.2-4.8c-0.3-0.7-3.2-1-4.4-0.4
				C205.2,297.9,202.9,299.9,199.7,302.3z"/>
			<path id="XMLID_166_" class="st0" d="M180.7,300.4c-2.4,2.9-4.3,4.8-5.5,7c-0.3,0.6,1.9,3.3,2,3.2c2.8-1.4,5.5-3,8.2-4.5
				C184.2,304.7,183,303.3,180.7,300.4z"/>
			<path id="XMLID_41_" class="st0" d="M141.2,281.4c-0.8,2-1.6,4.1-2.4,6.1c2.2,0.5,4.5,1.6,6.6,1.4c1.4-0.1,2.6-2.1,3.9-3.3
				c-1.2-1.3-2.3-2.8-3.8-3.7C144.3,281.3,142.6,281.5,141.2,281.4L141.2,281.4z"/>
			<path id="XMLID_99_" class="st0" d="M199.8,273.6c-1.8,1.4-3.5,2.9-5.3,4.3c0.1,0.6,0.2,1.2,0.2,1.9c2.9,0.4,5.7,0.8,8.6,1.3
				c-0.5-2.4-0.9-4.9-1.4-7.3C201.2,273.7,200.5,273.7,199.8,273.6z"/>
		</g>
	</g>
</g>
</svg>
