<?xml version="1.0" encoding="utf-8"?>
<!-- Generator: Adobe Illustrator 19.0.0, SVG Export Plug-In . SVG Version: 6.00 Build 0)  -->
<svg version="1.1" id="Layer_1" xmlns="http://www.w3.org/2000/svg" xmlns:xlink="http://www.w3.org/1999/xlink" x="0px" y="0px"
	 viewBox="100 -100 500 500" style="enable-background:new 100 -100 500 500;" xml:space="preserve">
<style type="text/css">
	.st0{fill:#464646;}
</style>
<g>
	<path class="st0" d="M313.3,39.4c-20.2-4.4-40-4.7-61-1c1.4-6.2,2.4-11.9,3.9-17.4C277.4-52.9,347.1-105,428.7-99.6
		c74.6,4.9,139.7,64.1,150.9,139.3c2.6,17.6,2.6,35.6,3.1,53.4c1.9,71.4,3.5,142.8,5.3,214.2c0.7,28.7,1.4,57.3,2.1,86
		c0,1.9,0,3.8,0,6.2c-19.8,0-39.4,0-59.5,0c-0.2-5-0.6-10.1-0.7-15.1c-2.2-88.1-4.3-176.2-6.5-264.3c-0.5-18.8-1-37.6-1.5-56.4
		c-1.3-51.8-39.4-94.9-90.5-102.5c-50.6-7.5-99.5,22.8-115.9,71.8C314.8,34.9,314.2,36.9,313.3,39.4z"/>
	<path class="st0" d="M407.6,139.6c-84.9,0-169.4,0-254,0C164.2,100.2,209,48.9,278.7,48C348.7,47.1,395.4,97.1,407.6,139.6z"/>
	<path class="st0" d="M280.1,181.8c-42,0-83.9,0-125.9,0c-9.5,0-15.8-4.8-16.9-12.7c-1.4-9.8,5.4-17.3,16.2-17.4
		c15.8-0.1,31.5,0,47.3,0c45.1,0,90.2,0,135.4,0c23.7,0,47.4,0,71.1,0c6.8,0,12.3,2.3,15.3,8.8c2.5,5.4,1.9,10.8-1.8,15.6
		c-3.6,4.6-8.5,5.8-14.2,5.8C364.4,181.7,322.3,181.8,280.1,181.8z"/>
	<path class="st0" d="M132.8,342.3c9,7.1,17,14.5,21,25.2c4.1,10.7,1.1,21.6-7.5,28.1c-7.9,5.9-18.9,5.9-27.1-0.1
		c-8.4-6.1-11.5-17.1-7.7-27.5C115.6,357.1,123.6,349.4,132.8,342.3z"/>
	<path class="st0" d="M169,269.5c9.5,7.2,17.5,14.9,21.4,26c5.2,14.8-3.9,30-18.5,31.4c-17,1.7-29.5-13.5-24.6-29.9
		C150.8,285.1,159.4,277.1,169,269.5z"/>
	<path class="st0" d="M390.8,269.5c9.6,7.5,18.2,15.5,21.6,27.4c2.6,9.1,0.9,17.4-6.2,24c-6.8,6.4-15,7.8-23.8,4.6
		c-12.1-4.4-17.8-18.3-12.7-31.1C373.9,283.9,381.7,276.3,390.8,269.5z"/>
	<path class="st0" d="M428.3,342.4c9.4,7.2,17.5,15,21.4,26.2c3.6,10.1,0.3,21-7.9,27c-7.9,5.8-18.7,6-26.6,0.3
		c-8.5-6-12-16.5-8.6-26.8C410.5,357.7,418.8,349.7,428.3,342.4z"/>
	<path class="st0" d="M353,196.7c8.4,6,15.4,13,19.9,22c6.4,12.9,2.4,27-9.2,33c-8.4,4.3-18.3,3.2-25.5-3
		c-7.4-6.4-9.9-16.7-6.2-26.5C335.9,211.5,343.8,203.9,353,196.7z"/>
	<path class="st0" d="M206.9,342.5c9.1,7.3,17.2,14.9,21.1,25.9c3.6,10.3,0.6,20.7-7.7,27c-7.7,5.9-18.4,6.1-26.6,0.5
		c-8.2-5.6-11.8-16.3-8.8-26.2C187.8,360,196.1,349.7,206.9,342.5z"/>
	<path class="st0" d="M280.5,342.4c9.4,7.2,17.6,15,21.4,26.3c3.6,10.5,0.3,21.1-8.4,27.3c-7.8,5.5-19,5.4-26.6-0.4
		c-8.2-6.2-11.3-16.9-7.7-27.1C263.1,357.3,271.2,349.5,280.5,342.4z"/>
	<path class="st0" d="M205.5,196.7c9,7.2,17.1,14.6,21,25.4c3.9,10.6,0.9,21.3-7.3,27.6c-8,6-19.6,6-27.6-0.1
		c-8.2-6.3-11.3-17.2-7.3-27.7C188.3,211.3,196.1,203.7,205.5,196.7z"/>
	<path class="st0" d="M242.9,269.5c9.4,7.2,17.5,15.1,21.4,26.3c4.2,12-1.3,24.8-12.4,29.5c-11.1,4.8-24.1,0.1-29.5-10.9
		c-3.3-6.7-3.1-13.6-0.4-20.4C226.4,283.7,234.1,276.3,242.9,269.5z"/>
	<path class="st0" d="M278.2,195.8c10.4,8.2,18.9,16,22.6,27.5c4.1,12.6-2.1,25.5-14,29.6c-11.8,4.1-24.4-1.7-28.8-13.5
		c-3-7.8-2.1-15.7,2.5-22.3C265.7,209.7,272.1,203,278.2,195.8z"/>
	<path class="st0" d="M354.4,342.5c9,6.5,16.6,14.1,20.9,24.4c4.3,10.5,1.5,22-6.8,28.3c-8.4,6.4-19.7,6.5-28,0.1
		c-8.4-6.4-11.2-17.6-6.9-28.2C337.7,356.7,345.4,349.2,354.4,342.5z"/>
	<path class="st0" d="M316.8,269.5c9.6,7.4,17.8,15.2,21.6,26.5c3.9,11.6-1.1,23.9-11.7,28.9c-8.3,3.9-18.2,2.5-25-3.5
		c-7.2-6.4-9.6-16.4-6.1-26C299.5,284.4,307.6,276.8,316.8,269.5z"/>
</g>
</svg>
