<?xml version="1.0" encoding="utf-8"?>
<!-- Generator: Adobe Illustrator 19.0.0, SVG Export Plug-In . SVG Version: 6.00 Build 0)  -->
<svg version="1.1" id="Layer_1" xmlns="http://www.w3.org/2000/svg" xmlns:xlink="http://www.w3.org/1999/xlink" x="0px" y="0px"
	 viewBox="100 -100 500 500" style="enable-background:new 100 -100 500 500;" xml:space="preserve">
<style type="text/css">
	.st0{fill:#464646;}
</style>
<g>
	<path class="st0" d="M367.3,81.9c0,42.1,0.2,84.3-0.2,126.4c-0.1,7.8,2.1,12.9,8.4,18c34.2,27.8,45.5,72.7,29,112.9
		c-16.2,39.5-56.1,64-98.6,60.5c-42.9-3.6-78.6-34.3-87.4-77.2c-7.7-37.7,3.3-70.1,32.9-95.1c6.9-5.8,9.2-11.5,9.2-20.2
		c-0.3-83-0.2-166-0.1-249c0-28.7,15.3-50.1,39.7-56.3c34.2-8.7,66,15.2,66.8,51.2c0.8,34.5,0.2,69.1,0.3,103.6
		C367.3,65,367.3,73.4,367.3,81.9z M344.7,93.9c0-42.1,0-84.3-0.1-126.4c0-5.9-0.2-11.9-1.3-17.6c-2.9-14.6-13.9-24.1-28-24.8
		c-13.6-0.7-26.3,8.3-30.1,22.3c-1.6,6-2,12.5-2,18.7c-0.1,85.1-0.2,170.2,0.1,255.4c0,7.8-1.7,12.7-9.1,17.2
		c-29.2,17.8-41.8,52.2-32.3,84.4c9.4,31.9,38.5,53.9,71.4,54c33.7,0.2,63.6-22,72.8-53.9c9.3-32.4-3.3-66.7-32.3-84.5
		c-7.2-4.4-9.4-9.2-9.3-17.1C344.9,179,344.7,136.4,344.7,93.9z"/>
	<path class="st0" d="M325.9,168.5c0,23.6,0.3,47.2-0.2,70.7c-0.2,8.1,1.7,12.5,9.8,16c22.6,9.8,34.4,34,29.3,57
		c-5.4,24.4-26,41.5-50.4,41.7c-24,0.2-45.7-17.1-51.2-40.9c-5.4-23.4,6.6-48,29.7-58c7.7-3.3,9.6-7.4,9.5-15
		c-0.3-45.9-0.1-91.8-0.1-137.7c0-19.1,4.6-22.7,11.4-22.3c7.6,0.4,12,4.6,12,12.7C325.8,118,325.8,143.3,325.9,168.5
		C325.8,168.5,325.8,168.5,325.9,168.5z"/>
	<path class="st0" d="M478.8,192.5h-77.3c-2.8,0-5-2.3-5-5v-15.3c0-2.8,2.3-5,5-5h77.3c2.8,0,5,2.3,5,5v15.3
		C483.8,190.3,481.5,192.5,478.8,192.5z"/>
	<path class="st0" d="M478.8,125.5h-77.3c-2.8,0-5-2.3-5-5v-15.3c0-2.8,2.3-5,5-5h77.3c2.8,0,5,2.3,5,5v15.3
		C483.8,123.2,481.5,125.5,478.8,125.5z"/>
	<path class="st0" d="M478.8,59.7h-77.3c-2.8,0-5-2.2-5-5V39.4c0-2.8,2.3-5,5-5h77.3c2.8,0,5,2.2,5,5v15.3
		C483.8,57.4,481.5,59.7,478.8,59.7z"/>
	<path class="st0" d="M478.8-2.9h-77.3c-2.8,0-5-2.2-5-5v-15.3c0-2.7,2.3-5,5-5h77.3c2.8,0,5,2.2,5,5v15.3
		C483.8-5.2,481.5-2.9,478.8-2.9z"/>
</g>
</svg>
