<?xml version="1.0" encoding="utf-8"?>
<!-- Generator: Adobe Illustrator 19.0.0, SVG Export Plug-In . SVG Version: 6.00 Build 0)  -->
<svg version="1.1" id="Layer_1" xmlns="http://www.w3.org/2000/svg" xmlns:xlink="http://www.w3.org/1999/xlink" x="0px" y="0px"
	 viewBox="100 -100 500 500" style="enable-background:new 100 -100 500 500;" xml:space="preserve">
<style type="text/css">
	.st0{fill:#464646;}
</style>
<g>
	<path class="st0" d="M364.7,247.4c0,1.9,0,3.2,0,4.6c0,43.6,0,87.2,0,130.8c0,10.3-5.7,17.1-14.6,17.2c-9.1,0-14.9-6.7-14.9-17.3
		c0-43.5,0-86.9,0-130.4c0-1.5,0-3,0-4.9c-3.8,0-7.1,0-10.4,0c-31.4,0-62.8,0.1-94.2,0c-20.9-0.1-34.5-21.4-25.5-40
		c5.3-10.9,14.5-16,26.6-16c32.4,0,64.7,0,97.1,0c1.9,0,3.8,0,6.1,0c0-36.8,0-73.3,0-110.3c-48.8,0-97.6,0-147.6,0
		c1.1-9.9,1.4-19.4,3.1-28.5C203.3-15.6,253.9-65.9,322-78.6c2.6-0.5,5.2-1.1,7.8-1.2c4.1,0,5.8-1.3,5.6-5.8
		c-0.2-5.7,2.7-10.1,7.9-12.7c5.1-2.6,10.2-2.3,15,0.9c4.2,2.8,6.2,7,6.4,12c0.1,1.5,0,3,0,4.7c52.3,6.3,93.3,30.7,122,74.8
		c17,26.1,25.1,55,25.3,86.6c-49.1,0-97.8,0-146.9,0c0,36.9,0,73.5,0,110.6c1.9,0,3.8,0,5.7,0c32.5,0,65-0.1,97.5,0
		c20,0.1,33.5,17.5,28,36c-3.5,12-14.4,20-27.6,20c-33.1,0.1-66.1,0-99.2,0C368.2,247.4,366.8,247.4,364.7,247.4z"/>
	<path class="st0" d="M246.2,355.4c-29.7,0-58.7,0-88.2,0c0,5.3,0,10.4,0,15.5c0,3.9,0.1,7.8,0,11.7c-0.1,6.7-4.2,11-10.5,11
		c-6,0-10.2-4.2-10.2-10.7c-0.1-20,0-40,0-60c0-48.2,0-96.3,0-144.5c0-5.6-0.1-11.1,0-16.7c0.1-6.7,4.3-11.2,10.3-11.2
		c6.1,0,10.4,4.4,10.4,11.1c0.1,19.4,0.1,38.9,0,58.3c0,23.6-0.1,47.2-0.1,70.8c0,1.5,0,3,0,5.1c2.1,0.2,3.9,0.4,5.7,0.4
		c30.1,0,60.2,0,90.4,0c9.3,0,13,3.6,13.1,12.7c0,24.3,0,48.6,0,72.9c0,6.2-2.7,10.3-7.6,11.5c-7,1.8-13-2.9-13.2-10.5
		c-0.2-7.5,0-15,0-22.5C246.2,358.8,246.2,357.3,246.2,355.4z M158.2,334.1c29.5,0,58.6,0,87.6,0c0-5.9,0-11.3,0-16.9
		c-29.4,0-58.4,0-87.6,0C158.2,323,158.2,328.4,158.2,334.1z"/>
	<path class="st0" d="M453.8,355.5c0,8.4,0,16.6,0,24.7c0,1.9,0,3.9-0.5,5.8c-1.1,4.8-5.5,7.8-10.6,7.6c-4.8-0.2-8.7-3.6-9.5-8.4
		c-0.2-1.4-0.3-2.8-0.3-4.1c0-23.7-0.1-47.5-0.1-71.2c0-10.3,3.5-13.6,13.9-13.6c29.8,0,59.7,0,89.5,0c1.7,0,3.3,0,5.7,0
		c0-2,0-3.7,0-5.4c0-41.6,0-83.3,0-124.9c0-1.8-0.1-3.6,0.1-5.4c0.4-5.8,4.7-9.9,10.3-10c5.7,0,10.2,4.2,10.4,10.2
		c0.2,9.6,0.1,19.2,0.1,28.7c0,63.9,0,127.7,0,191.6c0,2.2-0.2,4.5-1,6.5c-1.8,4.6-6.6,6.8-11.6,5.8c-4.6-0.9-8-4.7-8.1-9.8
		c-0.2-7.8,0-15.5-0.1-23.3c0-1.5,0-3,0-4.8C512.4,355.5,483.4,355.5,453.8,355.5z M541.8,317.2c-29.3,0-58.4,0-87.6,0
		c0,5.8,0,11.4,0,17c29.4,0,58.4,0,87.6,0C541.8,328.4,541.8,323,541.8,317.2z"/>
</g>
</svg>
