<?xml version="1.0" encoding="utf-8"?>
<!-- Generator: Adobe Illustrator 19.0.0, SVG Export Plug-In . SVG Version: 6.00 Build 0)  -->
<svg version="1.1" id="Layer_1" xmlns="http://www.w3.org/2000/svg" xmlns:xlink="http://www.w3.org/1999/xlink" x="0px" y="0px"
	 viewBox="100 -100 500 500" style="enable-background:new 100 -100 500 500;" xml:space="preserve">
<style type="text/css">
	.st0{fill:#464646;}
</style>
<g>
	<g>
		<path class="st0" d="M270.6,200.4c17.2,3.3,32.6,11.5,46.2,18.7c24.4,13,37.7,19.2,51.7,7.6c7.7-6.4,7.3-10.8,7.2-12.3
			c-0.7-9.1-13.9-20-19.9-23.5l-16.7-10l16.4-10.5c1.8-1.2,19-11.4,55.7-5.8c33.9,5.1,73.3,29.6,103.8,50.3
			c12.1,8.2,41.5,14.4,66.3,18.1c12-29.2,18.7-61.3,18.7-94.8c0,0-104.8-73.6-122-77.6c-17.1-4-187.5,116.9-187.5,116.9
			s-49.4-37.3-102.8-44.4c-53.4-7.1-86.7-2-86.7-2l-1,7.1c0,29.9,5.3,58.5,14.9,85C160.2,211.8,238.5,194.3,270.6,200.4z"/>
		<path class="st0" d="M501.5,234.9c-18.2-12.4-61-41.5-93.8-46.4c-7.7-1.2-14.1-1.5-19.5-1.3c5.8,6.9,10.9,15.6,11.6,25.5
			c0.6,8.4-1.6,20.8-15.9,32.7c-27.1,22.6-54.4,8-78.5-4.8c-12.7-6.7-25.8-13.7-39.3-16.3c-25-4.8-93.8,9.8-141.8,21.7
			C164.6,330,250.5,388.2,350,388.2c95.5,0,178.5-53.6,220.6-132.3C545.8,251.8,516.4,245.1,501.5,234.9z"/>
	</g>
	<path class="st0" d="M485.6,37c11.7,2.8,42.7,21.8,76.6,44.5c3.6-10.5,5.6-21.7,5.6-33.3C567.7-8.3,522-54,465.6-54
		S363.4-8.3,363.4,48.2c0,15.8,3.6,30.8,10,44.2C464.7,32.2,476.9,35,485.6,37z"/>
	<path class="st0" d="M296.5,75.4l-57.9-57.9V-8.8l31.1,31.1c3.7,3.7,9.7,3.7,13.4,0c3.7-3.7,3.7-9.7,0-13.4l-44.4-44.4V-56
		L269.7-25c3.7,3.7,9.7,3.7,13.4,0c3.7-3.7,3.7-9.7,0-13.4l-47.2-47.2c-1.6-1.6-3.8-2.5-6-2.6c-0.3,0-0.6,0-0.9,0
		c-0.4,0-0.7,0-1.1,0.1c-2.2,0.2-4.4,1.1-6,2.8L177-38.1c-3.6,3.8-3.4,9.8,0.3,13.4c3.8,3.6,9.8,3.4,13.4-0.3l28.6-30.1v19.8
		L177,9.1c-3.6,3.8-3.4,9.8,0.3,13.4c3.8,3.6,9.8,3.4,13.4-0.3L219.3-8v25.7l-58,60.2c-3.6,3.8-3.5,9.7,0.3,13.4
		c3.8,3.6,9.7,3.5,13.4-0.3l44.4-46.1v30.5v22.4v31.3c0,5.2,19.3,5.2,19.3,0V97.8V75.4V44.3l44.5,44.5c3.7,3.7,9.7,3.7,13.4,0
		C300.1,85.1,300.1,79.1,296.5,75.4z"/>
</g>
</svg>
